<?xml version="1.0" standalone="no"?>
<!DOCTYPE svg PUBLIC "-//W3C//DTD SVG 1.1//EN" "http://www.w3.org/Graphics/SVG/1.1/DTD/svg11.dtd" >
<svg>
<metadata>
Created by FontForge 20090914 at Sun Apr 30 18:43:26 2017
 By www-data
Copyright (c) 2003 by Bitstream, Inc. All Rights Reserved.
DejaVu changes are in public domain
Changes by Saber Rastikerdar are in public domain.
Non-Arabic(Latin) glyphs and data are imported from Roboto font under the Apache License, Version 2.0.
</metadata>
<defs>
<font id="Vazir" horiz-adv-x="0" >
  <font-face 
    font-family="Vazir"
    font-weight="400"
    font-stretch="normal"
    units-per-em="2048"
    panose-1="2 11 6 3 3 8 4 2 2 4"
    ascent="1638"
    descent="-410"
    bbox="-120 -950.589 3207.03 2394"
    underline-thickness="100"
    underline-position="-500"
    unicode-range="U+0020-U+FEFC"
  />
<missing-glyph horiz-adv-x="748" 
d="M68 0v1365h544v-1365h-544zM136 68h408v1229h-408v-1229z" />
    <glyph glyph-name="uni0622" unicode="&#x627;&#x653;" horiz-adv-x="652" 
d="M238 1316.38h177v-1315.49h-177v1315.49zM259 1525c-74 10 -141.667 -21.332 -203 -93.999l-101 106c78.667 113.333 174.667 161 288 143l149 -24c64.667 -10.667 137.667 4.66602 219 45.999l66 -137c-86 -53.333 -178.333 -73.333 -277 -60z" />
    <glyph glyph-name="uni0623" unicode="&#x627;&#x654;" horiz-adv-x="494" 
d="M168 1316.38h177v-1315.49h-177v1315.49zM17 1734c0 51.333 11.999 95.002 35.999 131.002c4.66699 7.33301 10 14.333 16 21s12.333 12.667 19 18c23.333 21.333 48.833 37.166 76.5 47.499s57.167 15.5 88.5 15.5h7c28.667 -0.666992 56 -4 82 -10
c28 -6.66699 54.333 -17 79 -31l3 -2l1 -131l-8 3c-28.667 13.333 -55.667 23.166 -81 29.499s-48.333 9.5 -69 9.5c-39.333 -0.666992 -71.666 -12.334 -96.999 -35.001c-2.66699 -2.66699 -5.16699 -5.33398 -7.5 -8.00098s-4.5 -5.5 -6.5 -8.5s-3.66699 -6 -5 -9
s-2.66602 -6.16699 -3.99902 -9.5s-2.33301 -6.83301 -3 -10.5s-1 -7.5 -1 -11.5c-2.66699 -29.333 5.33301 -54.5 24 -75.5s48.667 -37.833 90 -50.5c2 -0.666992 4.16699 -1.16699 6.5 -1.5s5 -0.666016 8 -0.999023s6.16699 -0.5 9.5 -0.5
c5.33301 0 11.333 0.333008 18 1s14 1.33398 22 2.00098c31.333 4 72.666 11.667 123.999 23l6 2v-136l-437 -98v133l97 22c-62.667 48.667 -94 105.667 -94 171z" />
    <glyph glyph-name="afii57412" unicode="&#x648;&#x654;" horiz-adv-x="908" 
d="M206 1216c0 51.333 11.999 95.002 35.999 131.002c4.66699 7.33301 10 14.333 16 21s12.333 12.667 19 18c23.333 21.333 48.833 37.166 76.5 47.499s57.167 15.5 88.5 15.5h7c28.667 -0.666992 56 -4 82 -10c28 -6.66699 54.333 -17 79 -31l3 -2l1 -131l-8 3
c-28.667 13.333 -55.667 23.166 -81 29.499s-48.333 9.5 -69 9.5c-39.333 -0.666992 -71.666 -12.334 -96.999 -35.001c-2.66699 -2.66699 -5.16699 -5.33398 -7.5 -8.00098s-4.5 -5.5 -6.5 -8.5s-3.66699 -6 -5 -9s-2.66602 -6.16699 -3.99902 -9.5
s-2.33301 -6.83301 -3 -10.5s-1 -7.5 -1 -11.5c-2.66699 -29.333 5.33301 -54.5 24 -75.5s48.667 -37.833 90 -50.5c2 -0.666992 4.16699 -1.16699 6.5 -1.5s5 -0.666016 8 -0.999023s6.16699 -0.5 9.5 -0.5c5.33301 0 11.333 0.333008 18 1s14 1.33398 22 2.00098
c31.333 4 72.666 11.667 123.999 23l6 2v-136l-437 -98v133l97 22c-62.667 48.667 -94 105.667 -94 171zM489.999 178.002c46.667 1.33301 92.334 8.33203 137.001 20.999h2l-1 2c-11.333 120.667 -34.666 211.334 -69.999 272.001c-34 59.333 -79 88 -135 86
c-56.667 -0.666992 -99.334 -42.667 -128.001 -126c-15.333 -46 -23 -86.667 -23 -122c0 -39.333 11.333 -69 34 -89c37.333 -32 98.666 -46.667 183.999 -44zM801.999 127.001c-0.666992 -210 -72 -373.334 -214 -490.001c-103.333 -86 -262 -140.333 -476 -163l-32 177
c315.333 28 498.666 148.333 549.999 361l-39 -5c-331.333 -41.333 -495 58.334 -491 299.001c1.33301 74.667 17 146.667 47 216c64.667 144.667 155.334 219 272.001 223c148 4.66699 254.667 -78.333 320 -249c42 -110 63 -233 63 -369z" />
    <glyph glyph-name="uni0625" unicode="&#x627;&#x655;" horiz-adv-x="494" 
d="M12 -339c0 51.333 11.999 95.002 35.999 131.002c4.66699 7.33301 10 14.333 16 21s12.333 12.667 19 18c23.333 21.333 48.833 37.166 76.5 47.499s57.167 15.5 88.5 15.5h7c28.667 -0.666992 56 -4 82 -10c28 -6.66699 54.333 -17 79 -31l3 -2l1 -131l-8 3
c-28.667 13.333 -55.667 23.166 -81 29.499s-48.333 9.5 -69 9.5c-39.333 -0.666992 -71.666 -12.334 -96.999 -35.001c-2.66699 -2.66699 -5.16699 -5.33398 -7.5 -8.00098s-4.5 -5.5 -6.5 -8.5s-3.66699 -6 -5 -9s-2.66602 -6.16699 -3.99902 -9.5
s-2.33301 -6.83301 -3 -10.5s-1 -7.5 -1 -11.5c-2.66699 -29.333 5.33301 -54.5 24 -75.5s48.667 -37.833 90 -50.5c2 -0.666992 4.16699 -1.16699 6.5 -1.5s5 -0.666016 8 -0.999023s6.16699 -0.5 9.5 -0.5c5.33301 0 11.333 0.333008 18 1s14 1.33398 22 2.00098
c31.333 4 72.666 11.667 123.999 23l6 2v-136l-437 -98v133l97 22c-62.667 48.667 -94 105.667 -94 171zM163.999 1464h177v-1463h-177v1463z" />
    <glyph glyph-name="afii57414" unicode="&#x64a;&#x654;" horiz-adv-x="1512" 
d="M322 1024c0 51.333 11.999 95.002 35.999 131.002c4.66699 7.33301 10 14.333 16 21s12.333 12.667 19 18c23.333 21.333 48.833 37.166 76.5 47.499s57.167 15.5 88.5 15.5h7c28.667 -0.666992 56 -4 82 -10c28 -6.66699 54.333 -17 79 -31l3 -2l1 -131l-8 3
c-28.667 13.333 -55.667 23.166 -81 29.499s-48.333 9.5 -69 9.5c-39.333 -0.666992 -71.666 -12.334 -96.999 -35.001c-2.66699 -2.66699 -5.16699 -5.33398 -7.5 -8.00098s-4.5 -5.5 -6.5 -8.5s-3.66699 -6 -5 -9s-2.66602 -6.16699 -3.99902 -9.5
s-2.33301 -6.83301 -3 -10.5s-1 -7.5 -1 -11.5c-2.66699 -29.333 5.33301 -54.5 24 -75.5s48.667 -37.833 90 -50.5c2 -0.666992 4.16699 -1.16699 6.5 -1.5s5 -0.666016 8 -0.999023s6.16699 -0.5 9.5 -0.5c5.33301 0 11.333 0.333008 18 1s14 1.33398 22 2.00098
c31.333 4 72.666 11.667 123.999 23l6 2v-136l-437 -98v133l97 22c-62.667 48.667 -94 105.667 -94 171zM724.999 -341.998c150.667 0 277.667 37.332 381 111.999c80.667 57.333 123.334 122.333 128.001 195c0.666992 16.667 -2.33301 28 -9 34
c-12 10.667 -39.667 16 -83 16l-113 1c-163.333 0.666992 -226 85 -188 253c20 90.667 63.333 173.667 130 249c114.667 130.667 255.667 197.667 423 201v-190c-211.333 -15.333 -340 -124.666 -386 -327.999l179 1c144.667 0 216.667 -71.333 216 -214
c0 -84 -26 -165 -78 -243c-47.333 -72.667 -114.333 -132 -201 -178c-57.333 -30 -119.666 -52.333 -186.999 -67c-66.667 -15.333 -138 -22.666 -214 -21.999c-262.667 0.666992 -440.334 82 -533.001 244c-50 87.333 -75 191.666 -75 312.999
c-0.666992 140 35 296.333 107 469l160 -64c-60.667 -152.667 -90.667 -282 -90 -388c1.33301 -262 145.666 -393.333 432.999 -394z" />
    <glyph glyph-name="uni06C0" unicode="&#x647;&#x654;" horiz-adv-x="971" 
d="M221 1283c24 -5.33301 50.668 -8.00488 80.001 -8.00488c61.333 0 112 8.33301 152 25c13.333 5.33301 25.666 11.333 36.999 18l15.5 10l14.5 10c8.66699 7.33301 16.667 15.166 24 23.499s13.666 17.166 18.999 26.499c0 0.666992 0.166992 1.5 0.5 2.5
s0.833008 1.83301 1.5 2.5s1 1.33398 1 2.00098l3 7c0.666992 2.66699 1.33398 5 2.00098 7s1.33398 4.33301 2.00098 7c0.666992 6.66699 0.333984 11.667 -0.999023 15c0 1.33301 -0.333008 2.33301 -1 3l-2.5 2.5c-1 1 -2 1.66699 -3 2s-2.16699 0.833008 -3.5 1.5
s-3 1.33398 -5 2.00098c-1.33301 0 -2.66602 0.166992 -3.99902 0.5s-2.66602 0.5 -3.99902 0.5c-2.66699 0.666992 -5.33398 1 -8.00098 1l-96 2c-6 0 -11.833 0.5 -17.5 1.5l-16.5 3c-5.33301 1 -10.333 2.5 -15 4.5s-9.16699 4.16699 -13.5 6.5s-8.5 4.83301 -12.5 7.5
c-2 1.33301 -3.83301 2.83301 -5.5 4.5l-5.5 5.5c-19.333 20.667 -28.666 50 -27.999 88c0.666992 48.667 17 96.334 49 143.001c1.33301 1.33301 2.66602 3 3.99902 5c0.666992 0.666992 1.33398 1.5 2.00098 2.5s1.33398 1.83301 2.00098 2.5
c1.33301 2 2.66602 3.83301 3.99902 5.5s2.83301 3.33398 4.5 5.00098s3.16699 3.5 4.5 5.5c7.33301 8 15.166 15.5 23.499 22.5s17.5 13.5 27.5 19.5c28.667 18.667 62 32.334 100 41.001c18.667 4.66699 38.667 8.16699 60 10.5s43.666 3.5 66.999 3.5h13l-9 -126h-11
c-10 0 -20 -0.333008 -30 -1c-2.66699 0 -5.5 -0.166992 -8.5 -0.5l-9 -1c-3 -0.333008 -6.16699 -0.833008 -9.5 -1.5l-25 -4c-2.66699 -0.666992 -5.33398 -1.16699 -8.00098 -1.5s-5.16699 -0.833008 -7.5 -1.5s-4.83301 -1.33398 -7.5 -2.00098
c-7.33301 -2 -14.333 -4.33301 -21 -7c-3.33301 -1.33301 -6.5 -2.66602 -9.5 -3.99902s-6.16699 -2.66602 -9.5 -3.99902c-2 -0.666992 -3.83301 -1.5 -5.5 -2.5s-3.5 -2 -5.5 -3s-3.66699 -2.16699 -5 -3.5c-17.333 -11.333 -30.833 -24.833 -40.5 -40.5
s-15.834 -33.5 -18.501 -53.5l-1 -7l103 -3c40 -1.33301 71 -10.333 93 -27c4 -3.33301 7.83301 -7.16602 11.5 -11.499s7.16699 -9.16602 10.5 -14.499c2 -3.33301 4 -7 6 -11s3.83301 -8.16699 5.5 -12.5s3.16699 -8.83301 4.5 -13.5
c1.33301 -3.33301 2.33301 -6.5 3 -9.5s1.16699 -6.33301 1.5 -10l1 -10.5c0.333008 -3.33301 0.5 -7 0.5 -11v-6c0 -2 -0.166992 -3.83301 -0.5 -5.5s-0.5 -3.5 -0.5 -5.5c-0.666992 -6 -1.66699 -12 -3 -18c0 -2 -0.333008 -4 -1 -6s-1.16699 -4 -1.5 -6
s-0.833008 -3.83301 -1.5 -5.5s-1.16699 -3.5 -1.5 -5.5s-0.833008 -4 -1.5 -6s-1.5 -4.16699 -2.5 -6.5s-1.83301 -4.66602 -2.5 -6.99902s-1.5 -4.66602 -2.5 -6.99902s-2.16699 -4.5 -3.5 -6.5c-4 -8.66699 -8.5 -17.334 -13.5 -26.001s-10.5 -17 -16.5 -25
s-12.5 -15.833 -19.5 -23.5s-14.5 -14.834 -22.5 -21.501c-4 -4 -8.16699 -7.66699 -12.5 -11l-13.5 -10l-14 -10l-14 -10c-60.667 -37.333 -142.667 -56 -246 -56c-8.66699 -0.666992 -17.167 -0.833984 -25.5 -0.500977s-16.5 0.833008 -24.5 1.5s-15.833 1.5 -23.5 2.5
s-15.167 2.16699 -22.5 3.5l-11 2l19 125zM472.001 650.995c-131.333 -115.333 -196.669 -217 -196.002 -305c0.666992 -106.667 69.667 -160 207 -160c142 0 214 53.333 216 160c0.666992 42 -17.666 88.333 -54.999 139s-93.666 106 -168.999 166l-1 1zM387.998 970.995
c78.667 -56.667 147.668 -112.501 207.001 -167.501s109 -108.5 149 -160.5c39.333 -52 69.333 -103 90 -153c20.667 -49.333 31.667 -97.666 33 -144.999c3.33301 -124.667 -49.334 -220.334 -158.001 -287.001c-58.667 -36 -133.334 -54 -224.001 -54
c-81.333 0 -150.666 14.333 -207.999 43c-113.333 56 -170 151.667 -170 287c0.666992 144.667 81.667 295.334 243 452.001l1 2l-62 52z" />
    <glyph glyph-name="uniFBA5.fina" unicode="&#xfeea;&#x654;" horiz-adv-x="1092" arabic-form="final" 
d="M387 1255c24 -5.33301 50.668 -8.00488 80.001 -8.00488c61.333 0 112 8.33301 152 25c13.333 5.33301 25.666 11.333 36.999 18l15.5 10l14.5 10c8.66699 7.33301 16.667 15.166 24 23.499s13.666 17.166 18.999 26.499c0 0.666992 0.166992 1.5 0.5 2.5
s0.833008 1.83301 1.5 2.5s1 1.33398 1 2.00098l3 7c0.666992 2.66699 1.33398 5 2.00098 7s1.33398 4.33301 2.00098 7c0.666992 6.66699 0.333984 11.667 -0.999023 15c0 1.33301 -0.333008 2.33301 -1 3l-2.5 2.5c-1 1 -2 1.66699 -3 2s-2.16699 0.833008 -3.5 1.5
s-3 1.33398 -5 2.00098c-1.33301 0 -2.66602 0.166992 -3.99902 0.5s-2.66602 0.5 -3.99902 0.5c-2.66699 0.666992 -5.33398 1 -8.00098 1l-96 2c-6 0 -11.833 0.5 -17.5 1.5l-16.5 3c-5.33301 1 -10.333 2.5 -15 4.5s-9.16699 4.16699 -13.5 6.5s-8.5 4.83301 -12.5 7.5
c-2 1.33301 -3.83301 2.83301 -5.5 4.5l-5.5 5.5c-19.333 20.667 -28.666 50 -27.999 88c0.666992 48.667 17 96.334 49 143.001c1.33301 1.33301 2.66602 3 3.99902 5c0.666992 0.666992 1.33398 1.5 2.00098 2.5s1.33398 1.83301 2.00098 2.5
c1.33301 2 2.66602 3.83301 3.99902 5.5s2.83301 3.33398 4.5 5.00098s3.16699 3.5 4.5 5.5c7.33301 8 15.166 15.5 23.499 22.5s17.5 13.5 27.5 19.5c28.667 18.667 62 32.334 100 41.001c18.667 4.66699 38.667 8.16699 60 10.5s43.666 3.5 66.999 3.5h13l-9 -126h-11
c-10 0 -20 -0.333008 -30 -1c-2.66699 0 -5.5 -0.166992 -8.5 -0.5l-9 -1c-3 -0.333008 -6.16699 -0.833008 -9.5 -1.5l-25 -4c-2.66699 -0.666992 -5.33398 -1.16699 -8.00098 -1.5s-5.16699 -0.833008 -7.5 -1.5s-4.83301 -1.33398 -7.5 -2.00098
c-7.33301 -2 -14.333 -4.33301 -21 -7c-3.33301 -1.33301 -6.5 -2.66602 -9.5 -3.99902s-6.16699 -2.66602 -9.5 -3.99902c-2 -0.666992 -3.83301 -1.5 -5.5 -2.5s-3.5 -2 -5.5 -3s-3.66699 -2.16699 -5 -3.5c-17.333 -11.333 -30.833 -24.833 -40.5 -40.5
s-15.834 -33.5 -18.501 -53.5l-1 -7l103 -3c40 -1.33301 71 -10.333 93 -27c4 -3.33301 7.83301 -7.16602 11.5 -11.499s7.16699 -9.16602 10.5 -14.499c2 -3.33301 4 -7 6 -11s3.83301 -8.16699 5.5 -12.5s3.16699 -8.83301 4.5 -13.5
c1.33301 -3.33301 2.33301 -6.5 3 -9.5s1.16699 -6.33301 1.5 -10l1 -10.5c0.333008 -3.33301 0.5 -7 0.5 -11v-6c0 -2 -0.166992 -3.83301 -0.5 -5.5s-0.5 -3.5 -0.5 -5.5c-0.666992 -6 -1.66699 -12 -3 -18c0 -2 -0.333008 -4 -1 -6s-1.16699 -4 -1.5 -6
s-0.833008 -3.83301 -1.5 -5.5s-1.16699 -3.5 -1.5 -5.5s-0.833008 -4 -1.5 -6s-1.5 -4.16699 -2.5 -6.5s-1.83301 -4.66602 -2.5 -6.99902s-1.5 -4.66602 -2.5 -6.99902s-2.16699 -4.5 -3.5 -6.5c-4 -8.66699 -8.5 -17.334 -13.5 -26.001s-10.5 -17 -16.5 -25
s-12.5 -15.833 -19.5 -23.5s-14.5 -14.834 -22.5 -21.501c-4 -4 -8.16699 -7.66699 -12.5 -11l-13.5 -10l-14 -10l-14 -10c-60.667 -37.333 -142.667 -56 -246 -56c-8.66699 -0.666992 -17.167 -0.833984 -25.5 -0.500977s-16.5 0.833008 -24.5 1.5s-15.833 1.5 -23.5 2.5
s-15.167 2.16699 -22.5 3.5l-11 2l19 125zM107.001 440.995c0 233.333 182.002 380.667 546.002 442h2l-5 54l168 23l79 -583c17.333 -127.333 81.666 -191 192.999 -191h9c15.333 0 23 -25.333 23 -76v-23c0 -58 -7.33301 -87 -22 -87h-13c-174 0 -285.333 83.333 -334 250
l-1 3l-3 -2c-74.667 -66 -170 -99 -286 -99c-120.667 -0.666992 -212.334 29.333 -275.001 90c-54 52 -81 118.333 -81 199zM677.003 708.996c-259.333 -42.667 -389.001 -125.333 -389.001 -248c-0.666992 -44.667 13.833 -78.167 43.5 -100.5s73.834 -33.5 132.501 -33.5
c11.333 0 22.5 0.333008 33.5 1s21.5 1.66699 31.5 3s19.667 3 29 5s18 4.16699 26 6.5s15.667 5.16602 23 8.49902s14 7 20 11c66 40.667 92.333 103.334 79 188.001l-27 159h-2z" />
    <glyph glyph-name="uniFDF2" unicode="&#x627;&#xfedf;&#xfee0;&#xfeea;" horiz-adv-x="2916" arabic-form="isolated" 
d="M1392 1802v452h88v-452h-88zM1481 1700c1.33301 -30.667 2.00098 -61.333 2.00098 -92c0 -68 31.333 -102 94 -102c52 0.666992 78.333 38.334 79 113.001c0 28 -6.33301 71.333 -19 130l98 16c13.333 -46 19.666 -91.333 18.999 -136
c0.666992 -149.333 -56.666 -224.333 -171.999 -225c-54 -0.666992 -96.667 19 -128 59c-22.667 -86.667 -79 -130 -169 -130c-100 0 -151 62.333 -153 187c-0.666992 44 4 84.333 14 121l87 -14c-7.33301 -34.667 -11 -65.334 -11 -92.001c0.666992 -62 26 -93 76 -93
c60.667 -0.666992 92.667 41 96 125c1.33301 38 1.66602 82.333 0.999023 133h86zM107.001 441.001c0 233.333 182.002 380.667 546.002 442h2l-5 54l168 23l79 -583c17.333 -127.333 81.666 -191 192.999 -191h9c15.333 0 23 -25.333 23 -76v-23
c0 -58 -7.33301 -87 -22 -87h-13c-174 0 -285.333 83.333 -334 250l-1 3l-3 -2c-74.667 -66 -170 -99 -286 -99c-120.667 -0.666992 -212.334 29.333 -275.001 90c-54 52 -81 118.333 -81 199zM677.003 709.002c-259.333 -42.667 -389.001 -125.333 -389.001 -248
c-0.666992 -44.667 13.833 -78.167 43.5 -100.5s73.834 -33.5 132.501 -33.5c11.333 0 22.5 0.333008 33.5 1s21.5 1.66699 31.5 3s19.667 3 29 5s18 4.16699 26 6.5s15.667 5.16602 23 8.49902s14 7 20 11c66 40.667 92.333 103.334 79 188.001l-27 159h-2zM1460 151.003
c-69.333 -100.667 -180 -151 -332 -151h-28c-51.333 0 -77 29 -77 87v18c0 54 25.667 81 77 81h30c164.667 0 247 77.333 247 232v831h180v-831c0 -154.667 76.667 -232 230 -232h9c22 0 33 -27 33 -81v-18c0 -31.333 -2.66699 -53 -8 -65c-6 -14.667 -14.333 -22 -25 -22
h-7c-146 0 -254.667 50.333 -326 151l-2 2zM1798 0.00292969c-51.333 0 -77 29 -77 87v18c0 54 25.667 81 77 81h27c164 0 246 78.333 246 235v1012h176v-1017c0 -277.333 -142.333 -416 -427 -416h-22zM2560 1464h177v-1463h-177v1463z" />
    <glyph glyph-name="uniFE70" unicode="&#x20;&#x64b;" horiz-adv-x="755" arabic-form="isolated" 
d="M95 1196v115l506 207v-115zM95 1476v115l506 207v-115z" />
    <glyph glyph-name="uniFE72" unicode="&#x20;&#x64c;" horiz-adv-x="755" arabic-form="isolated" 
d="M385 1908c-14.667 -17.333 -21.999 -37 -21.999 -59c0 -42.667 24.333 -74 73 -94c17.333 -6.66699 44.666 -15.667 81.999 -27c20.667 34 31 68.667 31 104c0 73.333 -33.333 109.333 -100 108c-24 0 -45.333 -10.667 -64 -32zM86.001 1683
c3.33301 -167.333 52.999 -250.665 148.999 -249.998c52.667 0 107.334 27.667 164.001 83c33.333 32 64.666 77 93.999 135l-33 7c-74 16 -124.667 42 -152 78c-24 31.333 -36 65.666 -36 102.999s6.33301 68.666 19 93.999c32.667 63.333 83.667 95 153 95
c56 0.666992 102.333 -17 139 -53c34.667 -34 52.334 -81 53.001 -141c0 -30 -8 -70.667 -24 -122l33 -1c20 -1.33301 41.667 -2.33301 65 -3v-87c-28 0.666992 -46.667 1.33398 -56 2.00098l-85 8c-31.333 -74.667 -80 -141 -146 -199c-66 -57.333 -124.667 -86 -176 -86
c-144.667 -0.666992 -219 111.666 -223 336.999h62z" />
    <glyph glyph-name="uniFE74" unicode="&#x20;&#x64d;" horiz-adv-x="755" arabic-form="isolated" 
d="M101 -540v115l506 207v-115zM101 -260v115l506 207v-115z" />
    <glyph glyph-name="uniFE76" unicode="&#x20;&#x64e;" horiz-adv-x="755" arabic-form="isolated" 
d="M61 1499v115l506 207v-115z" />
    <glyph glyph-name="uniFE78" unicode="&#x20;&#x64f;" horiz-adv-x="755" arabic-form="isolated" 
d="M646 1638c-20.667 0 -42.6641 1.00098 -65.9971 3.00098c-44.667 4 -70 6.33301 -76 7h-2l-2 -2c-66.667 -94 -158.334 -159.333 -275.001 -196c-44.667 -14 -91 -22.333 -139 -25v87c114.667 5.33301 210.667 48.666 288 129.999l31 33
c-34 7.33301 -65.333 18.333 -94 33c-34 18 -59.333 39.667 -76 65c-19.333 29.333 -27.666 62.666 -24.999 99.999c3.33301 42.667 16.666 78.667 39.999 108c32.667 39.333 79.667 59.666 141 60.999c23.333 0.666992 46.666 -3.66602 69.999 -12.999
c47.333 -19.333 79.666 -52.333 96.999 -99c10 -26 14.333 -52.667 13 -80c0 -12 -1.33301 -25.333 -4 -40c-3.33301 -17.333 -7.33301 -33.666 -12 -48.999l-10 -32l33 -2c25.333 -1.33301 48 -2 68 -2v-87zM454.003 1744l6.99902 16.001
c15.333 35.333 23 68.666 23 99.999c0 30.667 -10 54 -30 70c-18 15.333 -40.333 23 -67 23c-30 0 -53 -10.667 -69 -32c-13.333 -18 -19.666 -39 -18.999 -63c0 -38 24.333 -66.667 73 -86c16.667 -6.66699 43 -15.667 79 -27z" />
    <glyph glyph-name="uniFE7A" unicode="&#x20;&#x650;" horiz-adv-x="755" arabic-form="isolated" 
d="M113 -384v115l506 207v-115z" />
    <glyph glyph-name="uniFE7C" unicode="&#x20;&#x651;" horiz-adv-x="755" arabic-form="isolated" 
d="M408 1965c1.33301 -30.667 2.00098 -61.333 2.00098 -92c0 -68 31.333 -102 94 -102c52 0.666992 78.333 38.334 79 113.001c0 28 -6.33301 71.333 -19 130l98 16c13.333 -46 19.666 -91.333 18.999 -136c0.666992 -149.333 -56.666 -224.333 -171.999 -225
c-54 -0.666992 -96.667 19 -128 59c-22.667 -86.667 -79 -130 -169 -130c-100 0 -151 62.333 -153 187c-0.666992 44 4 84.333 14 121l87 -14c-7.33301 -34.667 -11 -65.334 -11 -92.001c0.666992 -62 26 -93 76 -93c60.667 -0.666992 92.667 41 96 125
c1.33301 38 1.66602 82.333 0.999023 133h86z" />
    <glyph glyph-name="uniFE7E" unicode="&#x20;&#x652;" horiz-adv-x="755" arabic-form="isolated" 
d="M174 1624c0 60.667 21 112 63 154s93.333 63 154 63s112 -21 154 -63s63 -93.333 63 -154s-21 -112 -63 -154s-93.333 -63 -154 -63s-112 21 -154 63s-63 93.333 -63 154zM270 1623c0 -34.667 12 -64 36 -88s53.333 -36 88 -36s64 12 88 36s36 53.333 36 88
s-12 64 -36 88s-53.333 36 -88 36s-64 -12 -88 -36s-36 -53.333 -36 -88z" />
    <glyph glyph-name="uniFEF5" unicode="&#xfedf;&#xfe82;" horiz-adv-x="1241" arabic-form="isolated" 
d="M184 1578c-74 10 -141.667 -21.332 -203 -93.999l-101 106c78.667 113.333 174.667 161 288 143l149 -24c64.667 -10.667 137.667 4.66602 219 45.999l66 -137c-86 -53.333 -178.333 -73.333 -277 -60zM250 1398c168 -428.667 296.002 -821.334 384.002 -1178v-2h2
c183.333 58.667 275.333 190.334 276 395.001v851h176v-842c0 -136.667 -24.667 -250.667 -74 -342s-123 -160.333 -221 -207c-98.667 -46.667 -222 -70.667 -370 -72c-66.667 -0.666992 -166.334 6 -299.001 20v192c123.333 -22.667 237 -32.667 341 -30h3l-1 3
c-78.667 314 -207.334 697.333 -386.001 1150z" />
    <glyph glyph-name="uniFEF6" unicode="&#xfee0;&#xfe82;" horiz-adv-x="1321" arabic-form="final" 
d="M636 218c183.333 58.667 275.334 190.333 276.001 395v851h176v-934c0 -229.333 72.333 -344 217 -344h24c14.667 0 22 -27 22 -81v-18c0 -58 -7.33301 -87 -22 -87h-37c-169.333 0 -277 79.667 -323 239l-1 4l-2 -4c-90 -156 -271 -235.333 -543 -238
c-66.667 -0.666992 -166.334 6 -299.001 20v192c125.333 -22.667 239 -32.667 341 -30h3l-1 3c-77.333 308 -206 691.333 -386 1150l169 62c167.333 -427.333 295.333 -820 384 -1178v-2h2zM184.001 1578c-74 10 -141.667 -21.332 -203 -93.999l-101 106
c78.667 113.333 174.667 161 288 143l149 -24c64.667 -10.667 137.667 4.66602 219 45.999l66 -137c-86 -53.333 -178.333 -73.333 -277 -60z" />
    <glyph glyph-name="uniFEF7" unicode="&#xfedf;&#xfe84;" horiz-adv-x="1241" arabic-form="isolated" 
d="M-57 1857c0 51.333 11.999 95.002 35.999 131.002c4.66699 7.33301 10 14.333 16 21s12.333 12.667 19 18c23.333 21.333 48.833 37.166 76.5 47.499s57.167 15.5 88.5 15.5h7c28.667 -0.666992 56 -4 82 -10c28 -6.66699 54.333 -17 79 -31l3 -2l1 -131l-8 3
c-28.667 13.333 -55.667 23.166 -81 29.499s-48.333 9.5 -69 9.5c-39.333 -0.666992 -71.666 -12.334 -96.999 -35.001c-2.66699 -2.66699 -5.16699 -5.33398 -7.5 -8.00098s-4.5 -5.5 -6.5 -8.5s-3.66699 -6 -5 -9s-2.66602 -6.16699 -3.99902 -9.5
s-2.33301 -6.83301 -3 -10.5s-1 -7.5 -1 -11.5c-2.66699 -29.333 5.33301 -54.5 24 -75.5s48.667 -37.833 90 -50.5c2 -0.666992 4.16699 -1.16699 6.5 -1.5s5 -0.666016 8 -0.999023s6.16699 -0.5 9.5 -0.5c5.33301 0 11.333 0.333008 18 1s14 1.33398 22 2.00098
c31.333 4 72.666 11.667 123.999 23l6 2v-136l-437 -98v133l97 22c-62.667 48.667 -94 105.667 -94 171zM249.999 1398c168 -428.667 296.002 -821.334 384.002 -1178v-2h2c183.333 58.667 275.333 190.334 276 395.001v851h176v-842c0 -136.667 -24.667 -250.667 -74 -342
s-123 -160.333 -221 -207c-98.667 -46.667 -222 -70.667 -370 -72c-66.667 -0.666992 -166.334 6 -299.001 20v192c123.333 -22.667 237 -32.667 341 -30h3l-1 3c-78.667 314 -207.334 697.333 -386.001 1150z" />
    <glyph glyph-name="uniFEF8" unicode="&#xfee0;&#xfe84;" horiz-adv-x="1321" arabic-form="final" 
d="M636 218c183.333 58.667 275.334 190.333 276.001 395v851h176v-934c0 -229.333 72.333 -344 217 -344h24c14.667 0 22 -27 22 -81v-18c0 -58 -7.33301 -87 -22 -87h-37c-169.333 0 -277 79.667 -323 239l-1 4l-2 -4c-90 -156 -271 -235.333 -543 -238
c-66.667 -0.666992 -166.334 6 -299.001 20v192c125.333 -22.667 239 -32.667 341 -30h3l-1 3c-77.333 308 -206 691.333 -386 1150l169 62c167.333 -427.333 295.333 -820 384 -1178v-2h2zM-56.999 1857c0 51.333 11.999 95.001 35.999 131.001
c4.66699 7.33301 10 14.333 16 21s12.333 12.667 19 18c23.333 21.333 48.833 37.166 76.5 47.5c27.667 10.333 57.167 15.5 88.5 15.5h7c28.667 -0.666992 56 -4 82 -10c28 -6.66699 54.333 -17 79 -31l3 -2l1 -131l-8 3c-28.667 13.333 -55.667 23.166 -81 29.499
s-48.333 9.5 -69 9.5c-39.333 -0.666992 -71.666 -12.334 -96.999 -35.001c-2.66699 -2.66699 -5.16699 -5.33398 -7.5 -8.00098s-4.5 -5.5 -6.5 -8.5s-3.66699 -6 -5 -9s-2.66602 -6.16699 -3.99902 -9.5s-2.33301 -6.83301 -3 -10.5s-1 -7.5 -1 -11.5
c-2.66699 -29.333 5.33301 -54.5 24 -75.5s48.667 -37.833 90 -50.5c2 -0.666992 4.16699 -1.16699 6.5 -1.5s5 -0.666016 8 -0.999023s6.16699 -0.5 9.5 -0.5c5.33301 0 11.333 0.333008 18 1s14 1.33398 22 2.00098c31.333 4 72.666 11.667 123.999 23l6 2v-136l-437 -98
v133l97 22c-62.667 48.667 -94 105.667 -94 171z" />
    <glyph glyph-name="uniFEF9" unicode="&#xfedf;&#xfe88;" horiz-adv-x="1241" arabic-form="isolated" 
d="M250 1398c168 -428.667 296.002 -821.334 384.002 -1178v-2h2c183.333 58.667 275.333 190.334 276 395.001v851h176v-842c0 -136.667 -24.667 -250.667 -74 -342s-123 -160.333 -221 -207c-98.667 -46.667 -222 -70.667 -370 -72
c-66.667 -0.666992 -166.334 6 -299.001 20v192c123.333 -22.667 237 -32.667 341 -30h3l-1 3c-78.667 314 -207.334 697.333 -386.001 1150zM31.002 -312c0 51.333 11.999 95.002 35.999 131.002c4.66699 7.33301 10 14.333 16 21s12.333 12.667 19 18
c23.333 21.333 48.833 37.166 76.5 47.499s57.167 15.5 88.5 15.5h7c28.667 -0.666992 56 -4 82 -10c28 -6.66699 54.333 -17 79 -31l3 -2l1 -131l-8 3c-28.667 13.333 -55.667 23.166 -81 29.499s-48.333 9.5 -69 9.5c-39.333 -0.666992 -71.666 -12.334 -96.999 -35.001
c-2.66699 -2.66699 -5.16699 -5.33398 -7.5 -8.00098s-4.5 -5.5 -6.5 -8.5s-3.66699 -6 -5 -9s-2.66602 -6.16699 -3.99902 -9.5s-2.33301 -6.83301 -3 -10.5s-1 -7.5 -1 -11.5c-2.66699 -29.333 5.33301 -54.5 24 -75.5s48.667 -37.833 90 -50.5
c2 -0.666992 4.16699 -1.16699 6.5 -1.5s5 -0.666016 8 -0.999023s6.16699 -0.5 9.5 -0.5c5.33301 0 11.333 0.333008 18 1s14 1.33398 22 2.00098c31.333 4 72.666 11.667 123.999 23l6 2v-136l-437 -98v133l97 22c-62.667 48.667 -94 105.667 -94 171z" />
    <glyph glyph-name="uniFEFA" unicode="&#xfee0;&#xfe88;" horiz-adv-x="1321" arabic-form="final" 
d="M31 -312c0 51.333 11.999 95.002 35.999 131.002c4.66699 7.33301 10 14.333 16 21s12.333 12.667 19 18c23.333 21.333 48.833 37.166 76.5 47.499s57.167 15.5 88.5 15.5h7c28.667 -0.666992 56 -4 82 -10c28 -6.66699 54.333 -17 79 -31l3 -2l1 -131l-8 3
c-28.667 13.333 -55.667 23.166 -81 29.499s-48.333 9.5 -69 9.5c-39.333 -0.666992 -71.666 -12.334 -96.999 -35.001c-2.66699 -2.66699 -5.16699 -5.33398 -7.5 -8.00098s-4.5 -5.5 -6.5 -8.5s-3.66699 -6 -5 -9s-2.66602 -6.16699 -3.99902 -9.5
s-2.33301 -6.83301 -3 -10.5s-1 -7.5 -1 -11.5c-2.66699 -29.333 5.33301 -54.5 24 -75.5s48.667 -37.833 90 -50.5c2 -0.666992 4.16699 -1.16699 6.5 -1.5s5 -0.666016 8 -0.999023s6.16699 -0.5 9.5 -0.5c5.33301 0 11.333 0.333008 18 1s14 1.33398 22 2.00098
c31.333 4 72.666 11.667 123.999 23l6 2v-136l-437 -98v133l97 22c-62.667 48.667 -94 105.667 -94 171zM635.999 218.002c183.333 58.667 275.334 190.333 276.001 395v851h176v-934c0 -229.333 72.333 -344 217 -344h24c14.667 0 22 -27 22 -81v-18
c0 -58 -7.33301 -87 -22 -87h-37c-169.333 0 -277 79.667 -323 239l-1 4l-2 -4c-90 -156 -271 -235.333 -543 -238c-66.667 -0.666992 -166.334 6 -299.001 20v192c125.333 -22.667 239 -32.667 341 -30h3l-1 3c-77.333 308 -206 691.333 -386 1150l169 62
c167.333 -427.333 295.333 -820 384 -1178v-2h2z" />
    <glyph glyph-name="uniFEFB" unicode="&#xfedf;&#xfe8e;" horiz-adv-x="1241" arabic-form="isolated" 
d="M250 1398c168 -428.667 296.002 -821.334 384.002 -1178v-2h2c183.333 58.667 275.333 190.334 276 395.001v851h176v-842c0 -136.667 -24.667 -250.667 -74 -342s-123 -160.333 -221 -207c-98.667 -46.667 -222 -70.667 -370 -72
c-66.667 -0.666992 -166.334 6 -299.001 20v192c123.333 -22.667 237 -32.667 341 -30h3l-1 3c-78.667 314 -207.334 697.333 -386.001 1150z" />
    <glyph glyph-name="uniFEFC" unicode="&#xfee0;&#xfe8e;" horiz-adv-x="1321" arabic-form="final" 
d="M636 218c183.333 58.667 275.334 190.333 276.001 395v851h176v-934c0 -229.333 72.333 -344 217 -344h24c14.667 0 22 -27 22 -81v-18c0 -58 -7.33301 -87 -22 -87h-37c-169.333 0 -277 79.667 -323 239l-1 4l-2 -4c-90 -156 -271 -235.333 -543 -238
c-66.667 -0.666992 -166.334 6 -299.001 20v192c125.333 -22.667 239 -32.667 341 -30h3l-1 3c-77.333 308 -206 691.333 -386 1150l169 62c167.333 -427.333 295.333 -820 384 -1178v-2h2z" />
    <glyph glyph-name="uni0651064B" unicode="&#x64b;&#x651;" 
d="M370 1358v115l506 207v-115zM370 1638v115l506 207v-115zM683 1264c1.33301 -30.667 2.00098 -61.333 2.00098 -92c0 -68 31.333 -102 94 -102c52 0.666992 78.333 38.334 79 113.001c0 28 -6.33301 71.333 -19 130l98 16c13.333 -46 19.666 -91.333 18.999 -136
c0.666992 -149.333 -56.666 -224.333 -171.999 -225c-54 -0.666992 -96.667 19 -128 59c-22.667 -86.667 -79 -130 -169 -130c-100 0 -151 62.333 -153 187c-0.666992 44 4 84.333 14 121l87 -14c-7.33301 -34.667 -11 -65.334 -11 -92.001c0.666992 -62 26 -93 76 -93
c60.667 -0.666992 92.667 41 96 125c1.33301 38 1.66602 82.333 0.999023 133h86z" />
    <glyph glyph-name="uni0651064C" unicode="&#x64c;&#x651;" 
d="M647 1920c-14.667 -17.333 -21.999 -37 -21.999 -59c0 -42.667 24.333 -74 73 -94c17.333 -6.66699 44.666 -15.667 81.999 -27c20.667 34 31 68.667 31 104c0 73.333 -33.333 109.333 -100 108c-24 0 -45.333 -10.667 -64 -32zM348.001 1695
c3.33301 -167.333 52.999 -250.665 148.999 -249.998c52.667 0 107.334 27.667 164.001 83c33.333 32 64.666 77 93.999 135l-33 7c-74 16 -124.667 42 -152 78c-24 31.333 -36 65.666 -36 102.999s6.33301 68.666 19 93.999c32.667 63.333 83.667 95 153 95
c56 0.666992 102.333 -17 139 -53c34.667 -34 52.334 -81 53.001 -141c0 -30 -8 -70.667 -24 -122l33 -1c20 -1.33301 41.667 -2.33301 65 -3v-87c-28 0.666992 -46.667 1.33398 -56 2.00098l-85 8c-31.333 -74.667 -80 -141 -146 -199c-66 -57.333 -124.667 -86 -176 -86
c-144.667 -0.666992 -219 111.666 -223 336.999h62zM670 1268c1.33301 -30.667 2.00098 -61.333 2.00098 -92c0 -68 31.333 -102 94 -102c52 0.666992 78.333 38.334 79 113.001c0 28 -6.33301 71.333 -19 130l98 16c13.333 -46 19.666 -91.333 18.999 -136
c0.666992 -149.333 -56.666 -224.333 -171.999 -225c-54 -0.666992 -96.667 19 -128 59c-22.667 -86.667 -79 -130 -169 -130c-100 0 -151 62.333 -153 187c-0.666992 44 4 84.333 14 121l87 -14c-7.33301 -34.667 -11 -65.334 -11 -92.001c0.666992 -62 26 -93 76 -93
c60.667 -0.666992 92.667 41 96 125c1.33301 38 1.66602 82.333 0.999023 133h86z" />
    <glyph glyph-name="uni064B0651" unicode="&#x64d;&#x651;" 
d="M581 1880c1.33301 -30.667 2.00098 -61.333 2.00098 -92c0 -68 31.333 -102 94 -102c52 0.666992 78.333 38.334 79 113.001c0 28 -6.33301 71.333 -19 130l98 16c13.333 -46 19.666 -91.333 18.999 -136c0.666992 -149.333 -56.666 -224.333 -171.999 -225
c-54 -0.666992 -96.667 19 -128 59c-22.667 -86.667 -79 -130 -169 -130c-100 0 -151 62.333 -153 187c-0.666992 44 4 84.333 14 121l87 -14c-7.33301 -34.667 -11 -65.334 -11 -92.001c0.666992 -62 26 -93 76 -93c60.667 -0.666992 92.667 41 96 125
c1.33301 38 1.66602 82.333 0.999023 133h86zM319.001 839.001v115l506 207v-115zM319.001 1119v115l506 207v-115z" />
    <glyph glyph-name="uni0651064E" unicode="&#x64e;&#x651;" 
d="M361 1567v115l506 207v-115zM688 1462c1.33301 -30.667 2.00098 -61.333 2.00098 -92c0 -68 31.333 -102 94 -102c52 0.666992 78.333 38.334 79 113.001c0 28 -6.33301 71.333 -19 130l98 16c13.333 -46 19.666 -91.333 18.999 -136
c0.666992 -149.333 -56.666 -224.333 -171.999 -225c-54 -0.666992 -96.667 19 -128 59c-22.667 -86.667 -79 -130 -169 -130c-100 0 -151 62.333 -153 187c-0.666992 44 4 84.333 14 121l87 -14c-7.33301 -34.667 -11 -65.334 -11 -92.001c0.666992 -62 26 -93 76 -93
c60.667 -0.666992 92.667 41 96 125c1.33301 38 1.66602 82.333 0.999023 133h86z" />
    <glyph glyph-name="uni0651064F" unicode="&#x64f;&#x651;" 
d="M910 1625c-20.667 0 -42.6641 1.00098 -65.9971 3.00098c-44.667 4 -70 6.33301 -76 7h-2l-2 -2c-66.667 -94 -158.334 -159.333 -275.001 -196c-44.667 -14 -91 -22.333 -139 -25v87c114.667 5.33301 210.667 48.666 288 129.999l31 33
c-34 7.33301 -65.333 18.333 -94 33c-34 18 -59.333 39.667 -76 65c-19.333 29.333 -27.666 62.666 -24.999 99.999c3.33301 42.667 16.666 78.667 39.999 108c32.667 39.333 79.667 59.666 141 60.999c23.333 0.666992 46.666 -3.66602 69.999 -12.999
c47.333 -19.333 79.666 -52.333 96.999 -99c10 -26 14.333 -52.667 13 -80c0 -12 -1.33301 -25.333 -4 -40c-3.33301 -17.333 -7.33301 -33.666 -12 -48.999l-10 -32l33 -2c25.333 -1.33301 48 -2 68 -2v-87zM718.003 1731l6.99902 16.001
c15.333 35.333 23 68.666 23 99.999c0 30.667 -10 54 -30 70c-18 15.333 -40.333 23 -67 23c-30 0 -53 -10.667 -69 -32c-13.333 -18 -19.666 -39 -18.999 -63c0 -38 24.333 -66.667 73 -86c16.667 -6.66699 43 -15.667 79 -27zM672.002 1302
c1.33301 -30.667 2.00098 -61.333 2.00098 -92c0 -68 31.333 -102 94 -102c52 0.666992 78.333 38.334 79 113.001c0 28 -6.33301 71.333 -19 130l98 16c13.333 -46 19.666 -91.333 18.999 -136c0.666992 -149.333 -56.666 -224.333 -171.999 -225
c-54 -0.666992 -96.667 19 -128 59c-22.667 -86.667 -79 -130 -169 -130c-100 0 -151 62.333 -153 187c-0.666992 44 4 84.333 14 121l87 -14c-7.33301 -34.667 -11 -65.334 -11 -92.001c0.666992 -62 26 -93 76 -93c60.667 -0.666992 92.667 41 96 125
c1.33301 38 1.66602 82.333 0.999023 133h86z" />
    <glyph glyph-name="uni064E0651" unicode="&#x650;&#x651;" 
d="M673 1837c1.33301 -30.667 2.00098 -61.333 2.00098 -92c0 -68 31.333 -102 94 -102c52 0.666992 78.333 38.334 79 113.001c0 28 -6.33301 71.333 -19 130l98 16c13.333 -46 19.666 -91.333 18.999 -136c0.666992 -149.333 -56.666 -224.333 -171.999 -225
c-54 -0.666992 -96.667 19 -128 59c-22.667 -86.667 -79 -130 -169 -130c-100 0 -151 62.333 -153 187c-0.666992 44 4 84.333 14 121l87 -14c-7.33301 -34.667 -11 -65.334 -11 -92.001c0.666992 -62 26 -93 76 -93c60.667 -0.666992 92.667 41 96 125
c1.33301 38 1.66602 82.333 0.999023 133h86zM397.001 1109v115l506 207v-115z" />
    <glyph glyph-name="uni0654064E" unicode="&#x64e;&#x654;" 
d="M336 1730v115l506 207v-115zM424 1516c0 51.333 11.999 95.002 35.999 131.002c4.66699 7.33301 10 14.333 16 21s12.333 12.667 19 18c23.333 21.333 48.833 37.166 76.5 47.499s57.167 15.5 88.5 15.5h7c28.667 -0.666992 56 -4 82 -10c28 -6.66699 54.333 -17 79 -31
l3 -2l1 -131l-8 3c-28.667 13.333 -55.667 23.166 -81 29.499s-48.333 9.5 -69 9.5c-39.333 -0.666992 -71.666 -12.334 -96.999 -35.001c-2.66699 -2.66699 -5.16699 -5.33398 -7.5 -8.00098s-4.5 -5.5 -6.5 -8.5s-3.66699 -6 -5 -9s-2.66602 -6.16699 -3.99902 -9.5
s-2.33301 -6.83301 -3 -10.5s-1 -7.5 -1 -11.5c-2.66699 -29.333 5.33301 -54.5 24 -75.5s48.667 -37.833 90 -50.5c2 -0.666992 4.16699 -1.16699 6.5 -1.5s5 -0.666016 8 -0.999023s6.16699 -0.5 9.5 -0.5c5.33301 0 11.333 0.333008 18 1s14 1.33398 22 2.00098
c31.333 4 72.666 11.667 123.999 23l6 2v-136l-437 -98v133l97 22c-62.667 48.667 -94 105.667 -94 171z" />
    <glyph glyph-name="uni0654064F" unicode="&#x64f;&#x654;" 
d="M920 1721c-20.667 0 -42.6641 1 -65.9971 3c-44.667 4 -70 6.33301 -76 7h-2l-2 -2c-66.667 -94 -158.334 -159.333 -275.001 -196c-44.667 -14 -91 -22.333 -139 -25v87c114.667 5.33301 210.667 48.666 288 129.999l31 33c-34 7.33301 -65.333 18.333 -94 33
c-34 18 -59.333 39.667 -76 65c-19.333 29.333 -27.666 62.666 -24.999 99.999c3.33301 42.667 16.666 78.667 39.999 108c32.667 39.333 79.667 59.666 141 61c23.333 0.666992 46.666 -3.66602 69.999 -12.999c47.333 -19.333 79.666 -52.333 96.999 -99
c10 -26 14.333 -52.667 13 -80c0 -12 -1.33301 -25.333 -4 -40c-3.33301 -17.333 -7.33301 -33.666 -12 -48.999l-10 -32l33 -2c25.333 -1.33301 48 -2 68 -2v-87zM728.003 1827l6.99902 16.001c15.333 35.333 23 68.666 23 99.999c0 30.667 -10 54 -30 70
c-18 15.333 -40.333 23 -67 23c-30 0 -53 -10.667 -69 -32c-13.333 -18 -19.666 -39 -18.999 -63c0 -38 24.333 -66.667 73 -86c16.667 -6.66699 43 -15.667 79 -27zM417.002 1298c0 51.333 11.999 95.002 35.999 131.002c4.66699 7.33301 10 14.333 16 21
s12.333 12.667 19 18c23.333 21.333 48.833 37.166 76.5 47.499s57.167 15.5 88.5 15.5h7c28.667 -0.666992 56 -4 82 -10c28 -6.66699 54.333 -17 79 -31l3 -2l1 -131l-8 3c-28.667 13.333 -55.667 23.166 -81 29.499s-48.333 9.5 -69 9.5
c-39.333 -0.666992 -71.666 -12.334 -96.999 -35.001c-2.66699 -2.66699 -5.16699 -5.33398 -7.5 -8.00098s-4.5 -5.5 -6.5 -8.5s-3.66699 -6 -5 -9s-2.66602 -6.16699 -3.99902 -9.5s-2.33301 -6.83301 -3 -10.5s-1 -7.5 -1 -11.5c-2.66699 -29.333 5.33301 -54.5 24 -75.5
s48.667 -37.833 90 -50.5c2 -0.666992 4.16699 -1.16699 6.5 -1.5s5 -0.666016 8 -0.999023s6.16699 -0.5 9.5 -0.5c5.33301 0 11.333 0.333008 18 1s14 1.33398 22 2.00098c31.333 4 72.666 11.667 123.999 23l6 2v-136l-437 -98v133l97 22
c-62.667 48.667 -94 105.667 -94 171z" />
    <glyph glyph-name="uni066E.fina" unicode="&#x66e;" horiz-adv-x="1957" 
d="M1610 200c-110 -133.333 -344 -200.001 -702 -200.001h-2c-303.333 0 -508.333 38.667 -615 116c-120 87.333 -180 224 -180 410c0 89.333 13.333 172 40 248l154 -41c-15.333 -73.333 -23 -141.666 -23 -204.999c0 -122.667 41.333 -210.334 124 -263.001
s249.667 -79 501 -79c408.667 0.666992 629 96.334 661 287.001l22 131h132l25 -254c10.667 -109.333 79 -164 205 -164h12c14.667 0 22 -27 22 -81v-18c0 -58 -7.33301 -87 -22 -87h-12c-194.667 0 -308.667 66.667 -342 200z" />
    <glyph glyph-name="uni066F.fina" unicode="&#x66f;" horiz-adv-x="1525" 
d="M1554 87c0 -58 -7.33105 -87 -21.998 -87l-123 1c-40 -372.667 -265.5 -558.834 -676.5 -558.501s-616.833 189.5 -617.5 567.5c-0.666992 154 35 307 107 459l160 -64c-60.667 -152.667 -90.667 -282 -90 -388c1.33301 -261.333 151.666 -392.333 450.999 -393
c307.333 -1.33301 471.666 124.334 492.999 377.001h-149c-198.667 0.666992 -319 64.667 -361 192c-10.667 31.333 -16 67 -16 107c0 81.333 21.333 164.333 64 249c65.333 130 158 195 278 195c120.667 0 213 -58 277 -174c51.333 -93.333 82 -221.333 92 -384h111
c14.667 -0.666992 22 -27.667 22 -81v-18zM1243 188c-13.333 255.333 -81.667 378.666 -205 369.999c-50.667 -3.33301 -90.334 -38.666 -119.001 -105.999c-24.667 -56 -36 -106 -34 -150c4.66699 -74.667 75.334 -112 212.001 -112z" />
    <glyph glyph-name="uni06A1.init" unicode="&#x6a1;" horiz-adv-x="913" 
d="M790 584c26 -235.333 -18.334 -395.667 -133.001 -481c-92.667 -68.667 -244 -103 -454 -103h-210c-51.333 0 -77 29 -77 87v18c0 54 25.667 81 77 81h210c284.667 0 427.667 71.667 429 215l-68 -15c-66 -14 -126.667 -20.667 -182 -20
c-192.667 1.33301 -288.667 90.333 -288 267c0 50.667 9.33301 109.334 28 176.001c18.667 66 48.667 122.333 90 169c55.333 62.667 126.333 94 213 94c57.333 0 110.333 -16 159 -48c112.667 -72.667 181.334 -219.334 206.001 -440.001zM539.999 562.999l76 16.999
c-10 80.667 -26 145.334 -48 194.001c-34 74 -83 111 -147 111c-70.667 0 -120 -48.333 -148 -145c-8.66699 -31.333 -13 -58.666 -13 -81.999c0 -73.333 48.333 -110.333 145 -111c38 -0.666992 83 4.66602 135 15.999z" />
    <glyph glyph-name="uni06A1.medi" unicode="&#x6a1;" horiz-adv-x="1042" 
d="M411 661.5c-44 -43.667 -65.667 -90.167 -65 -139.5c0 -30.667 23 -72.667 69 -126s84.333 -80 115 -80c30 0 68.167 26.667 114.5 80s69.5 95.333 69.5 126c0 50 -20.333 95.333 -61 136c-46.667 46 -87.667 69 -123 69s-75 -21.833 -119 -65.5zM526 143
c-127.333 -95.333 -291.667 -143.001 -493 -143.001h-40c-51.333 0 -77 29 -77 87v18c0 54 25.667 81 77 81h39c112.667 0.666992 215.667 17.334 309 50.001c-112 86 -168.333 184.333 -169 295c-0.666992 142.667 66 253 200 331c53.333 31.333 106.333 47 159 47
c78 0 157 -35.333 237 -106c80 -70 120 -160.667 120 -272c0 -110.667 -56.667 -209 -170 -295c92.667 -33.333 193 -50 301 -50h31c14.667 0 22 -27 22 -81v-18c0 -58 -7.33301 -87 -22 -87h-29c-204 0 -369 47.667 -495 143z" />
    <glyph glyph-name="uni06A1.fina" unicode="&#x6a1;" horiz-adv-x="2038" 
d="M1522 146c-136 -97.333 -340.666 -146.001 -613.999 -146.001h-2c-303.333 0 -508.333 38.667 -615 116c-120 87.333 -180 224 -180 410c0 89.333 13.333 172 40 248l154 -41c-15.333 -73.333 -23 -141.666 -23 -204.999c0 -122.667 41 -210.167 123 -262.5
s249.333 -78.833 502 -79.5c181.333 -0.666992 325.333 16 432 50c-114 86 -171 184.5 -171 295.5s40 201.667 120 272s159.667 105.5 239 105.5s158.666 -35.5 237.999 -106.5s119 -161.667 119 -272s-56.667 -208.5 -170 -294.5c92.667 -33.333 193 -50 301 -50h31
c14.667 0 22 -27 22 -81v-18c0 -58 -7.33301 -87 -22 -87h-29c-203.333 0 -368.333 48.667 -495 146zM1525 726.999c-34.667 0 -75.334 -23.001 -122.001 -69.001c-40.667 -41.333 -61 -86.666 -61 -135.999c0.666992 -30.667 25.334 -74.334 74.001 -131.001
c43.333 -50 80 -75 110 -75s66.667 25 110 75c49.333 56.667 74 100.334 74 131.001c0 50 -20.333 95.333 -61 136c-46.667 46 -88 69 -124 69z" />
    <glyph glyph-name="uni06CA.fina" unicode="&#x6ca;" horiz-adv-x="906" 
d="M464 1071l139 139l140 -140l-139 -139zM141 1071l138 139l140 -140l-139 -139zM913 186c14.667 0 21.998 -30 21.998 -90v-9c0 -58 -7.33301 -87 -22 -87l-115 1c-33.333 -158.667 -102.166 -280.5 -206.499 -365.5s-264.5 -138.833 -480.5 -161.5l-32 179
c309.333 26.667 493 142.667 551 348l-150 1c-158 0 -266.333 40.333 -325 121c-30.667 42 -47 91.333 -49 148c-4 94.667 16.333 187.667 61 279c60.667 123.333 150.5 188 269.5 194s212.167 -48.333 279.5 -163c54.667 -93.333 87.334 -225 98.001 -395h99zM489.998 190
l147.001 -1c-14 254.667 -82.667 377.667 -206 369c-50.667 -3.33301 -89.334 -35.833 -116.001 -97.5s-38.667 -114.5 -36 -158.5c4 -74.667 74.333 -112 211 -112z" />
    <glyph glyph-name="uni06D5.fina" unicode="&#x6d5;" horiz-adv-x="1092" 
d="M107 441c0 233.333 182.002 380.667 546.002 442h2l-5 54l168 23l79 -583c17.333 -127.333 81.666 -191 192.999 -191h9c15.333 0 23 -25.333 23 -76v-23c0 -58 -7.33301 -87 -22 -87h-13c-174 -0 -285.333 83.333 -334 250l-1 3l-3 -2c-74.667 -66 -170 -99 -286 -99
c-120.667 -0.666992 -212.334 29.333 -275.001 90c-54 52 -81 118.333 -81 199zM677.002 709.001c-259.333 -42.667 -389.001 -125.333 -389.001 -248c-0.666992 -44.667 13.833 -78.167 43.5 -100.5s73.834 -33.5 132.501 -33.5c11.333 0 22.5 0.333008 33.5 1
s21.5 1.66699 31.5 3s19.667 3 29 5s18 4.16699 26 6.5s15.667 5.16602 23 8.49902s14 7 20 11c66 40.667 92.333 103.334 79 188.001l-27 159h-2z" />
    <glyph glyph-name="uniFB56" unicode="&#x67e;" horiz-adv-x="1819" arabic-form="isolated" 
d="M907 186c128.667 0 235.333 6.66699 320 20s147 33.666 187 60.999c81.333 54 121.666 141 120.999 261c-1.33301 64.667 -9.33301 133 -24 205l155 41c12.667 -38 22.334 -77.667 29.001 -119s10 -84.333 10 -129c0 -95.333 -15 -177 -45 -245s-75 -123 -135 -165
c-111.333 -77.333 -316.333 -116 -615 -116h-4c-303.333 0 -508.333 38.667 -615 116c-120 87.333 -180 224 -180 410c0 89.333 13.333 172 40 248l154 -41c-15.333 -73.333 -23 -141.666 -23 -204.999c0 -122.667 40 -209.667 120 -261c84 -53.333 252.333 -80.333 505 -81
zM761.393 -600.471l146.583 145.512l144.442 -145.512l-145.513 -145.514zM937.934 -299.816l145.513 145.513l144.443 -144.442l-145.514 -146.583zM591.271 -299.816l145.513 145.513l145.513 -144.442l-146.583 -146.583z" />
    <glyph glyph-name="uniFB57" unicode="&#x67e;" horiz-adv-x="1957" arabic-form="final" 
d="M754.394 -600.471l146.583 145.512l144.442 -145.512l-145.513 -145.514zM930.935 -299.816l145.513 145.513l144.443 -144.442l-145.514 -146.583zM584.272 -299.816l145.513 145.513l145.513 -144.442l-146.583 -146.583zM1610 200
c-110 -133.333 -344 -200.001 -702 -200.001h-2c-303.333 0 -508.333 38.667 -615 116c-120 87.333 -180 224 -180 410c0 89.333 13.333 172 40 248l154 -41c-15.333 -73.333 -23 -141.666 -23 -204.999c0 -122.667 41.333 -210.334 124 -263.001s249.667 -79 501 -79
c408.667 0.666992 629 96.334 661 287.001l22 131h132l25 -254c10.667 -109.333 79 -164 205 -164h12c14.667 0 22 -27 22 -81v-18c0 -58 -7.33301 -87 -22 -87h-12c-194.667 0 -308.667 66.667 -342 200z" />
    <glyph glyph-name="uniFB58" unicode="&#x67e;" horiz-adv-x="679" arabic-form="initial" 
d="M-7 0c-51.333 0 -77.001 29 -77.001 87v18c0 54 25.667 81 77 81h100c74.667 0 134.334 9.66699 179.001 29c16.667 8 31.334 17.667 44.001 29s23 24.833 31 40.5s13.667 33.167 17 52.5c17.333 104 5.66602 238.667 -35.001 404l175 31
c41.333 -142 55.333 -286.667 42 -434c-9.33301 -104 -43 -182.667 -101 -236c-74.667 -68 -192 -102 -352 -102h-100zM131.393 -600.471l146.583 145.512l144.442 -145.512l-145.513 -145.514zM307.934 -299.816l145.513 145.513l144.443 -144.442l-145.514 -146.583z
M-38.7285 -299.816l145.513 145.513l145.513 -144.442l-146.583 -146.583z" />
    <glyph glyph-name="uniFB59" unicode="&#x67e;" horiz-adv-x="733" arabic-form="medial" 
d="M131.394 -600.471l146.583 145.512l144.442 -145.512l-145.513 -145.514zM307.935 -299.816l145.513 145.513l144.443 -144.442l-145.514 -146.583zM-38.7275 -299.816l145.513 145.513l145.513 -144.442l-146.583 -146.583zM528 350
c11.333 -109.333 79.6689 -164.001 205.002 -164.001h7c7.33301 0 12.666 -7.33301 15.999 -22c4 -15.333 6 -37.666 6 -66.999v-10c0 -58 -7.33301 -87 -22 -87h-9c-144 -0 -242 50.333 -294 151l-2 3l-2 -3c-74.667 -100.667 -191.334 -151 -350.001 -151h-91
c-50.667 0 -76 29 -76 87v18c0 54 25.333 81 76 81h86c154 0 236.333 55 247 165l25 253h153z" />
    <glyph glyph-name="uniFB7A" unicode="&#x686;" horiz-adv-x="1361" arabic-form="isolated" 
d="M791 566l-22.4961 5.99707l-23.5 6c-158 38 -267 53.333 -327 46c-51.333 -6 -101.333 -40.333 -150 -103l-28 -36l-145 85l18 29c80.667 134 175 205.333 283 214c76.667 6 209.334 -19 398.001 -75c188 -56.667 340.667 -89 458 -97l-13 -176
c-108.667 -8.66699 -181.334 -16.334 -218.001 -23.001c-160.667 -31.333 -294.834 -73.666 -402.501 -126.999s-188.5 -117.833 -242.5 -193.5s-81 -162.167 -81 -259.5c-0.666992 -246 179 -369 539 -369c131.333 -0.666992 259.333 20 384 62l35 -176
c-26 -8.66699 -52.5 -16.667 -79.5 -24s-54.333 -13.666 -82 -18.999s-55.834 -9.66602 -84.501 -12.999s-57.834 -6 -87.501 -8s-59.834 -3 -90.501 -3c-471.333 -1.33301 -707 182.334 -707 551.001c0.666992 354 223.667 587 669 699l8 2zM681.397 -243.474
l146.583 145.512l144.442 -145.512l-145.513 -145.514zM857.938 57.1807l145.513 145.513l144.443 -144.442l-145.514 -146.583zM511.276 57.1807l145.513 145.513l145.513 -144.442l-146.583 -146.583z" />
    <glyph glyph-name="uniFB7B" unicode="&#x686;" horiz-adv-x="1381" arabic-form="final" 
d="M565.95 -287.732l130.093 129.145l128.194 -129.145l-129.144 -129.143zM722.632 -20.8984l129.144 129.144l128.193 -128.194l-129.143 -130.093zM414.966 -20.8984l129.144 129.144l129.144 -128.194l-130.093 -130.093zM1252 641l-13 -176.002
c-69.333 -6 -130.666 -12.667 -183.999 -20h-2v-5c0 -171.333 104 -256 312 -254h23c4.66699 0 8.5 -2.66699 11.5 -8s5.5 -13.666 7.5 -24.999s3 -25.666 3 -42.999v-23c0 -58 -7.33301 -87 -22 -87h-22c-154.667 -0 -270.834 33.833 -348.501 101.5
s-116.5 169.5 -116.5 305.5v8l-3 -1c-401.333 -102 -602.333 -286 -603 -552c-0.666992 -246 179 -369 539 -369c131.333 -0.666992 259.333 20 384 62l35 -176c-132 -44.667 -273.333 -67 -424 -67c-236.667 0.666992 -414 47 -532 139s-176.333 229.667 -175 413
c0.666992 88 15 168.5 43 241.5s69.833 138.5 125.5 196.5s125.167 108.667 208.5 152s180.666 79.333 291.999 108l7 2l-7 2l-22.5 6l-23.5 6c-158 38 -267 53.333 -327 46c-51.333 -6 -101.333 -40.333 -150 -103l-28 -36l-145 85l18 29c80.667 134 175 205.333 283 214
c76.667 6 209.334 -19 398.001 -75c188 -56.667 340.667 -89 458 -97z" />
    <glyph glyph-name="uniFB7C" unicode="&#x686;" horiz-adv-x="1354" arabic-form="initial" 
d="M-7 0c-51.333 0 -76.998 29 -76.998 87v18c0 54 25.667 81 77 81h59c236.667 0 448.667 54.333 636 163l292 169c-6.66699 0.666992 -102 27.334 -286 80.001c-126.667 36.667 -215.334 52.167 -266.001 46.5s-100.334 -40.167 -149.001 -103.5l-28 -36l-145 86l17 29
c81.333 133.333 176 204.666 284 213.999c76 6 208.333 -22.5 397 -85.5s341.334 -98.5 458.001 -106.5l-1 -154c-30 -4.66699 -159 -84 -387 -238c-248.667 -166.667 -520.334 -250 -815.001 -250h-66zM650.396 -600.471l146.583 145.512l144.442 -145.512
l-145.513 -145.514zM826.937 -299.816l145.513 145.513l144.443 -144.442l-145.514 -146.583zM480.274 -299.816l145.513 145.513l145.513 -144.442l-146.583 -146.583z" />
    <glyph glyph-name="uniFB7D" unicode="&#x686;" horiz-adv-x="1424" arabic-form="medial" 
d="M924 284l-49.999 -34c-253.333 -166.667 -525 -250 -815 -250h-66c-51.333 0 -77 29 -77 87v18c0 54 25.667 81 77 81h59c236.667 0 448.667 54.333 636 163l292 169c-6.66699 0.666992 -102 27.334 -286 80.001c-126.667 36.667 -215.334 52.167 -266.001 46.5
s-100.334 -40.167 -149.001 -103.5l-28 -36l-145 86l17 29c81.333 133.333 176 204.666 284 213.999c76 6 208.333 -22.5 397 -85.5s341.334 -98.5 458.001 -106.5l-1 -154c-21.333 -4 -91 -44 -209 -120c2 -121.333 112 -182 330 -182h13c14.667 0 22 -25.333 22 -76v-23
c0 -58 -7.33301 -87 -22 -87h-18c-280.667 0 -431.667 94.667 -453 284zM592.395 -600.471l146.583 145.512l144.442 -145.512l-145.513 -145.514zM768.936 -299.816l145.513 145.513l144.443 -144.442l-145.514 -146.583zM422.273 -299.816l145.513 145.513
l145.513 -144.442l-146.583 -146.583z" />
    <glyph glyph-name="uniFB8A" unicode="&#x698;" horiz-adv-x="878" arabic-form="isolated" 
d="M418 498l163.999 79.0029c88.667 -160 132.334 -312.667 131.001 -458c-0.666992 -66.667 -10.167 -130.334 -28.5 -191.001s-45.5 -118.334 -81.5 -173.001c-106.667 -160.667 -296 -254.334 -568 -281.001l-32 178c217.333 22 370.333 95.333 459 220
c48 68 71.667 145 71 231c0 64.667 -9.66699 130 -29 196s-48 132.333 -86 199zM327.393 1199.53l145.513 145.513l145.513 -146.582l-144.442 -144.443zM503.934 898.878l144.442 144.443l145.514 -145.513l-144.443 -145.513zM157.271 898.878l144.442 144.443
l146.583 -145.513l-145.513 -145.513z" />
    <glyph glyph-name="uniFB8B" unicode="&#x698;" horiz-adv-x="892" arabic-form="final" 
d="M327.394 1199.53l145.513 145.513l145.513 -146.582l-144.442 -144.443zM503.935 898.875l144.442 144.443l145.514 -145.513l-144.443 -145.513zM157.272 898.875l144.442 144.443l146.583 -145.513l-145.513 -145.513zM688 340
c45.333 -102.667 107.333 -153.999 186 -153.999h26c14.667 0 22 -25.333 22 -76v-23c0 -58 -7.33301 -87 -22 -87h-16c-84 0 -143 20.333 -177 61l-3 4v-5c-12.667 -116 -48 -217.667 -106 -305c-107.333 -160.667 -295 -254.334 -563 -281.001l-32 178
c216.667 21.333 369.667 94.666 459 219.999c48 68 71.667 145 71 231c0 130.667 -38.333 262.334 -115 395.001l164 79z" />
    <glyph glyph-name="uniFB8E" unicode="&#x6a9;" horiz-adv-x="1878" arabic-form="isolated" 
d="M1082 0l-175.999 0.000976562c-303.333 0 -508.333 38.667 -615 116c-120 87.333 -180 224 -180 410c0 89.333 13.333 172 40 248l154 -41c-16.667 -80 -24.334 -148.333 -23.001 -205c2.66699 -126.667 42.667 -213.667 120 -261
c88.667 -53.333 255.667 -80.333 501 -81h178c254.667 0 382 58.333 382 175c0.666992 49.333 -32 112.333 -98 189c-107.333 127.333 -199.333 228 -276 302c-62 61.333 -93 123.666 -93 186.999c0 86 45 146.667 135 182l684 271v-192l-658 -256l2 -2
c134.667 -139.333 251.667 -267 351 -383c88.667 -103.333 132.667 -202 132 -296c-1.33301 -242 -188 -363 -560 -363z" />
    <glyph glyph-name="uniFB8F" unicode="&#x6a9;" horiz-adv-x="1934" arabic-form="final" 
d="M1575 216c-47.333 -144 -213.666 -216 -498.999 -216h-170c-296.667 0 -503 40 -619 120c-116.667 80 -175.334 215.333 -176.001 406c0 89.333 13.333 172 40 248l154 -41c-15.333 -72 -23 -134.333 -23 -187c0 -130.667 40 -223.667 120 -279
c78.667 -54 248 -81 508 -81h165c141.333 0 235.333 14 282 42c68.667 42 89.667 97.667 63 167c-9.33301 24 -39 67.667 -89 131l-265 338c-47.333 61.333 -72 118.333 -74 171c-2.66699 89.333 42.333 152 135 188l684 269v-192l-660 -255l550 -702
c82 -104.667 153.667 -157 215 -157h25c15.333 0 23 -27 23 -81v-18c0 -58 -7.66699 -87 -23 -87h-15c-127.333 0 -244.333 72 -351 216z" />
    <glyph glyph-name="uniFB90" unicode="&#x6a9;" horiz-adv-x="964" arabic-form="initial" 
d="M167 186c254.667 0 381.999 58.332 381.999 174.999c0 49.333 -32.667 112.333 -98 189c-108 127.333 -196.667 224.833 -266 292.5s-104 133.167 -104 196.5c0 86 45 146.667 135 182l685 271v-192l-659 -256c128 -131.333 246 -259.666 354 -384.999
c88 -103.333 131.667 -202 131 -296c-1.33301 -242 -187.666 -363 -558.999 -363h-175c-51.333 0 -77 29 -77 87v18c0 54 25.667 81 77 81h174z" />
    <glyph glyph-name="uniFB91" unicode="&#x6a9;" horiz-adv-x="1026" arabic-form="medial" 
d="M793 343c82 -104.667 153.666 -156.999 214.999 -156.999h25c14.667 0 22 -27 22 -81v-18c0 -30.667 -2 -52.334 -6 -65.001c-4 -14.667 -9.33301 -22 -16 -22h-16c-126.667 0 -243 71 -349 213l-2 3l-1 -4c-46 -141.333 -211.667 -212 -497 -212h-175
c-51.333 0 -77 29 -77 87v18c0 54 25.667 81 77 81h174c232.667 0 350.667 49 354 147c2 42.667 -31 107 -99 193l-264 338c-48 61.333 -72.667 118.333 -74 171c-3.33301 89.333 41.334 152 134.001 188l684 269v-192l-659 -255z" />
    <glyph glyph-name="uniFB92" unicode="&#x6af;" horiz-adv-x="1878" arabic-form="isolated" 
d="M1082 0l-175.999 0.000976562c-303.333 0 -508.333 38.667 -615 116c-120 87.333 -180 224 -180 410c0 89.333 13.333 172 40 248l154 -41c-16.667 -80 -24.334 -148.333 -23.001 -205c2.66699 -126.667 42.667 -213.667 120 -261
c88.667 -53.333 255.667 -80.333 501 -81h178c254.667 0 382 58.333 382 175c0.666992 49.333 -32 112.333 -98 189c-107.333 127.333 -199.333 228 -276 302c-62 61.333 -93 123.666 -93 186.999c0 86 45 146.667 135 182l684 271v-192l-658 -256l2 -2
c134.667 -139.333 251.667 -267 351 -383c88.667 -103.333 132.667 -202 132 -296c-1.33301 -242 -188 -363 -560 -363zM1807.5 1641.55l-766.081 -312.424v111.274l766.081 312.424v-111.274z" />
    <glyph glyph-name="uniFB93" unicode="&#x6af;" horiz-adv-x="1934" arabic-form="final" 
d="M1575 216c-47.333 -144 -213.666 -216 -498.999 -216h-170c-296.667 0 -503 40 -619 120c-116.667 80 -175.334 215.333 -176.001 406c0 89.333 13.333 172 40 248l154 -41c-15.333 -72 -23 -134.333 -23 -187c0 -130.667 40 -223.667 120 -279
c78.667 -54 248 -81 508 -81h165c141.333 0 235.333 14 282 42c68.667 42 89.667 97.667 63 167c-9.33301 24 -39 67.667 -89 131l-265 338c-47.333 61.333 -72 118.333 -74 171c-2.66699 89.333 42.333 152 135 188l684 269v-192l-660 -255l550 -702
c82 -104.667 153.667 -157 215 -157h25c15.333 0 23 -27 23 -81v-18c0 -58 -7.66699 -87 -23 -87h-15c-127.333 0 -244.333 72 -351 216zM1800.5 1643.55l-766.081 -312.424v111.274l766.081 312.424v-111.274z" />
    <glyph glyph-name="uniFB94" unicode="&#x6af;" horiz-adv-x="964" arabic-form="initial" 
d="M167 186c254.667 0 381.999 58.332 381.999 174.999c0 49.333 -32.667 112.333 -98 189c-108 127.333 -196.667 224.833 -266 292.5s-104 133.167 -104 196.5c0 86 45 146.667 135 182l685 271v-192l-659 -256c128 -131.333 246 -259.666 354 -384.999
c88 -103.333 131.667 -202 131 -296c-1.33301 -242 -187.666 -363 -558.999 -363h-175c-51.333 0 -77 29 -77 87v18c0 54 25.667 81 77 81h174zM891.5 1643.55l-766.081 -312.424v111.274l766.081 312.424v-111.274z" />
    <glyph glyph-name="uniFB95" unicode="&#x6af;" horiz-adv-x="1026" arabic-form="medial" 
d="M793 343c82 -104.667 153.666 -156.999 214.999 -156.999h25c14.667 0 22 -27 22 -81v-18c0 -30.667 -2 -52.334 -6 -65.001c-4 -14.667 -9.33301 -22 -16 -22h-16c-126.667 0 -243 71 -349 213l-2 3l-1 -4c-46 -141.333 -211.667 -212 -497 -212h-175
c-51.333 0 -77 29 -77 87v18c0 54 25.667 81 77 81h174c232.667 0 350.667 49 354 147c2 42.667 -31 107 -99 193l-264 338c-48 61.333 -72.667 118.333 -74 171c-3.33301 89.333 41.334 152 134.001 188l684 269v-192l-659 -255zM890.5 1643.55l-766.081 -312.424v111.274
l766.081 312.424v-111.274z" />
    <glyph glyph-name="uniFB9E" unicode="&#x6ba;" horiz-adv-x="1485" arabic-form="isolated" 
d="M732 -271c301.333 -0.666992 451.334 145.999 450.001 439.999c0 58.667 -7.33301 123.334 -22 194.001c-14.667 70 -36.334 145.333 -65.001 226l171 60c64.667 -174 96.667 -345 96 -513c0 -106 -22 -204.667 -66 -296c-94 -194.667 -285 -292 -573 -292
c-262 1.33301 -439.333 81.333 -532 240c-50.667 87.333 -76 193 -76 317c-0.666992 141.333 35 298 107 470l160 -65c-60.667 -152 -90.667 -281 -90 -387c1.33301 -262 148 -393.333 440 -394z" />
    <glyph glyph-name="uniFB9F" unicode="&#x6ba;" horiz-adv-x="1562" arabic-form="final" 
d="M1547 0c-67.333 0 -128.999 26.333 -184.999 79v-4c0 -106.667 -22 -206.667 -66 -300c-94 -198.667 -285 -297.667 -573 -297c-262.667 0.666992 -440.334 82 -533.001 244c-50 87.333 -75 191.666 -75 312.999c-0.666992 140 35 296.333 107 469l160 -64
c-60.667 -152.667 -90.667 -282 -90 -388c1.33301 -264.667 150.333 -396 447 -394c294 2.66699 441.667 149.334 443 440.001c0.666992 115.333 -28.333 255.333 -87 420l171 60l70 -218c38 -116 110 -174 216 -174h18c14.667 0 22 -25.333 22 -76v-23
c0 -58 -7.33301 -87 -22 -87h-23z" />
    <glyph glyph-name="uniFBAC" unicode="&#x6be;" horiz-adv-x="1361" arabic-form="initial" 
d="M-7 0c-51.333 0 -77.001 29.001 -77.001 87.001v18c0 54 25.667 81 77 81h292l-5 4c-94 68.667 -140.667 155.667 -140 261c0.666992 77.333 29 148.333 85 213c24.667 28.667 50.834 52.334 78.501 71.001s57.167 32.667 88.5 42s64.333 14 99 14
c50 0 97.167 -9 141.5 -27s85.833 -45 124.5 -81c20.667 -20 38 -40.667 52 -62s24.5 -43.333 31.5 -66s10.833 -46.334 11.5 -71.001c0 -120.667 -50 -211.667 -150 -273l-15 -9l17 -3c70 -11.333 130.333 -17 181 -17c17.333 0 33.166 0.5 47.499 1.5s27 2.66699 38 5
s20.5 4.83301 28.5 7.5c48 19.333 74.667 68 80 146c3.33301 59.333 -28.334 126.333 -95.001 201c-156 175.333 -332.333 303 -529 383l88 161c380.667 -207.333 610.334 -408 689.001 -602c26 -64 32.333 -130 19 -198c-3.33301 -19.333 -7.66602 -37.5 -12.999 -54.5
s-11.333 -33.167 -18 -48.5s-14.334 -29.5 -23.001 -42.5s-18 -24.833 -28 -35.5c-62.667 -70 -163 -105 -301 -105c-106.667 -0.666992 -231.667 21.666 -375 66.999l-1 1l-1 -1c-153.333 -45.333 -286.666 -68 -399.999 -68h-98zM683.999 469.001
c-1.33301 43.333 -13.001 77.002 -35.001 101.002c-18 19.333 -39.5 34 -64.5 44s-52.833 15.667 -83.5 17c-64.667 1.33301 -116.667 -29.334 -156 -92.001c-5.33301 -8.66699 -10 -18 -14 -28s-6.83301 -20.667 -8.5 -32s-2.83398 -23 -3.50098 -35
c0 -14.667 2.5 -29 7.5 -43s12.333 -27.833 22 -41.5s21.834 -26.834 36.501 -39.501c20 -17.333 38.833 -31.5 56.5 -42.5s34.834 -18.5 51.501 -22.5v-1l1 1c54.667 24.667 96.667 50.667 126 78c42 38 63.333 83.333 64 136z" />
    <glyph glyph-name="uniFBAD" unicode="&#x6be;" horiz-adv-x="975" arabic-form="medial" 
d="M959 0c-213.333 0 -306.999 -143 -280.999 -429l-119 -115c-214.667 94 -343.334 275.333 -386.001 544h-180c-51.333 0 -77 29 -77 87v18c0 53.333 25.667 80.333 77 81h167c14.667 286.667 71.334 483.667 170.001 591c51.333 56 119.333 84 204 84
c83.333 0 148.333 -28 195 -84c46 -56 68.667 -136 68 -240c-2 -144 -44.667 -264 -128 -360c-97.333 -112.667 -209 -172 -335 -178c25.333 -154 88.666 -260.667 189.999 -320v10c0 331.333 145.667 497 437 497h21c14.667 0 22 -27 22 -81v-18
c0 -58 -7.33301 -87 -22 -87h-23zM325.001 185c85.333 2 160.333 37 225 105c57.333 60.667 86 141.667 86 243c0 92 -34.333 139.667 -103 143c-44 2.66699 -84.667 -22.333 -122 -75c-49.333 -68 -78 -206.667 -86 -416z" />
    <glyph glyph-name="uniFBE8" unicode="&#x649;" horiz-adv-x="656" arabic-form="initial" 
d="M-7 0c-51.333 0 -77.001 29 -77.001 87v18c0 54 25.667 81 77 81h100c74.667 0 134.334 9.66699 179.001 29c16.667 8 31.334 17.667 44.001 29s23 24.833 31 40.5s13.667 33.167 17 52.5c17.333 104 5.66602 238.667 -35.001 404l175 31
c41.333 -142 55.333 -286.667 42 -434c-9.33301 -104 -43 -182.667 -101 -236c-74.667 -68 -192 -102 -352 -102h-100z" />
    <glyph glyph-name="uniFBE9" unicode="&#x649;" horiz-adv-x="733" arabic-form="medial" 
d="M528 350c11.333 -109.333 79.6689 -164.001 205.002 -164.001h7c7.33301 0 12.666 -7.33301 15.999 -22c4 -15.333 6 -37.666 6 -66.999v-10c0 -58 -7.33301 -87 -22 -87h-9c-144 -0 -242 50.333 -294 151l-2 3l-2 -3c-74.667 -100.667 -191.334 -151 -350.001 -151h-91
c-50.667 0 -76 29 -76 87v18c0 54 25.333 81 76 81h86c154 0 236.333 55 247 165l25 253h153z" />
    <glyph glyph-name="uniFBFC" unicode="&#x6cc;" horiz-adv-x="1512" arabic-form="isolated" 
d="M725 -342c150.667 0 277.667 37.332 381 111.999c80.667 57.333 123.334 122.333 128.001 195c0.666992 16.667 -2.33301 28 -9 34c-12 10.667 -39.667 16 -83 16l-113 1c-163.333 0.666992 -226 85 -188 253c20 90.667 63.333 173.667 130 249
c114.667 130.667 255.667 197.667 423 201v-190c-211.333 -15.333 -340 -124.666 -386 -327.999l179 1c144.667 0 216.667 -71.333 216 -214c0 -84 -26 -165 -78 -243c-47.333 -72.667 -114.333 -132 -201 -178c-57.333 -30 -119.666 -52.333 -186.999 -67
c-66.667 -15.333 -138 -22.666 -214 -21.999c-262.667 0.666992 -440.334 82 -533.001 244c-50 87.333 -75 191.666 -75 312.999c-0.666992 140 35 296.333 107 469l160 -64c-60.667 -152.667 -90.667 -282 -90 -388c1.33301 -262 145.666 -393.333 432.999 -394z" />
    <glyph glyph-name="uniFBFD" unicode="&#x6cc;" horiz-adv-x="1521" arabic-form="final" 
d="M1527 186c14.667 0 22 -27.0029 22 -81.0029v-18c0 -58 -7.33301 -87 -22 -87h-151c32 -24.667 48.333 -60.667 49 -108c0 -99.333 -57 -189.666 -171 -270.999c-133.333 -94.667 -306.666 -142.334 -519.999 -143.001c-230 -1.33301 -396 53.334 -498 164.001
c-80.667 86.667 -121 204 -121 352c-0.666992 156 32 304 98 444l160 -64c-54.667 -138 -81.667 -259 -81 -363c1.33301 -236.667 151.666 -354 450.999 -352c188 0.666992 337.667 48.334 449 143.001c42 36 63.333 72.333 64 109c-0.666992 60 -41.667 90 -123 90h-168
c-38 4 -64 35 -78 93c-14 56.667 -13 87.334 3 92.001h637zM965 0.99707h1h-1z" />
    <glyph glyph-name="uniFBFE" unicode="&#x6cc;" horiz-adv-x="689" arabic-form="initial" 
d="M-7 0c-51.333 0 -77.001 29 -77.001 87v18c0 54 25.667 81 77 81h100c74.667 0 134.334 9.66699 179.001 29c16.667 8 31.334 17.667 44.001 29s23 24.833 31 40.5s13.667 33.167 17 52.5c17.333 104 5.66602 238.667 -35.001 404l175 31
c41.333 -142 55.333 -286.667 42 -434c-9.33301 -104 -43 -182.667 -101 -236c-74.667 -68 -192 -102 -352 -102h-100zM309.654 -325.796l148.722 148.723l149.793 -149.792l-148.723 -148.723zM-35.9385 -325.796l147.652 148.723l149.793 -149.792l-148.723 -148.723z" />
    <glyph glyph-name="uniFBFF" unicode="&#x6cc;" horiz-adv-x="733" arabic-form="medial" 
d="M309.655 -325.796l148.722 148.723l149.793 -149.792l-148.723 -148.723zM-35.9375 -325.796l147.652 148.723l149.793 -149.792l-148.723 -148.723zM528 350c11.333 -109.333 79.6689 -164.001 205.002 -164.001h7c7.33301 0 12.666 -7.33301 15.999 -22
c4 -15.333 6 -37.666 6 -66.999v-10c0 -58 -7.33301 -87 -22 -87h-9c-144 -0 -242 50.333 -294 151l-2 3l-2 -3c-74.667 -100.667 -191.334 -151 -350.001 -151h-91c-50.667 0 -76 29 -76 87v18c0 54 25.333 81 76 81h86c154 0 236.333 55 247 165l25 253h153z" />
    <glyph glyph-name="uniFDFC" unicode="&#xfdfc;" horiz-adv-x="3450" arabic-form="isolated" 
d="M719 -342c254.667 2.66699 382.335 149.333 383.002 440l3 1366h176l-1 -1176c0 -90 -3 -176 -9 -258c-28 -366.667 -217.333 -550.667 -568 -552c-248 -1.33301 -419 80 -513 244c-50 87.333 -75 191.666 -75 312.999c-0.666992 138 29.666 280.333 90.999 427l160 -64
c-50 -126 -74.667 -241.333 -74 -346c1.33301 -265.333 143.666 -396.666 426.999 -393.999zM2912 441.999l163.999 79.0029c88.667 -160 132.334 -312.667 131.001 -458c-0.666992 -66.667 -10.167 -130.334 -28.5 -191.001s-45.5 -118.334 -81.5 -173.001
c-106.667 -160.667 -296 -254.334 -568 -281.001l-32 178c217.333 22 370.333 95.333 459 220c48 68 71.667 145 71 231c0 64.667 -9.66699 130 -29 196s-48 132.333 -86 199zM2000 0.00195312c-51.333 0 -77 29 -77 87v18c0 54 25.667 81 77 81h100
c74.667 0 134.334 9.66699 179 29c16.667 8 31.334 17.667 44 29c12.667 11.333 23 24.833 31 40.5s13.667 33.167 17 52.5c17.333 104 5.66602 238.667 -35 404l175 31c41.333 -142 55.333 -286.667 42 -434c-9.33301 -104 -43 -182.667 -101 -236
c-74.667 -68 -192 -102 -352 -102h-100zM2137.65 -292.794l148.723 148.723l149.793 -149.792l-148.723 -148.723zM1792.06 -292.794l147.652 148.723l149.793 -149.792l-148.723 -148.723zM1996 0.00195312h-20c-258.667 0 -388 140.333 -388 421v1043h177v-1041
c0 -158 71.333 -237 214 -237h17c4.66699 0 8.5 -2.83301 11.5 -8.5s5.5 -14.5 7.5 -26.5c2 -8.66699 3 -24 3 -46v-18c0 -58 -7.33301 -87 -22 -87z" />
    <glyph glyph-name="uniFE71" unicode="&#xfe71;" horiz-adv-x="755" arabic-form="medial" 
d="M475 0c-51.333 0 -77 29 -77 87v18c0 54 25.667 81 77 81h288c14.667 0 22 -27 22 -81v-18c0 -58 -7.33301 -87 -22 -87h-288zM229 0c-51.333 0 -77 29 -77 87v18c0 54 25.667 81 77 81h288c14.667 0 22 -27 22 -81v-18c0 -58 -7.33301 -87 -22 -87h-288zM-7 0
c-51.333 0 -77 29 -77 87v18c0 54 25.667 81 77 81h288c14.667 0 22 -27 22 -81v-18c0 -58 -7.33301 -87 -22 -87h-288zM95 1196v115l506 207v-115zM95 1476v115l506 207v-115z" />
    <glyph glyph-name="uniFE77" unicode="&#xfe77;" horiz-adv-x="755" arabic-form="medial" 
d="M475 0c-51.333 0 -77 29 -77 87v18c0 54 25.667 81 77 81h288c14.667 0 22 -27 22 -81v-18c0 -58 -7.33301 -87 -22 -87h-288zM229 0c-51.333 0 -77 29 -77 87v18c0 54 25.667 81 77 81h288c14.667 0 22 -27 22 -81v-18c0 -58 -7.33301 -87 -22 -87h-288zM-7 0
c-51.333 0 -77 29 -77 87v18c0 54 25.667 81 77 81h288c14.667 0 22 -27 22 -81v-18c0 -58 -7.33301 -87 -22 -87h-288zM61 1499v115l506 207v-115z" />
    <glyph glyph-name="uniFE79" unicode="&#xfe79;" horiz-adv-x="755" arabic-form="medial" 
d="M475 0c-51.333 0 -77 29 -77 87v18c0 54 25.667 81 77 81h288c14.667 0 22 -27 22 -81v-18c0 -58 -7.33301 -87 -22 -87h-288zM229 0c-51.333 0 -77 29 -77 87v18c0 54 25.667 81 77 81h288c14.667 0 22 -27 22 -81v-18c0 -58 -7.33301 -87 -22 -87h-288zM-7 0
c-51.333 0 -77 29 -77 87v18c0 54 25.667 81 77 81h288c14.667 0 22 -27 22 -81v-18c0 -58 -7.33301 -87 -22 -87h-288zM646 1638c-20.667 0 -42.6641 1.00098 -65.9971 3.00098c-44.667 4 -70 6.33301 -76 7h-2l-2 -2c-66.667 -94 -158.334 -159.333 -275.001 -196
c-44.667 -14 -91 -22.333 -139 -25v87c114.667 5.33301 210.667 48.666 288 129.999l31 33c-34 7.33301 -65.333 18.333 -94 33c-34 18 -59.333 39.667 -76 65c-19.333 29.333 -27.666 62.666 -24.999 99.999c3.33301 42.667 16.666 78.667 39.999 108
c32.667 39.333 79.667 59.666 141 60.999c23.333 0.666992 46.666 -3.66602 69.999 -12.999c47.333 -19.333 79.666 -52.333 96.999 -99c10 -26 14.333 -52.667 13 -80c0 -12 -1.33301 -25.333 -4 -40c-3.33301 -17.333 -7.33301 -33.666 -12 -48.999l-10 -32l33 -2
c25.333 -1.33301 48 -2 68 -2v-87zM454.003 1744l6.99902 16.001c15.333 35.333 23 68.666 23 99.999c0 30.667 -10 54 -30 70c-18 15.333 -40.333 23 -67 23c-30 0 -53 -10.667 -69 -32c-13.333 -18 -19.666 -39 -18.999 -63c0 -38 24.333 -66.667 73 -86
c16.667 -6.66699 43 -15.667 79 -27z" />
    <glyph glyph-name="uniFE7B" unicode="&#xfe7b;" horiz-adv-x="755" arabic-form="medial" 
d="M475 0c-51.333 0 -77 29 -77 87v18c0 54 25.667 81 77 81h288c14.667 0 22 -27 22 -81v-18c0 -58 -7.33301 -87 -22 -87h-288zM229 0c-51.333 0 -77 29 -77 87v18c0 54 25.667 81 77 81h288c14.667 0 22 -27 22 -81v-18c0 -58 -7.33301 -87 -22 -87h-288zM-7 0
c-51.333 0 -77 29 -77 87v18c0 54 25.667 81 77 81h288c14.667 0 22 -27 22 -81v-18c0 -58 -7.33301 -87 -22 -87h-288zM113 -485v115l506 207v-115z" />
    <glyph glyph-name="uniFE7D" unicode="&#xfe7d;" horiz-adv-x="755" arabic-form="medial" 
d="M475 0c-51.333 0 -77 29 -77 87v18c0 54 25.667 81 77 81h288c14.667 0 22 -27 22 -81v-18c0 -58 -7.33301 -87 -22 -87h-288zM229 0c-51.333 0 -77 29 -77 87v18c0 54 25.667 81 77 81h288c14.667 0 22 -27 22 -81v-18c0 -58 -7.33301 -87 -22 -87h-288zM-7 0
c-51.333 0 -77 29 -77 87v18c0 54 25.667 81 77 81h288c14.667 0 22 -27 22 -81v-18c0 -58 -7.33301 -87 -22 -87h-288zM408 1965c1.33301 -30.667 2.00098 -61.333 2.00098 -92c0 -68 31.333 -102 94 -102c52 0.666992 78.333 38.334 79 113.001
c0 28 -6.33301 71.333 -19 130l98 16c13.333 -46 19.666 -91.333 18.999 -136c0.666992 -149.333 -56.666 -224.333 -171.999 -225c-54 -0.666992 -96.667 19 -128 59c-22.667 -86.667 -79 -130 -169 -130c-100 0 -151 62.333 -153 187c-0.666992 44 4 84.333 14 121l87 -14
c-7.33301 -34.667 -11 -65.334 -11 -92.001c0.666992 -62 26 -93 76 -93c60.667 -0.666992 92.667 41 96 125c1.33301 38 1.66602 82.333 0.999023 133h86z" />
    <glyph glyph-name="uniFE7F" unicode="&#xfe7f;" horiz-adv-x="755" arabic-form="medial" 
d="M475 0c-51.333 0 -77 29 -77 87v18c0 54 25.667 81 77 81h288c14.667 0 22 -27 22 -81v-18c0 -58 -7.33301 -87 -22 -87h-288zM229 0c-51.333 0 -77 29 -77 87v18c0 54 25.667 81 77 81h288c14.667 0 22 -27 22 -81v-18c0 -58 -7.33301 -87 -22 -87h-288zM-7 0
c-51.333 0 -77 29 -77 87v18c0 54 25.667 81 77 81h288c14.667 0 22 -27 22 -81v-18c0 -58 -7.33301 -87 -22 -87h-288zM174 1624c0 60.667 21 112 63 154s93.333 63 154 63s112 -21 154 -63s63 -93.333 63 -154s-21 -112 -63 -154s-93.333 -63 -154 -63s-112 21 -154 63
s-63 93.333 -63 154zM270 1623c0 -34.667 12 -64 36 -88s53.333 -36 88 -36s64 12 88 36s36 53.333 36 88s-12 64 -36 88s-53.333 36 -88 36s-64 -12 -88 -36s-36 -53.333 -36 -88z" />
    <glyph glyph-name="uniFE80" unicode="&#x621;" horiz-adv-x="914" arabic-form="isolated" 
d="M119 9v196.001c82 52 157 88.667 225 110c-142.667 74.667 -214.667 173 -216 295c-1.33301 80.667 25.334 152.667 80.001 216c63.333 73.333 152.666 110 267.999 110c100.667 0.666992 189.334 -32 266.001 -98l-56 -127c-64 35.333 -129 53 -195 53
c-72.667 -0.666992 -127.334 -22.334 -164.001 -65.001c-23.333 -26.667 -35.666 -55.334 -36.999 -86.001s5.66699 -58 21 -82c31.333 -47.333 95.666 -92 192.999 -134l271 55l28 -190c-192.667 -21.333 -420.667 -105.666 -684 -252.999z" />
    <glyph glyph-name="uniFE81" unicode="&#x622;" horiz-adv-x="652" arabic-form="isolated" 
d="M238 1316.38h177v-1315.49h-177v1315.49zM259 1525c-74 10 -141.667 -21.332 -203 -93.999l-101 106c78.667 113.333 174.667 161 288 143l149 -24c64.667 -10.667 137.667 4.66602 219 45.999l66 -137c-86 -53.333 -178.333 -73.333 -277 -60z" />
    <glyph glyph-name="uniFE82" unicode="&#x622;" horiz-adv-x="632" arabic-form="final" 
d="M259 1525c-74 10 -141.667 -21.332 -203 -93.999l-101 106c78.667 113.333 174.667 161 288 143l149 -24c64.667 -10.667 137.667 4.66602 219 45.999l66 -137c-86 -53.333 -178.333 -73.333 -277 -60zM598 0.000976562h-20c-272 0 -408 140.333 -408 421v895h177v-893
c0 -158 78 -237 234 -237h17c4.66699 0 8.5 -2.83301 11.5 -8.5s5.5 -14.5 7.5 -26.5c2 -8 3 -23.333 3 -46v-18c0 -58 -7.33301 -87 -22 -87z" />
    <glyph glyph-name="uniFE83" unicode="&#x623;" horiz-adv-x="494" arabic-form="isolated" 
d="M168 1316.38h177v-1315.49h-177v1315.49zM17 1734c0 51.333 11.999 95.002 35.999 131.002c4.66699 7.33301 10 14.333 16 21s12.333 12.667 19 18c23.333 21.333 48.833 37.166 76.5 47.499s57.167 15.5 88.5 15.5h7c28.667 -0.666992 56 -4 82 -10
c28 -6.66699 54.333 -17 79 -31l3 -2l1 -131l-8 3c-28.667 13.333 -55.667 23.166 -81 29.499s-48.333 9.5 -69 9.5c-39.333 -0.666992 -71.666 -12.334 -96.999 -35.001c-2.66699 -2.66699 -5.16699 -5.33398 -7.5 -8.00098s-4.5 -5.5 -6.5 -8.5s-3.66699 -6 -5 -9
s-2.66602 -6.16699 -3.99902 -9.5s-2.33301 -6.83301 -3 -10.5s-1 -7.5 -1 -11.5c-2.66699 -29.333 5.33301 -54.5 24 -75.5s48.667 -37.833 90 -50.5c2 -0.666992 4.16699 -1.16699 6.5 -1.5s5 -0.666016 8 -0.999023s6.16699 -0.5 9.5 -0.5
c5.33301 0 11.333 0.333008 18 1s14 1.33398 22 2.00098c31.333 4 72.666 11.667 123.999 23l6 2v-136l-437 -98v133l97 22c-62.667 48.667 -94 105.667 -94 171z" />
    <glyph glyph-name="uniFE84" unicode="&#x623;" horiz-adv-x="632" arabic-form="final" 
d="M17 1734c0 51.333 11.999 95.002 35.999 131.002c4.66699 7.33301 10 14.333 16 21s12.333 12.667 19 18c23.333 21.333 48.833 37.166 76.5 47.499s57.167 15.5 88.5 15.5h7c28.667 -0.666992 56 -4 82 -10c28 -6.66699 54.333 -17 79 -31l3 -2l1 -131l-8 3
c-28.667 13.333 -55.667 23.166 -81 29.499s-48.333 9.5 -69 9.5c-39.333 -0.666992 -71.666 -12.334 -96.999 -35.001c-2.66699 -2.66699 -5.16699 -5.33398 -7.5 -8.00098s-4.5 -5.5 -6.5 -8.5s-3.66699 -6 -5 -9s-2.66602 -6.16699 -3.99902 -9.5
s-2.33301 -6.83301 -3 -10.5s-1 -7.5 -1 -11.5c-2.66699 -29.333 5.33301 -54.5 24 -75.5s48.667 -37.833 90 -50.5c2 -0.666992 4.16699 -1.16699 6.5 -1.5s5 -0.666016 8 -0.999023s6.16699 -0.5 9.5 -0.5c5.33301 0 11.333 0.333008 18 1s14 1.33398 22 2.00098
c31.333 4 72.666 11.667 123.999 23l6 2v-136l-437 -98v133l97 22c-62.667 48.667 -94 105.667 -94 171zM597.999 0.00195312h-20c-272 0 -408 140.333 -408 421v895h177v-893c0 -158 78 -237 234 -237h17c4.66699 0 8.5 -2.83301 11.5 -8.5s5.5 -14.5 7.5 -26.5
c2 -8 3 -23.333 3 -46v-18c0 -58 -7.33301 -87 -22 -87z" />
    <glyph glyph-name="uniFE85" unicode="&#x624;" horiz-adv-x="908" arabic-form="isolated" 
d="M206 1216c0 51.333 11.999 95.002 35.999 131.002c4.66699 7.33301 10 14.333 16 21s12.333 12.667 19 18c23.333 21.333 48.833 37.166 76.5 47.499s57.167 15.5 88.5 15.5h7c28.667 -0.666992 56 -4 82 -10c28 -6.66699 54.333 -17 79 -31l3 -2l1 -131l-8 3
c-28.667 13.333 -55.667 23.166 -81 29.499s-48.333 9.5 -69 9.5c-39.333 -0.666992 -71.666 -12.334 -96.999 -35.001c-2.66699 -2.66699 -5.16699 -5.33398 -7.5 -8.00098s-4.5 -5.5 -6.5 -8.5s-3.66699 -6 -5 -9s-2.66602 -6.16699 -3.99902 -9.5
s-2.33301 -6.83301 -3 -10.5s-1 -7.5 -1 -11.5c-2.66699 -29.333 5.33301 -54.5 24 -75.5s48.667 -37.833 90 -50.5c2 -0.666992 4.16699 -1.16699 6.5 -1.5s5 -0.666016 8 -0.999023s6.16699 -0.5 9.5 -0.5c5.33301 0 11.333 0.333008 18 1s14 1.33398 22 2.00098
c31.333 4 72.666 11.667 123.999 23l6 2v-136l-437 -98v133l97 22c-62.667 48.667 -94 105.667 -94 171zM489.999 178.002c46.667 1.33301 92.334 8.33203 137.001 20.999h2l-1 2c-11.333 120.667 -34.666 211.334 -69.999 272.001c-34 59.333 -79 88 -135 86
c-56.667 -0.666992 -99.334 -42.667 -128.001 -126c-15.333 -46 -23 -86.667 -23 -122c0 -39.333 11.333 -69 34 -89c37.333 -32 98.666 -46.667 183.999 -44zM801.999 127.001c-0.666992 -210 -72 -373.334 -214 -490.001c-103.333 -86 -262 -140.333 -476 -163l-32 177
c315.333 28 498.666 148.333 549.999 361l-39 -5c-331.333 -41.333 -495 58.334 -491 299.001c1.33301 74.667 17 146.667 47 216c64.667 144.667 155.334 219 272.001 223c148 4.66699 254.667 -78.333 320 -249c42 -110 63 -233 63 -369z" />
    <glyph glyph-name="uniFE86" unicode="&#x624;" horiz-adv-x="906" arabic-form="final" 
d="M913 186c14.667 0 21.998 -30 21.998 -90v-9c0 -58 -7.33301 -87 -22 -87l-115 1c-33.333 -158.667 -102.166 -280.5 -206.499 -365.5s-264.5 -138.833 -480.5 -161.5l-32 179c309.333 26.667 493 142.667 551 348l-150 1c-158 0 -266.333 40.333 -325 121
c-30.667 42 -47 91.333 -49 148c-4 94.667 16.333 187.667 61 279c60.667 123.333 150.5 188 269.5 194s212.167 -48.333 279.5 -163c54.667 -93.333 87.334 -225 98.001 -395h99zM489.998 190l147.001 -1c-14 254.667 -82.667 377.667 -206 369
c-50.667 -3.33301 -89.334 -35.833 -116.001 -97.5s-38.667 -114.5 -36 -158.5c4 -74.667 74.333 -112 211 -112zM205.999 1216c0 51.333 11.999 95.002 35.999 131.002c4.66699 7.33301 10 14.333 16 21s12.333 12.667 19 18c23.333 21.333 48.833 37.166 76.5 47.499
s57.167 15.5 88.5 15.5h7c28.667 -0.666992 56 -4 82 -10c28 -6.66699 54.333 -17 79 -31l3 -2l1 -131l-8 3c-28.667 13.333 -55.667 23.166 -81 29.499s-48.333 9.5 -69 9.5c-39.333 -0.666992 -71.666 -12.334 -96.999 -35.001
c-2.66699 -2.66699 -5.16699 -5.33398 -7.5 -8.00098s-4.5 -5.5 -6.5 -8.5s-3.66699 -6 -5 -9s-2.66602 -6.16699 -3.99902 -9.5s-2.33301 -6.83301 -3 -10.5s-1 -7.5 -1 -11.5c-2.66699 -29.333 5.33301 -54.5 24 -75.5s48.667 -37.833 90 -50.5
c2 -0.666992 4.16699 -1.16699 6.5 -1.5s5 -0.666016 8 -0.999023s6.16699 -0.5 9.5 -0.5c5.33301 0 11.333 0.333008 18 1s14 1.33398 22 2.00098c31.333 4 72.666 11.667 123.999 23l6 2v-136l-437 -98v133l97 22c-62.667 48.667 -94 105.667 -94 171z" />
    <glyph glyph-name="uniFE87" unicode="&#x625;" horiz-adv-x="494" arabic-form="isolated" 
d="M12 -339c0 51.333 11.999 95.002 35.999 131.002c4.66699 7.33301 10 14.333 16 21s12.333 12.667 19 18c23.333 21.333 48.833 37.166 76.5 47.499s57.167 15.5 88.5 15.5h7c28.667 -0.666992 56 -4 82 -10c28 -6.66699 54.333 -17 79 -31l3 -2l1 -131l-8 3
c-28.667 13.333 -55.667 23.166 -81 29.499s-48.333 9.5 -69 9.5c-39.333 -0.666992 -71.666 -12.334 -96.999 -35.001c-2.66699 -2.66699 -5.16699 -5.33398 -7.5 -8.00098s-4.5 -5.5 -6.5 -8.5s-3.66699 -6 -5 -9s-2.66602 -6.16699 -3.99902 -9.5
s-2.33301 -6.83301 -3 -10.5s-1 -7.5 -1 -11.5c-2.66699 -29.333 5.33301 -54.5 24 -75.5s48.667 -37.833 90 -50.5c2 -0.666992 4.16699 -1.16699 6.5 -1.5s5 -0.666016 8 -0.999023s6.16699 -0.5 9.5 -0.5c5.33301 0 11.333 0.333008 18 1s14 1.33398 22 2.00098
c31.333 4 72.666 11.667 123.999 23l6 2v-136l-437 -98v133l97 22c-62.667 48.667 -94 105.667 -94 171zM163.999 1464h177v-1463h-177v1463z" />
    <glyph glyph-name="uniFE88" unicode="&#x625;" horiz-adv-x="565" arabic-form="final" 
d="M572 0h-20c-258.667 -0 -388 140.333 -388 421v1043h177v-1041c0 -158 71.333 -237 214 -237h17c4.66699 0 8.5 -2.83301 11.5 -8.5s5.5 -14.5 7.5 -26.5c2 -8.66699 3 -24 3 -46v-18c0 -58 -7.33301 -87 -22 -87zM97 -343c0 51.333 11.999 95.002 35.999 131.002
c4.66699 7.33301 10 14.333 16 21s12.333 12.667 19 18c23.333 21.333 48.833 37.166 76.5 47.499s57.167 15.5 88.5 15.5h7c28.667 -0.666992 56 -4 82 -10c28 -6.66699 54.333 -17 79 -31l3 -2l1 -131l-8 3c-28.667 13.333 -55.667 23.166 -81 29.499s-48.333 9.5 -69 9.5
c-39.333 -0.666992 -71.666 -12.334 -96.999 -35.001c-2.66699 -2.66699 -5.16699 -5.33398 -7.5 -8.00098s-4.5 -5.5 -6.5 -8.5s-3.66699 -6 -5 -9s-2.66602 -6.16699 -3.99902 -9.5s-2.33301 -6.83301 -3 -10.5s-1 -7.5 -1 -11.5c-2.66699 -29.333 5.33301 -54.5 24 -75.5
s48.667 -37.833 90 -50.5c2 -0.666992 4.16699 -1.16699 6.5 -1.5s5 -0.666016 8 -0.999023s6.16699 -0.5 9.5 -0.5c5.33301 0 11.333 0.333008 18 1s14 1.33398 22 2.00098c31.333 4 72.666 11.667 123.999 23l6 2v-136l-437 -98v133l97 22
c-62.667 48.667 -94 105.667 -94 171z" />
    <glyph glyph-name="uniFE89" unicode="&#x626;" horiz-adv-x="1512" arabic-form="isolated" 
d="M322 1024c0 51.333 11.999 95.002 35.999 131.002c4.66699 7.33301 10 14.333 16 21s12.333 12.667 19 18c23.333 21.333 48.833 37.166 76.5 47.499s57.167 15.5 88.5 15.5h7c28.667 -0.666992 56 -4 82 -10c28 -6.66699 54.333 -17 79 -31l3 -2l1 -131l-8 3
c-28.667 13.333 -55.667 23.166 -81 29.499s-48.333 9.5 -69 9.5c-39.333 -0.666992 -71.666 -12.334 -96.999 -35.001c-2.66699 -2.66699 -5.16699 -5.33398 -7.5 -8.00098s-4.5 -5.5 -6.5 -8.5s-3.66699 -6 -5 -9s-2.66602 -6.16699 -3.99902 -9.5
s-2.33301 -6.83301 -3 -10.5s-1 -7.5 -1 -11.5c-2.66699 -29.333 5.33301 -54.5 24 -75.5s48.667 -37.833 90 -50.5c2 -0.666992 4.16699 -1.16699 6.5 -1.5s5 -0.666016 8 -0.999023s6.16699 -0.5 9.5 -0.5c5.33301 0 11.333 0.333008 18 1s14 1.33398 22 2.00098
c31.333 4 72.666 11.667 123.999 23l6 2v-136l-437 -98v133l97 22c-62.667 48.667 -94 105.667 -94 171zM724.999 -341.998c150.667 0 277.667 37.332 381 111.999c80.667 57.333 123.334 122.333 128.001 195c0.666992 16.667 -2.33301 28 -9 34
c-12 10.667 -39.667 16 -83 16l-113 1c-163.333 0.666992 -226 85 -188 253c20 90.667 63.333 173.667 130 249c114.667 130.667 255.667 197.667 423 201v-190c-211.333 -15.333 -340 -124.666 -386 -327.999l179 1c144.667 0 216.667 -71.333 216 -214
c0 -84 -26 -165 -78 -243c-47.333 -72.667 -114.333 -132 -201 -178c-57.333 -30 -119.666 -52.333 -186.999 -67c-66.667 -15.333 -138 -22.666 -214 -21.999c-262.667 0.666992 -440.334 82 -533.001 244c-50 87.333 -75 191.666 -75 312.999
c-0.666992 140 35 296.333 107 469l160 -64c-60.667 -152.667 -90.667 -282 -90 -388c1.33301 -262 145.666 -393.333 432.999 -394z" />
    <glyph glyph-name="uniFE8A" unicode="&#x626;" horiz-adv-x="1521" arabic-form="final" 
d="M1527 186c14.667 0 22 -27.0029 22 -81.0029v-18c0 -58 -7.33301 -87 -22 -87h-151c32 -24.667 48.333 -60.667 49 -108c0 -99.333 -57 -189.666 -171 -270.999c-133.333 -94.667 -306.666 -142.334 -519.999 -143.001c-230 -1.33301 -396 53.334 -498 164.001
c-80.667 86.667 -121 204 -121 352c-0.666992 156 32 304 98 444l160 -64c-54.667 -138 -81.667 -259 -81 -363c1.33301 -236.667 151.666 -354 450.999 -352c188 0.666992 337.667 48.334 449 143.001c42 36 63.333 72.333 64 109c-0.666992 60 -41.667 90 -123 90h-168
c-38 4 -64 35 -78 93c-14 56.667 -13 87.334 3 92.001h637zM965 0.99707h1h-1zM486 887.997c0 51.333 11.999 95.002 35.999 131.002c4.66699 7.33301 10 14.333 16 21s12.333 12.667 19 18c23.333 21.333 48.833 37.166 76.5 47.499s57.167 15.5 88.5 15.5h7
c28.667 -0.666992 56 -4 82 -10c28 -6.66699 54.333 -17 79 -31l3 -2l1 -131l-8 3c-28.667 13.333 -55.667 23.166 -81 29.499s-48.333 9.5 -69 9.5c-39.333 -0.666992 -71.666 -12.334 -96.999 -35.001c-2.66699 -2.66699 -5.16699 -5.33398 -7.5 -8.00098
s-4.5 -5.5 -6.5 -8.5s-3.66699 -6 -5 -9s-2.66602 -6.16699 -3.99902 -9.5s-2.33301 -6.83301 -3 -10.5s-1 -7.5 -1 -11.5c-2.66699 -29.333 5.33301 -54.5 24 -75.5s48.667 -37.833 90 -50.5c2 -0.666992 4.16699 -1.16699 6.5 -1.5s5 -0.666016 8 -0.999023
s6.16699 -0.5 9.5 -0.5c5.33301 0 11.333 0.333008 18 1s14 1.33398 22 2.00098c31.333 4 72.666 11.667 123.999 23l6 2v-136l-437 -98v133l97 22c-62.667 48.667 -94 105.667 -94 171z" />
    <glyph glyph-name="uniFE8B" unicode="&#x626;" horiz-adv-x="656" arabic-form="initial" 
d="M-7 0c-51.333 0 -77.001 29 -77.001 87v18c0 54 25.667 81 77 81h100c74.667 0 134.334 9.66699 179.001 29c16.667 8 31.334 17.667 44.001 29s23 24.833 31 40.5s13.667 33.167 17 52.5c17.333 104 5.66602 238.667 -35.001 404l175 31
c41.333 -142 55.333 -286.667 42 -434c-9.33301 -104 -43 -182.667 -101 -236c-74.667 -68 -192 -102 -352 -102h-100zM82.999 1199c0 51.333 11.999 95.002 35.999 131.002c4.66699 7.33301 10 14.333 16 21s12.333 12.667 19 18c23.333 21.333 48.833 37.166 76.5 47.499
s57.167 15.5 88.5 15.5h7c28.667 -0.666992 56 -4 82 -10c28 -6.66699 54.333 -17 79 -31l3 -2l1 -131l-8 3c-28.667 13.333 -55.667 23.166 -81 29.499s-48.333 9.5 -69 9.5c-39.333 -0.666992 -71.666 -12.334 -96.999 -35.001
c-2.66699 -2.66699 -5.16699 -5.33398 -7.5 -8.00098s-4.5 -5.5 -6.5 -8.5s-3.66699 -6 -5 -9s-2.66602 -6.16699 -3.99902 -9.5s-2.33301 -6.83301 -3 -10.5s-1 -7.5 -1 -11.5c-2.66699 -29.333 5.33301 -54.5 24 -75.5s48.667 -37.833 90 -50.5
c2 -0.666992 4.16699 -1.16699 6.5 -1.5s5 -0.666016 8 -0.999023s6.16699 -0.5 9.5 -0.5c5.33301 0 11.333 0.333008 18 1s14 1.33398 22 2.00098c31.333 4 72.666 11.667 123.999 23l6 2v-136l-437 -98v133l97 22c-62.667 48.667 -94 105.667 -94 171z" />
    <glyph glyph-name="uniFE8C" unicode="&#x626;" horiz-adv-x="733" arabic-form="medial" 
d="M528 350c11.333 -109.333 79.6689 -164.001 205.002 -164.001h7c7.33301 0 12.666 -7.33301 15.999 -22c4 -15.333 6 -37.666 6 -66.999v-10c0 -58 -7.33301 -87 -22 -87h-9c-144 -0 -242 50.333 -294 151l-2 3l-2 -3c-74.667 -100.667 -191.334 -151 -350.001 -151h-91
c-50.667 0 -76 29 -76 87v18c0 54 25.333 81 76 81h86c154 0 236.333 55 247 165l25 253h153zM81.0029 1097c0 51.333 11.999 95.002 35.999 131.002c4.66699 7.33301 10 14.333 16 21s12.333 12.667 19 18c23.333 21.333 48.833 37.166 76.5 47.499s57.167 15.5 88.5 15.5
h7c28.667 -0.666992 56 -4 82 -10c28 -6.66699 54.333 -17 79 -31l3 -2l1 -131l-8 3c-28.667 13.333 -55.667 23.166 -81 29.499s-48.333 9.5 -69 9.5c-39.333 -0.666992 -71.666 -12.334 -96.999 -35.001c-2.66699 -2.66699 -5.16699 -5.33398 -7.5 -8.00098
s-4.5 -5.5 -6.5 -8.5s-3.66699 -6 -5 -9s-2.66602 -6.16699 -3.99902 -9.5s-2.33301 -6.83301 -3 -10.5s-1 -7.5 -1 -11.5c-2.66699 -29.333 5.33301 -54.5 24 -75.5s48.667 -37.833 90 -50.5c2 -0.666992 4.16699 -1.16699 6.5 -1.5s5 -0.666016 8 -0.999023
s6.16699 -0.5 9.5 -0.5c5.33301 0 11.333 0.333008 18 1s14 1.33398 22 2.00098c31.333 4 72.666 11.667 123.999 23l6 2v-136l-437 -98v133l97 22c-62.667 48.667 -94 105.667 -94 171z" />
    <glyph glyph-name="uniFE8D" unicode="&#x627;" horiz-adv-x="494" arabic-form="isolated" 
d="M164 1464h177v-1463h-177v1463z" />
    <glyph glyph-name="uniFE8E" unicode="&#x627;" horiz-adv-x="565" arabic-form="final" 
d="M572 0h-20c-258.667 -0 -388 140.333 -388 421v1043h177v-1041c0 -158 71.333 -237 214 -237h17c4.66699 0 8.5 -2.83301 11.5 -8.5s5.5 -14.5 7.5 -26.5c2 -8.66699 3 -24 3 -46v-18c0 -58 -7.33301 -87 -22 -87z" />
    <glyph glyph-name="uniFE8F" unicode="&#x628;" horiz-adv-x="1819" arabic-form="isolated" 
d="M907 186c128.667 0 235.333 6.66699 320 20s147 33.666 187 60.999c81.333 54 121.666 141 120.999 261c-1.33301 64.667 -9.33301 133 -24 205l155 41c12.667 -38 22.334 -77.667 29.001 -119s10 -84.333 10 -129c0 -95.333 -15 -177 -45 -245s-75 -123 -135 -165
c-111.333 -77.333 -316.333 -116 -615 -116h-4c-303.333 0 -508.333 38.667 -615 116c-120 87.333 -180 224 -180 410c0 89.333 13.333 172 40 248l154 -41c-15.333 -73.333 -23 -141.666 -23 -204.999c0 -122.667 40 -209.667 120 -261c84 -53.333 252.333 -80.333 505 -81
zM755.712 -325.796l153.002 154.072l155.143 -155.142l-154.072 -153.003z" />
    <glyph glyph-name="uniFE90" unicode="&#x628;" horiz-adv-x="1957" arabic-form="final" 
d="M1610 200c-110 -133.333 -344 -200.001 -702 -200.001h-2c-303.333 0 -508.333 38.667 -615 116c-120 87.333 -180 224 -180 410c0 89.333 13.333 172 40 248l154 -41c-15.333 -73.333 -23 -141.666 -23 -204.999c0 -122.667 41.333 -210.334 124 -263.001
s249.667 -79 501 -79c408.667 0.666992 629 96.334 661 287.001l22 131h132l25 -254c10.667 -109.333 79 -164 205 -164h12c14.667 0 22 -27 22 -81v-18c0 -58 -7.33301 -87 -22 -87h-12c-194.667 0 -308.667 66.667 -342 200zM765.713 -325.797l153.002 154.072
l155.143 -155.142l-154.072 -153.003z" />
    <glyph glyph-name="uniFE91" unicode="&#x628;" horiz-adv-x="656" arabic-form="initial" 
d="M-7 0c-51.333 0 -77.001 29 -77.001 87v18c0 54 25.667 81 77 81h100c74.667 0 134.334 9.66699 179.001 29c16.667 8 31.334 17.667 44.001 29s23 24.833 31 40.5s13.667 33.167 17 52.5c17.333 104 5.66602 238.667 -35.001 404l175 31
c41.333 -142 55.333 -286.667 42 -434c-9.33301 -104 -43 -182.667 -101 -236c-74.667 -68 -192 -102 -352 -102h-100zM107.712 -325.796l153.002 154.072l155.143 -155.142l-154.072 -153.003z" />
    <glyph glyph-name="uniFE92" unicode="&#x628;" horiz-adv-x="733" arabic-form="medial" 
d="M528 350c11.333 -109.333 79.6689 -164.001 205.002 -164.001h7c7.33301 0 12.666 -7.33301 15.999 -22c4 -15.333 6 -37.666 6 -66.999v-10c0 -58 -7.33301 -87 -22 -87h-9c-144 -0 -242 50.333 -294 151l-2 3l-2 -3c-74.667 -100.667 -191.334 -151 -350.001 -151h-91
c-50.667 0 -76 29 -76 87v18c0 54 25.333 81 76 81h86c154 0 236.333 55 247 165l25 253h153zM144.716 -325.797l153.002 154.072l155.143 -155.142l-154.072 -153.003z" />
    <glyph glyph-name="uniFE93" unicode="&#x629;" horiz-adv-x="971" arabic-form="isolated" 
d="M472 651c-131.333 -115.333 -196.669 -217 -196.002 -305c0.666992 -106.667 69.667 -160 207 -160c142 0 214 53.333 216 160c0.666992 42 -17.666 88.333 -54.999 139s-93.666 106 -168.999 166l-1 1zM387.997 971c78.667 -56.667 147.668 -112.501 207.001 -167.501
s109 -108.5 149 -160.5c39.333 -52 69.333 -103 90 -153c20.667 -49.333 31.667 -97.666 33 -144.999c3.33301 -124.667 -49.334 -220.334 -158.001 -287.001c-58.667 -36 -133.334 -54 -224.001 -54c-81.333 0 -150.666 14.333 -207.999 43
c-113.333 56 -170 151.667 -170 287c0.666992 144.667 81.667 295.334 243 452.001l1 2l-62 52zM510.653 1254.2l148.722 148.723l149.793 -149.792l-148.723 -148.723zM165.061 1254.2l147.652 148.723l149.793 -149.792l-148.723 -148.723z" />
    <glyph glyph-name="uniFE94" unicode="&#x629;" horiz-adv-x="1092" arabic-form="final" 
d="M107 441c0 233.333 182.002 380.667 546.002 442h2l-5 54l168 23l79 -583c17.333 -127.333 81.666 -191 192.999 -191h9c15.333 0 23 -25.333 23 -76v-23c0 -58 -7.33301 -87 -22 -87h-13c-174 -0 -285.333 83.333 -334 250l-1 3l-3 -2c-74.667 -66 -170 -99 -286 -99
c-120.667 -0.666992 -212.334 29.333 -275.001 90c-54 52 -81 118.333 -81 199zM677.002 709.001c-259.333 -42.667 -389.001 -125.333 -389.001 -248c-0.666992 -44.667 13.833 -78.167 43.5 -100.5s73.834 -33.5 132.501 -33.5c11.333 0 22.5 0.333008 33.5 1
s21.5 1.66699 31.5 3s19.667 3 29 5s18 4.16699 26 6.5s15.667 5.16602 23 8.49902s14 7 20 11c66 40.667 92.333 103.334 79 188.001l-27 159h-2zM632.656 1290.21l148.722 148.723l149.793 -149.792l-148.723 -148.723zM287.063 1290.21l147.652 148.723l149.793 -149.792
l-148.723 -148.723z" />
    <glyph glyph-name="uniFE95" unicode="&#x62a;" horiz-adv-x="1819" arabic-form="isolated" 
d="M907 186c128.667 0 235.333 6.66699 320 20s147 33.666 187 60.999c81.333 54 121.666 141 120.999 261c-1.33301 64.667 -9.33301 133 -24 205l155 41c12.667 -38 22.334 -77.667 29.001 -119s10 -84.333 10 -129c0 -95.333 -15 -177 -45 -245s-75 -123 -135 -165
c-111.333 -77.333 -316.333 -116 -615 -116h-4c-303.333 0 -508.333 38.667 -615 116c-120 87.333 -180 224 -180 410c0 89.333 13.333 172 40 248l154 -41c-15.333 -73.333 -23 -141.666 -23 -204.999c0 -122.667 40 -209.667 120 -261c84 -53.333 252.333 -80.333 505 -81
zM933.654 971.204l148.722 148.723l149.793 -149.792l-148.723 -148.723zM588.062 971.204l147.652 148.723l149.793 -149.792l-148.723 -148.723z" />
    <glyph glyph-name="uniFE96" unicode="&#x62a;" horiz-adv-x="1957" arabic-form="final" 
d="M1610 200c-110 -133.333 -344 -200.001 -702 -200.001h-2c-303.333 0 -508.333 38.667 -615 116c-120 87.333 -180 224 -180 410c0 89.333 13.333 172 40 248l154 -41c-15.333 -73.333 -23 -141.666 -23 -204.999c0 -122.667 41.333 -210.334 124 -263.001
s249.667 -79 501 -79c408.667 0.666992 629 96.334 661 287.001l22 131h132l25 -254c10.667 -109.333 79 -164 205 -164h12c14.667 0 22 -27 22 -81v-18c0 -58 -7.33301 -87 -22 -87h-12c-194.667 0 -308.667 66.667 -342 200zM955.655 971.203l148.722 148.723
l149.793 -149.792l-148.723 -148.723zM610.062 971.203l147.652 148.723l149.793 -149.792l-148.723 -148.723z" />
    <glyph glyph-name="uniFE97" unicode="&#x62a;" horiz-adv-x="677" arabic-form="initial" 
d="M-7 0c-51.333 0 -77.001 29 -77.001 87v18c0 54 25.667 81 77 81h100c74.667 0 134.334 9.66699 179.001 29c16.667 8 31.334 17.667 44.001 29s23 24.833 31 40.5s13.667 33.167 17 52.5c17.333 104 5.66602 238.667 -35.001 404l175 31
c41.333 -142 55.333 -286.667 42 -434c-9.33301 -104 -43 -182.667 -101 -236c-74.667 -68 -192 -102 -352 -102h-100zM325.654 1119.2l148.722 148.723l149.793 -149.792l-148.723 -148.723zM-19.9385 1119.2l147.652 148.723l149.793 -149.792l-148.723 -148.723z" />
    <glyph glyph-name="uniFE98" unicode="&#x62a;" horiz-adv-x="733" arabic-form="medial" 
d="M528 350c11.333 -109.333 79.6689 -164.001 205.002 -164.001h7c7.33301 0 12.666 -7.33301 15.999 -22c4 -15.333 6 -37.666 6 -66.999v-10c0 -58 -7.33301 -87 -22 -87h-9c-144 -0 -242 50.333 -294 151l-2 3l-2 -3c-74.667 -100.667 -191.334 -151 -350.001 -151h-91
c-50.667 0 -76 29 -76 87v18c0 54 25.333 81 76 81h86c154 0 236.333 55 247 165l25 253h153zM322.658 1000.2l148.722 148.723l149.793 -149.792l-148.723 -148.723zM-22.9346 1000.2l147.652 148.723l149.793 -149.792l-148.723 -148.723z" />
    <glyph glyph-name="uniFE99" unicode="&#x62b;" horiz-adv-x="1819" arabic-form="isolated" 
d="M907 186c128.667 0 235.333 6.66699 320 20s147 33.666 187 60.999c81.333 54 121.666 141 120.999 261c-1.33301 64.667 -9.33301 133 -24 205l155 41c12.667 -38 22.334 -77.667 29.001 -119s10 -84.333 10 -129c0 -95.333 -15 -177 -45 -245s-75 -123 -135 -165
c-111.333 -77.333 -316.333 -116 -615 -116h-4c-303.333 0 -508.333 38.667 -615 116c-120 87.333 -180 224 -180 410c0 89.333 13.333 172 40 248l154 -41c-15.333 -73.333 -23 -141.666 -23 -204.999c0 -122.667 40 -209.667 120 -261c84 -53.333 252.333 -80.333 505 -81
zM761.393 1221.53l145.513 145.513l145.513 -146.582l-144.442 -144.443zM937.934 920.875l144.442 144.443l145.514 -145.513l-144.443 -145.513zM591.271 920.875l144.442 144.443l146.583 -145.513l-145.513 -145.513z" />
    <glyph glyph-name="uniFE9A" unicode="&#x62b;" horiz-adv-x="1957" arabic-form="final" 
d="M1610 200c-110 -133.333 -344 -200.001 -702 -200.001h-2c-303.333 0 -508.333 38.667 -615 116c-120 87.333 -180 224 -180 410c0 89.333 13.333 172 40 248l154 -41c-15.333 -73.333 -23 -141.666 -23 -204.999c0 -122.667 41.333 -210.334 124 -263.001
s249.667 -79 501 -79c408.667 0.666992 629 96.334 661 287.001l22 131h132l25 -254c10.667 -109.333 79 -164 205 -164h12c14.667 0 22 -27 22 -81v-18c0 -58 -7.33301 -87 -22 -87h-12c-194.667 0 -308.667 66.667 -342 200zM799.394 1199.53l145.513 145.513
l145.513 -146.582l-144.442 -144.443zM975.935 898.874l144.442 144.443l145.514 -145.513l-144.443 -145.513zM629.272 898.874l144.442 144.443l146.583 -145.513l-145.513 -145.513z" />
    <glyph glyph-name="uniFE9B" unicode="&#x62b;" horiz-adv-x="676" arabic-form="initial" 
d="M-7 0c-51.333 0 -77.001 29 -77.001 87v18c0 54 25.667 81 77 81h100c74.667 0 134.334 9.66699 179.001 29c16.667 8 31.334 17.667 44.001 29s23 24.833 31 40.5s13.667 33.167 17 52.5c17.333 104 5.66602 238.667 -35.001 404l175 31
c41.333 -142 55.333 -286.667 42 -434c-9.33301 -104 -43 -182.667 -101 -236c-74.667 -68 -192 -102 -352 -102h-100zM136.393 1406.53l145.513 145.513l145.513 -146.582l-144.442 -144.443zM312.934 1105.88l144.442 144.443l145.514 -145.513l-144.443 -145.513z
M-33.7285 1105.88l144.442 144.443l146.583 -145.513l-145.513 -145.513z" />
    <glyph glyph-name="uniFE9C" unicode="&#x62b;" horiz-adv-x="733" arabic-form="medial" 
d="M528 350c11.333 -109.333 79.6689 -164.001 205.002 -164.001h7c7.33301 0 12.666 -7.33301 15.999 -22c4 -15.333 6 -37.666 6 -66.999v-10c0 -58 -7.33301 -87 -22 -87h-9c-144 -0 -242 50.333 -294 151l-2 3l-2 -3c-74.667 -100.667 -191.334 -151 -350.001 -151h-91
c-50.667 0 -76 29 -76 87v18c0 54 25.333 81 76 81h86c154 0 236.333 55 247 165l25 253h153zM140.396 1273.53l145.513 145.513l145.513 -146.582l-144.442 -144.443zM316.938 972.874l144.442 144.443l145.514 -145.513l-144.443 -145.513zM-29.7246 972.874
l144.442 144.443l146.583 -145.513l-145.513 -145.513z" />
    <glyph glyph-name="uniFE9D" unicode="&#x62c;" horiz-adv-x="1361" arabic-form="isolated" 
d="M791 566l-22.4961 5.99707l-23.5 6c-158 38 -267 53.333 -327 46c-51.333 -6 -101.333 -40.333 -150 -103l-28 -36l-145 85l18 29c80.667 134 175 205.333 283 214c76.667 6 209.334 -19 398.001 -75c188 -56.667 340.667 -89 458 -97l-13 -176
c-108.667 -8.66699 -181.334 -16.334 -218.001 -23.001c-160.667 -31.333 -294.834 -73.666 -402.501 -126.999s-188.5 -117.833 -242.5 -193.5s-81 -162.167 -81 -259.5c-0.666992 -246 179 -369 539 -369c131.333 -0.666992 259.333 20 384 62l35 -176
c-26 -8.66699 -52.5 -16.667 -79.5 -24s-54.333 -13.666 -82 -18.999s-55.834 -9.66602 -84.501 -12.999s-57.834 -6 -87.501 -8s-59.834 -3 -90.501 -3c-471.333 -1.33301 -707 182.334 -707 551.001c0.666992 354 223.667 587 669 699l8 2zM667.717 -56.7988
l153.002 154.072l155.143 -155.142l-154.072 -153.003z" />
    <glyph glyph-name="uniFE9E" unicode="&#x62c;" horiz-adv-x="1381" arabic-form="final" 
d="M1252 641l-13 -176.002c-69.333 -6 -130.666 -12.667 -183.999 -20h-2v-5c0 -171.333 104 -256 312 -254h23c4.66699 0 8.5 -2.66699 11.5 -8s5.5 -13.666 7.5 -24.999s3 -25.666 3 -42.999v-23c0 -58 -7.33301 -87 -22 -87h-22
c-154.667 -0 -270.834 33.833 -348.501 101.5s-116.5 169.5 -116.5 305.5v8l-3 -1c-401.333 -102 -602.333 -286 -603 -552c-0.666992 -246 179 -369 539 -369c131.333 -0.666992 259.333 20 384 62l35 -176c-132 -44.667 -273.333 -67 -424 -67
c-236.667 0.666992 -414 47 -532 139s-176.333 229.667 -175 413c0.666992 88 15 168.5 43 241.5s69.833 138.5 125.5 196.5s125.167 108.667 208.5 152s180.666 79.333 291.999 108l7 2l-7 2l-22.5 6l-23.5 6c-158 38 -267 53.333 -327 46
c-51.333 -6 -101.333 -40.333 -150 -103l-28 -36l-145 85l18 29c80.667 134 175 205.333 283 214c76.667 6 209.334 -19 398.001 -75c188 -56.667 340.667 -89 458 -97zM568.713 -94.7979l153.002 154.072l155.143 -155.142l-154.072 -153.003z" />
    <glyph glyph-name="uniFE9F" unicode="&#x62c;" horiz-adv-x="1354" arabic-form="initial" 
d="M584.713 -325.796l153.002 154.072l155.143 -155.142l-154.072 -153.003zM-7 0c-51.333 0 -76.998 29 -76.998 87v18c0 54 25.667 81 77 81h59c236.667 0 448.667 54.333 636 163l292 169c-6.66699 0.666992 -102 27.334 -286 80.001
c-126.667 36.667 -215.334 52.167 -266.001 46.5s-100.334 -40.167 -149.001 -103.5l-28 -36l-145 86l17 29c81.333 133.333 176 204.666 284 213.999c76 6 208.333 -22.5 397 -85.5s341.334 -98.5 458.001 -106.5l-1 -154c-30 -4.66699 -159 -84 -387 -238
c-248.667 -166.667 -520.334 -250 -815.001 -250h-66z" />
    <glyph glyph-name="uniFEA0" unicode="&#x62c;" horiz-adv-x="1387" arabic-form="medial" 
d="M572.713 -325.796l153.002 154.072l155.143 -155.142l-154.072 -153.003zM924 284l-49.999 -34c-253.333 -166.667 -525 -250 -815 -250h-66c-51.333 0 -77 29 -77 87v18c0 54 25.667 81 77 81h59c236.667 0 448.667 54.333 636 163l292 169
c-6.66699 0.666992 -102 27.334 -286 80.001c-126.667 36.667 -215.334 52.167 -266.001 46.5s-100.334 -40.167 -149.001 -103.5l-28 -36l-145 86l17 29c81.333 133.333 176 204.666 284 213.999c76 6 208.333 -22.5 397 -85.5s341.334 -98.5 458.001 -106.5l-1 -154
c-21.333 -4 -91 -44 -209 -120c2 -121.333 112 -182 330 -182h13c14.667 0 22 -25.333 22 -76v-23c0 -58 -7.33301 -87 -22 -87h-18c-280.667 0 -431.667 94.667 -453 284z" />
    <glyph glyph-name="uniFEA1" unicode="&#x62d;" horiz-adv-x="1361" arabic-form="isolated" 
d="M791 566l-22.4961 5.99707l-23.5 6c-158 38 -267 53.333 -327 46c-51.333 -6 -101.333 -40.333 -150 -103l-28 -36l-145 85l18 29c80.667 134 175 205.333 283 214c76.667 6 209.334 -19 398.001 -75c188 -56.667 340.667 -89 458 -97l-13 -176
c-108.667 -8.66699 -181.334 -16.334 -218.001 -23.001c-160.667 -31.333 -294.834 -73.666 -402.501 -126.999s-188.5 -117.833 -242.5 -193.5s-81 -162.167 -81 -259.5c-0.666992 -246 179 -369 539 -369c131.333 -0.666992 259.333 20 384 62l35 -176
c-26 -8.66699 -52.5 -16.667 -79.5 -24s-54.333 -13.666 -82 -18.999s-55.834 -9.66602 -84.501 -12.999s-57.834 -6 -87.501 -8s-59.834 -3 -90.501 -3c-471.333 -1.33301 -707 182.334 -707 551.001c0.666992 354 223.667 587 669 699l8 2z" />
    <glyph glyph-name="uniFEA2" unicode="&#x62d;" horiz-adv-x="1381" arabic-form="final" 
d="M1252 641l-13 -176.002c-69.333 -6 -130.666 -12.667 -183.999 -20h-2v-5c0 -171.333 104 -256 312 -254h23c4.66699 0 8.5 -2.66699 11.5 -8s5.5 -13.666 7.5 -24.999s3 -25.666 3 -42.999v-23c0 -58 -7.33301 -87 -22 -87h-22
c-154.667 -0 -270.834 33.833 -348.501 101.5s-116.5 169.5 -116.5 305.5v8l-3 -1c-401.333 -102 -602.333 -286 -603 -552c-0.666992 -246 179 -369 539 -369c131.333 -0.666992 259.333 20 384 62l35 -176c-132 -44.667 -273.333 -67 -424 -67
c-236.667 0.666992 -414 47 -532 139s-176.333 229.667 -175 413c0.666992 88 15 168.5 43 241.5s69.833 138.5 125.5 196.5s125.167 108.667 208.5 152s180.666 79.333 291.999 108l7 2l-7 2l-22.5 6l-23.5 6c-158 38 -267 53.333 -327 46
c-51.333 -6 -101.333 -40.333 -150 -103l-28 -36l-145 85l18 29c80.667 134 175 205.333 283 214c76.667 6 209.334 -19 398.001 -75c188 -56.667 340.667 -89 458 -97z" />
    <glyph glyph-name="uniFEA3" unicode="&#x62d;" horiz-adv-x="1354" arabic-form="initial" 
d="M-7 0c-51.333 0 -76.998 29 -76.998 87v18c0 54 25.667 81 77 81h59c236.667 0 448.667 54.333 636 163l292 169c-6.66699 0.666992 -102 27.334 -286 80.001c-126.667 36.667 -215.334 52.167 -266.001 46.5s-100.334 -40.167 -149.001 -103.5l-28 -36l-145 86l17 29
c81.333 133.333 176 204.666 284 213.999c76 6 208.333 -22.5 397 -85.5s341.334 -98.5 458.001 -106.5l-1 -154c-30 -4.66699 -159 -84 -387 -238c-248.667 -166.667 -520.334 -250 -815.001 -250h-66z" />
    <glyph glyph-name="uniFEA4" unicode="&#x62d;" horiz-adv-x="1387" arabic-form="medial" 
d="M924 284l-49.999 -34c-253.333 -166.667 -525 -250 -815 -250h-66c-51.333 0 -77 29 -77 87v18c0 54 25.667 81 77 81h59c236.667 0 448.667 54.333 636 163l292 169c-6.66699 0.666992 -102 27.334 -286 80.001c-126.667 36.667 -215.334 52.167 -266.001 46.5
s-100.334 -40.167 -149.001 -103.5l-28 -36l-145 86l17 29c81.333 133.333 176 204.666 284 213.999c76 6 208.333 -22.5 397 -85.5s341.334 -98.5 458.001 -106.5l-1 -154c-21.333 -4 -91 -44 -209 -120c2 -121.333 112 -182 330 -182h13c14.667 0 22 -25.333 22 -76v-23
c0 -58 -7.33301 -87 -22 -87h-18c-280.667 0 -431.667 94.667 -453 284z" />
    <glyph glyph-name="uniFEA5" unicode="&#x62e;" horiz-adv-x="1361" arabic-form="isolated" 
d="M433.713 1196.2l153.002 154.072l155.143 -155.142l-154.072 -153.003zM791 566l-22.4961 5.99707l-23.5 6c-158 38 -267 53.333 -327 46c-51.333 -6 -101.333 -40.333 -150 -103l-28 -36l-145 85l18 29c80.667 134 175 205.333 283 214
c76.667 6 209.334 -19 398.001 -75c188 -56.667 340.667 -89 458 -97l-13 -176c-108.667 -8.66699 -181.334 -16.334 -218.001 -23.001c-160.667 -31.333 -294.834 -73.666 -402.501 -126.999s-188.5 -117.833 -242.5 -193.5s-81 -162.167 -81 -259.5
c-0.666992 -246 179 -369 539 -369c131.333 -0.666992 259.333 20 384 62l35 -176c-26 -8.66699 -52.5 -16.667 -79.5 -24s-54.333 -13.666 -82 -18.999s-55.834 -9.66602 -84.501 -12.999s-57.834 -6 -87.501 -8s-59.834 -3 -90.501 -3
c-471.333 -1.33301 -707 182.334 -707 551.001c0.666992 354 223.667 587 669 699l8 2z" />
    <glyph glyph-name="uniFEA6" unicode="&#x62e;" horiz-adv-x="1381" arabic-form="final" 
d="M433.713 1196.2l153.002 154.072l155.143 -155.142l-154.072 -153.003zM1252 641l-13 -176.002c-69.333 -6 -130.666 -12.667 -183.999 -20h-2v-5c0 -171.333 104 -256 312 -254h23c4.66699 0 8.5 -2.66699 11.5 -8s5.5 -13.666 7.5 -24.999s3 -25.666 3 -42.999v-23
c0 -58 -7.33301 -87 -22 -87h-22c-154.667 -0 -270.834 33.833 -348.501 101.5s-116.5 169.5 -116.5 305.5v8l-3 -1c-401.333 -102 -602.333 -286 -603 -552c-0.666992 -246 179 -369 539 -369c131.333 -0.666992 259.333 20 384 62l35 -176
c-132 -44.667 -273.333 -67 -424 -67c-236.667 0.666992 -414 47 -532 139s-176.333 229.667 -175 413c0.666992 88 15 168.5 43 241.5s69.833 138.5 125.5 196.5s125.167 108.667 208.5 152s180.666 79.333 291.999 108l7 2l-7 2l-22.5 6l-23.5 6
c-158 38 -267 53.333 -327 46c-51.333 -6 -101.333 -40.333 -150 -103l-28 -36l-145 85l18 29c80.667 134 175 205.333 283 214c76.667 6 209.334 -19 398.001 -75c188 -56.667 340.667 -89 458 -97z" />
    <glyph glyph-name="uniFEA7" unicode="&#x62e;" horiz-adv-x="1354" arabic-form="initial" 
d="M463.713 1212.2l153.002 154.072l155.143 -155.142l-154.072 -153.003zM-7 0c-51.333 0 -76.998 29 -76.998 87v18c0 54 25.667 81 77 81h59c236.667 0 448.667 54.333 636 163l292 169c-6.66699 0.666992 -102 27.334 -286 80.001
c-126.667 36.667 -215.334 52.167 -266.001 46.5s-100.334 -40.167 -149.001 -103.5l-28 -36l-145 86l17 29c81.333 133.333 176 204.666 284 213.999c76 6 208.333 -22.5 397 -85.5s341.334 -98.5 458.001 -106.5l-1 -154c-30 -4.66699 -159 -84 -387 -238
c-248.667 -166.667 -520.334 -250 -815.001 -250h-66z" />
    <glyph glyph-name="uniFEA8" unicode="&#x62e;" horiz-adv-x="1387" arabic-form="medial" 
d="M463.713 1212.2l153.002 154.072l155.143 -155.142l-154.072 -153.003zM924 284l-49.999 -34c-253.333 -166.667 -525 -250 -815 -250h-66c-51.333 0 -77 29 -77 87v18c0 54 25.667 81 77 81h59c236.667 0 448.667 54.333 636 163l292 169
c-6.66699 0.666992 -102 27.334 -286 80.001c-126.667 36.667 -215.334 52.167 -266.001 46.5s-100.334 -40.167 -149.001 -103.5l-28 -36l-145 86l17 29c81.333 133.333 176 204.666 284 213.999c76 6 208.333 -22.5 397 -85.5s341.334 -98.5 458.001 -106.5l-1 -154
c-21.333 -4 -91 -44 -209 -120c2 -121.333 112 -182 330 -182h13c14.667 0 22 -25.333 22 -76v-23c0 -58 -7.33301 -87 -22 -87h-18c-280.667 0 -431.667 94.667 -453 284z" />
    <glyph glyph-name="uniFEA9" unicode="&#x62f;" horiz-adv-x="1003" arabic-form="isolated" 
d="M103 212c78.667 -16.667 162.997 -25 252.997 -25c240 0 359.667 61.333 359 184c0 27.333 -5.16699 55 -15.5 83s-25.833 56.333 -46.5 85s-46.667 58 -78 88c-34 32 -73.167 66 -117.5 102s-94.166 74 -149.499 114l109 160c318 -216.667 478.333 -425.667 481 -627
c0 -37.333 -4.66699 -72.5 -14 -105.5s-23.666 -64.167 -42.999 -93.5c-79.333 -116.667 -236 -175 -470 -175c-109.333 0 -198.666 7.66699 -267.999 23v187z" />
    <glyph glyph-name="uniFEAA" unicode="&#x62f;" horiz-adv-x="1118" arabic-form="final" 
d="M1116 0c-119.333 0 -213.333 54.002 -282 162.002l-1 3l-2 -3c-88 -106.667 -236.333 -160.334 -445 -161.001c-88 -0.666992 -182 8.66602 -282 27.999v187c90 -19.333 187.333 -29 292 -29c89.333 0 167.333 15.333 234 46s86.667 85.667 60 165
c-18 54 -43.333 115.333 -76 184l-162 346l170 84l231 -525c88 -200.667 172.333 -301 253 -301h19c14.667 0 22 -27 22 -81v-18c0 -58 -7.33301 -87 -22 -87h-9z" />
    <glyph glyph-name="uniFEAB" unicode="&#x630;" horiz-adv-x="1003" arabic-form="isolated" 
d="M103 212c78.667 -16.667 162.997 -25 252.997 -25c240 0 359.667 61.333 359 184c0 27.333 -5.16699 55 -15.5 83s-25.833 56.333 -46.5 85s-46.667 58 -78 88c-34 32 -73.167 66 -117.5 102s-94.166 74 -149.499 114l109 160c318 -216.667 478.333 -425.667 481 -627
c0 -37.333 -4.66699 -72.5 -14 -105.5s-23.666 -64.167 -42.999 -93.5c-79.333 -116.667 -236 -175 -470 -175c-109.333 0 -198.666 7.66699 -267.999 23v187zM249.71 1338.2l153.002 154.072l155.143 -155.142l-154.072 -153.003z" />
    </font>
</defs>
</svg>
