<?xml version="1.0" standalone="no"?>
<!DOCTYPE svg PUBLIC "-//W3C//DTD SVG 1.1//EN" "http://www.w3.org/Graphics/SVG/1.1/DTD/svg11.dtd" >
<svg>
<metadata>
Created by FontForge 20090914 at Sun Apr 30 18:45:29 2017
 By www-data
Copyright (c) 2003 by Bitstream, Inc. All Rights Reserved.
DejaVu changes are in public domain
Changes by Saber Rastikerdar are in public domain.
Non-Arabic(Latin) glyphs and data are imported from Roboto font under the Apache License, Version 2.0.
</metadata>
<defs>
<font id="Vazir-Bold" horiz-adv-x="0" >
  <font-face 
    font-family="Vazir"
    font-weight="700"
    font-stretch="normal"
    units-per-em="2048"
    panose-1="2 11 6 3 3 8 4 2 2 4"
    ascent="1638"
    descent="-410"
    bbox="-129.003 -983.757 3252.03 2417"
    underline-thickness="100"
    underline-position="-500"
    unicode-range="U+0020-U+FEFC"
  />
<missing-glyph horiz-adv-x="748" 
d="M68 0v1365h544v-1365h-544zM136 68h408v1229h-408v-1229z" />
    <glyph glyph-name="uni0622" unicode="&#x627;&#x653;" horiz-adv-x="652" 
d="M193 1316.38h267v-1315.49h-267v1315.49zM259 1525c-74 10 -141.667 -21.332 -203 -93.999l-101 146c78.667 113.333 174.667 161 288 143l149 -24c64.667 -10.667 137.667 4.66602 219 45.999l66 -177c-86 -53.333 -178.333 -73.333 -277 -60z" />
    <glyph glyph-name="uni0623" unicode="&#x627;&#x654;" horiz-adv-x="494" 
d="M123 1316.38h267v-1315.49h-267v1315.49zM-6 1734c0 56 13.333 103.998 40 143.998c5.33301 8 11.333 15.667 18 23l10 10.5c3.33301 3.66699 7 6.83398 11 9.50098c25.333 22.667 53.333 39.667 84 51c14.667 6 30 10.333 46 13s32.667 4.33398 50 5.00098l7 -1
c30.667 0 60 -3.33301 88 -10c29.333 -7.33301 57.333 -18.333 84 -33l14 -8l1 -180l-39 18c-9.33301 4 -18.5 7.66699 -27.5 11l-26 9.5c-8.33301 3 -16.5 5.5 -24.5 7.5c-22.667 6 -43.667 8.66699 -63 8c-17.333 0 -32.666 -2.5 -45.999 -7.5s-25.333 -12.167 -36 -21.5
l-6 -6l-4 -6l-4 -6c-0.666992 -1.33301 -1.16699 -2.5 -1.5 -3.5s-0.833008 -2.16699 -1.5 -3.5l-2 -8c0 -1.33301 -0.166992 -2.66602 -0.5 -3.99902s-0.5 -3 -0.5 -5c-2 -23.333 4.33301 -43 19 -59c16 -18 42.667 -32.667 80 -44h3c0.666992 -0.666992 1.5 -1 2.5 -1h3.5
h8h4.5h5.5h6c1.33301 0.666992 2.66602 1 3.99902 1h4c1.33301 0 2.66602 0.166992 3.99902 0.5s2.83301 0.5 4.5 0.5s3.16699 0.333008 4.5 1c30.667 3.33301 71.334 10.666 122.001 21.999l33 8v-182l-481 -108v179l71 17c-46 46 -69 98.667 -69 158z" />
    <glyph glyph-name="afii57412" unicode="&#x648;&#x654;" horiz-adv-x="908" 
d="M183 1261c0 56 13.333 103.998 40 143.998c5.33301 8 11.333 15.667 18 23l10 10.5c3.33301 3.66699 7 6.83398 11 9.50098c25.333 22.667 53.333 39.667 84 51c14.667 6 30 10.333 46 13s32.667 4.33398 50 5.00098l7 -1c30.667 0 60 -3.33301 88 -10
c29.333 -7.33301 57.333 -18.333 84 -33l14 -8l1 -180l-39 18c-9.33301 4 -18.5 7.66699 -27.5 11l-26 9.5c-8.33301 3 -16.5 5.5 -24.5 7.5c-22.667 6 -43.667 8.66699 -63 8c-17.333 0 -32.666 -2.5 -45.999 -7.5s-25.333 -12.167 -36 -21.5l-6 -6l-4 -6l-4 -6
c-0.666992 -1.33301 -1.16699 -2.5 -1.5 -3.5s-0.833008 -2.16699 -1.5 -3.5l-2 -8c0 -1.33301 -0.166992 -2.66602 -0.5 -3.99902s-0.5 -3 -0.5 -5c-2 -23.333 4.33301 -43 19 -59c16 -18 42.667 -32.667 80 -44h3c0.666992 -0.666992 1.5 -1 2.5 -1h3.5h8h4.5h5.5h6
c1.33301 0.666992 2.66602 1 3.99902 1h4c1.33301 0 2.66602 0.166992 3.99902 0.5s2.83301 0.5 4.5 0.5s3.16699 0.333008 4.5 1c30.667 3.33301 71.334 10.666 122.001 21.999l33 8v-182l-481 -108v179l71 17c-46 46 -69 98.667 -69 158zM489 267.998
c30.667 0.666992 61 4.33496 91 11.002c-12 95.333 -32.333 167.333 -61 216c-14 24.667 -28.333 41.667 -43 51s-32 13.666 -52 12.999c-16.667 0 -32.167 -7 -46.5 -21s-27.5 -39 -39.5 -75c-14 -40.667 -21 -76.334 -21 -107.001c0 -26 6 -44.333 18 -55
c28.667 -24.667 80 -35.667 154 -33zM847 171.999c-0.666992 -110.667 -20.166 -210.17 -58.499 -298.503s-95.5 -163.833 -171.5 -226.5c-110.667 -91.333 -277.334 -149 -500.001 -173l-42 -4l-49 267l50 4c260.667 23.333 423.667 111 489 263
c-22.667 -2.66699 -44 -4.33398 -64 -5.00098s-39.667 -1 -59 -1c-125.333 2 -221.666 33.333 -288.999 94s-100 147.334 -98 260.001c1.33301 80.667 18.333 158.334 51 233.001c17.333 38.667 36.666 73 57.999 103s45 55.833 71 77.5s54.333 38.334 85 50.001
s63 18.167 97 19.5c84 2.66699 156.833 -20 218.5 -68s110.167 -118 145.5 -210c44 -115.333 66 -243.666 66 -384.999z" />
    <glyph glyph-name="uni0625" unicode="&#x627;&#x655;" horiz-adv-x="494" 
d="M-11 -429c0 56 13.333 103.998 40 143.998c5.33301 8 11.333 15.667 18 23l10 10.5c3.33301 3.66699 7 6.83398 11 9.50098c25.333 22.667 53.333 39.667 84 51c14.667 6 30 10.333 46 13s32.667 4.33398 50 5.00098l7 -1c30.667 0 60 -3.33301 88 -10
c29.333 -7.33301 57.333 -18.333 84 -33l14 -8l1 -180l-39 18c-9.33301 4 -18.5 7.66699 -27.5 11l-26 9.5c-8.33301 3 -16.5 5.5 -24.5 7.5c-22.667 6 -43.667 8.66699 -63 8c-17.333 0 -32.666 -2.5 -45.999 -7.5s-25.333 -12.167 -36 -21.5l-6 -6l-4 -6l-4 -6
c-0.666992 -1.33301 -1.16699 -2.5 -1.5 -3.5s-0.833008 -2.16699 -1.5 -3.5l-2 -8c0 -1.33301 -0.166992 -2.66602 -0.5 -3.99902s-0.5 -3 -0.5 -5c-2 -23.333 4.33301 -43 19 -59c16 -18 42.667 -32.667 80 -44h3c0.666992 -0.666992 1.5 -1 2.5 -1h3.5h8h4.5h5.5h6
c1.33301 0.666992 2.66602 1 3.99902 1h4c1.33301 0 2.66602 0.166992 3.99902 0.5s2.83301 0.5 4.5 0.5s3.16699 0.333008 4.5 1c30.667 3.33301 71.334 10.666 122.001 21.999l33 8v-182l-481 -108v179l71 17c-46 46 -69 98.667 -69 158zM119 1464h267v-1463h-267v1463z
" />
    <glyph glyph-name="afii57414" unicode="&#x64a;&#x654;" horiz-adv-x="1512" 
d="M299 1024c0 56 13.333 103.998 40 143.998c5.33301 8 11.333 15.667 18 23l10 10.5c3.33301 3.66699 7 6.83398 11 9.50098c25.333 22.667 53.333 39.667 84 51c14.667 6 30 10.333 46 13s32.667 4.33398 50 5.00098l7 -1c30.667 0 60 -3.33301 88 -10
c29.333 -7.33301 57.333 -18.333 84 -33l14 -8l1 -180l-39 18c-9.33301 4 -18.5 7.66699 -27.5 11l-26 9.5c-8.33301 3 -16.5 5.5 -24.5 7.5c-22.667 6 -43.667 8.66699 -63 8c-17.333 0 -32.666 -2.5 -45.999 -7.5s-25.333 -12.167 -36 -21.5l-6 -6l-4 -6l-4 -6
c-0.666992 -1.33301 -1.16699 -2.5 -1.5 -3.5s-0.833008 -2.16699 -1.5 -3.5l-2 -8c0 -1.33301 -0.166992 -2.66602 -0.5 -3.99902s-0.5 -3 -0.5 -5c-2 -23.333 4.33301 -43 19 -59c16 -18 42.667 -32.667 80 -44h3c0.666992 -0.666992 1.5 -1 2.5 -1h3.5h8h4.5h5.5h6
c1.33301 0.666992 2.66602 1 3.99902 1h4c1.33301 0 2.66602 0.166992 3.99902 0.5s2.83301 0.5 4.5 0.5s3.16699 0.333008 4.5 1c30.667 3.33301 71.334 10.666 122.001 21.999l33 8v-182l-481 -108v179l71 17c-46 46 -69 98.667 -69 158zM725 -252.002
c141.333 0 259.667 34.666 355 103.999c68.667 48.667 105 101.667 109 159c-11.333 2.66699 -27 4 -47 4l-114 1c-30 0 -57.333 2.66699 -82 8c-67.333 15.333 -113.333 49.666 -138 102.999s-28.334 119 -11.001 197c22 98 68.667 187.667 140 269
c30.667 34.667 63.167 65.334 97.5 92.001s70.666 49 108.999 67s78.333 31.667 120 41s85.167 14.666 130.5 15.999l45 1v-278l-42 -3c-87.333 -6 -157.666 -28.5 -210.999 -67.5s-92.666 -95.833 -117.999 -170.5l119 1c82.667 0 147 -22.667 193 -68s68.667 -109 68 -191
c-0.666992 -93.333 -29 -182.666 -85 -267.999c-52 -78.667 -124.667 -142.667 -218 -192c-60.667 -32.667 -126.667 -56.667 -198 -72c-70 -16 -144.667 -23.667 -224 -23c-280 0.666992 -470.667 89.667 -572 267c-54 94 -81 205.667 -81 335
c-0.666992 146 36 308 110 486l17 41l243 -97l-16 -42c-58.667 -147.333 -87.667 -271 -87 -371c0 -79.333 13.667 -144.666 41 -195.999s69.5 -89.5 126.5 -114.5s130.5 -37.833 220.5 -38.5z" />
    <glyph glyph-name="uni06C0" unicode="&#x647;&#x654;" horiz-adv-x="971" 
d="M226 1350c22 -5.33301 46.999 -8.00684 74.999 -8.00684l34.5 2c11 0.666992 21.5 1.5 31.5 2.5s19.5 2.5 28.5 4.5s17.667 4.16699 26 6.5s16.166 5.16602 23.499 8.49902l17.5 8c5.66699 2.66699 10.834 5.33398 15.501 8.00098
c2.66699 1.33301 5.16699 2.83301 7.5 4.5s4.83301 3.16699 7.5 4.5c4.66699 3.33301 9 6.66602 13 9.99902c1.33301 0.666992 2.66602 1.66699 3.99902 3l3.5 3.5l3.5 3.5l3.5 3.5l3.5 3.5l3 3c3.33301 4 6.33301 7.83301 9 11.5s5 7.5 7 11.5
c0 0.666992 0.166992 1.33398 0.5 2.00098s0.833008 1.33398 1.5 2.00098v1l3 7l1 4c0.666992 1.33301 1 2.66602 1 3.99902c0 0.666992 0.333008 1 1 1h-1c-0.666992 0.666992 -1.66699 1 -3 1h-7l-95 3h-5.5h-5c-1.66699 0 -3.33398 0.166992 -5.00098 0.5
s-3.5 0.5 -5.5 0.5c-2 0.666992 -4 1.16699 -6 1.5s-4.16699 0.666016 -6.5 0.999023s-4.5 0.833008 -6.5 1.5c-2.66699 0.666992 -5.5 1.33398 -8.5 2.00098s-5.83301 1.66699 -8.5 3c-6 2 -11.667 4.66699 -17 8c-2.66699 1.33301 -5.16699 2.83301 -7.5 4.5l-7 5
c-2.33301 1.66699 -4.66602 3.5 -6.99902 5.5s-4.5 4 -6.5 6c-24 25.333 -35.667 60 -35 104c0.666992 53.333 18.667 105.333 54 156c1.33301 2 2.66602 3.66699 3.99902 5c0.666992 1.33301 1.33398 2.33301 2.00098 3l2 3c1.33301 2 2.83301 4 4.5 6
s3.33398 3.83301 5.00098 5.5s3.16699 3.5 4.5 5.5c8 8.66699 16.667 16.834 26 24.501s19.333 14.834 30 21.501c30.667 20 66 34.667 106 44c10 2.66699 20.333 4.83398 31 6.50098s21.334 3.16699 32.001 4.5c22.667 2.66699 46 4 70 4h37l-13 -171h-31
c-4.66699 0 -9.33398 -0.166992 -14.001 -0.5s-9.33398 -0.833008 -14.001 -1.5h-9c-1.33301 -0.666992 -2.66602 -1 -3.99902 -1h-4.5c-1.66699 0 -3.16699 -0.166992 -4.5 -0.5s-2.66602 -0.5 -3.99902 -0.5c-2 -0.666992 -4 -1 -6 -1s-4 -0.166992 -6 -0.5l-6 -1
c-2 -0.333008 -4 -0.833008 -6 -1.5c-1.33301 0 -2.5 -0.166992 -3.5 -0.5s-2.16699 -0.666016 -3.5 -0.999023s-2.5 -0.666016 -3.5 -0.999023s-2.16699 -0.5 -3.5 -0.5l-7 -2c-6.66699 -2 -13 -4 -19 -6l-9 -3.5c-2.66699 -1 -5.33398 -2.16699 -8.00098 -3.5
c-1.33301 -0.666992 -2.83301 -1.5 -4.5 -2.5l-5 -3c-1.66699 -1 -3.16699 -1.83301 -4.5 -2.5c-14.667 -9.33301 -26 -20.333 -34 -33c-0.666992 -2 -1.66699 -4.16699 -3 -6.5s-2.5 -4.66602 -3.5 -6.99902s-1.83301 -4.66602 -2.5 -6.99902
s-1.33398 -4.83301 -2.00098 -7.5l77 -2c44.667 -1.33301 80 -12 106 -32c2.66699 -2 5.16699 -4.16699 7.5 -6.5l7.5 -7.5c4.66699 -5.33301 8.66699 -11 12 -17c1.33301 -1.33301 2.33301 -2.66602 3 -3.99902s1.33398 -2.83301 2.00098 -4.5s1.66699 -3.16699 3 -4.5
c2 -4.66699 3.83301 -9.5 5.5 -14.5s3.5 -10.167 5.5 -15.5c0.666992 -3.33301 1.66699 -7 3 -11c0 -2 0.166992 -4 0.5 -6s0.833008 -3.66699 1.5 -5c0 -4 0.166992 -8.16699 0.5 -12.5s0.5 -8.5 0.5 -12.5v-7v-6c0 -1.33301 -0.166992 -2.5 -0.5 -3.5
s-0.5 -2.16699 -0.5 -3.5c-0.666992 -6.66699 -1.66699 -13.334 -3 -20.001c0 -2 -0.333008 -4 -1 -6s-1.16699 -4 -1.5 -6s-0.833008 -4.16699 -1.5 -6.5s-1.33398 -4.5 -2.00098 -6.5l-2 -6c0 -1.33301 -0.333008 -2.5 -1 -3.5s-1.16699 -2.16699 -1.5 -3.5l-1 -4
c-0.333008 -1.33301 -0.833008 -2.66602 -1.5 -3.99902c-0.666992 -2 -1.66699 -4.33301 -3 -7c-0.666992 -1.33301 -1.16699 -2.5 -1.5 -3.5s-0.833008 -2.16699 -1.5 -3.5c-4.66699 -10 -9.66699 -19.5 -15 -28.5s-11.333 -17.833 -18 -26.5s-13.667 -17 -21 -25
c-4 -4.66699 -8 -8.83398 -12 -12.501l-12 -11.5c-1.33301 -1.33301 -2.5 -2.33301 -3.5 -3s-2 -1.5 -3 -2.5s-2.16699 -2 -3.5 -3s-2.33301 -1.83301 -3 -2.5l-14 -11.5c-4.66699 -3.66699 -9.66699 -7.16699 -15 -10.5l-16 -10c-63.333 -39.333 -149 -59.333 -257 -60
c-9.33301 0 -18.166 0.166992 -26.499 0.5s-16.666 0.833008 -24.999 1.5l-24.5 2c-2 0 -4 0.166992 -6 0.5l-6 1l-6 1c-2 0.333008 -4 0.5 -6 0.5l-33 6l26 171zM474.999 637.993c-103.333 -96.667 -154.67 -179.001 -154.003 -247.001c0 -40 11.833 -69.167 35.5 -87.5
s65.834 -27.5 126.501 -27.5c32 0 59.167 2.5 81.5 7.5s39.833 12.5 52.5 22.5s21.834 21.833 27.501 35.5s8.83398 30.5 9.50098 50.5c0 14.667 -3.66699 31.334 -11 50.001s-19 39 -35 61c-30.667 41.333 -75 86.333 -133 135zM413.995 1052.99l77 -57.5
c24.667 -19 48.167 -38 70.5 -57l64.5 -57.5c60.667 -56.667 111.667 -112 153 -166c21.333 -27.333 40 -54.5 56 -81.5s29.667 -54.167 41 -81.5c22.667 -54 34.667 -107.667 36 -161c2 -70 -12.333 -132.667 -43 -188s-76.334 -101.333 -137.001 -138
c-65.333 -40.667 -147.666 -61 -246.999 -61c-88.667 0 -164.667 16 -228 48c-64 31.333 -112.5 74.833 -145.5 130.5s-49.5 121.167 -49.5 196.5c0.666992 146.667 75 297 223 451l-57 48l150 201z" />
    <glyph glyph-name="uniFBA5.fina" unicode="&#xfeea;&#x654;" horiz-adv-x="1092" arabic-form="final" 
d="M392 1322c22 -5.33301 46.999 -8.00684 74.999 -8.00684l34.5 2c11 0.666992 21.5 1.5 31.5 2.5s19.5 2.5 28.5 4.5s17.667 4.16699 26 6.5s16.166 5.16602 23.499 8.49902l17.5 8c5.66699 2.66699 10.834 5.33398 15.501 8.00098
c2.66699 1.33301 5.16699 2.83301 7.5 4.5s4.83301 3.16699 7.5 4.5c4.66699 3.33301 9 6.66602 13 9.99902c1.33301 0.666992 2.66602 1.66699 3.99902 3l3.5 3.5l3.5 3.5l3.5 3.5l3.5 3.5l3 3c3.33301 4 6.33301 7.83301 9 11.5s5 7.5 7 11.5
c0 0.666992 0.166992 1.33398 0.5 2.00098s0.833008 1.33398 1.5 2.00098v1l3 7l1 4c0.666992 1.33301 1 2.66602 1 3.99902c0 0.666992 0.333008 1 1 1h-1c-0.666992 0.666992 -1.66699 1 -3 1h-7l-95 3h-5.5h-5c-1.66699 0 -3.33398 0.166992 -5.00098 0.5
s-3.5 0.5 -5.5 0.5c-2 0.666992 -4 1.16699 -6 1.5s-4.16699 0.666016 -6.5 0.999023s-4.5 0.833008 -6.5 1.5c-2.66699 0.666992 -5.5 1.33398 -8.5 2.00098s-5.83301 1.66699 -8.5 3c-6 2 -11.667 4.66699 -17 8c-2.66699 1.33301 -5.16699 2.83301 -7.5 4.5l-7 5
c-2.33301 1.66699 -4.66602 3.5 -6.99902 5.5s-4.5 4 -6.5 6c-24 25.333 -35.667 60 -35 104c0.666992 53.333 18.667 105.333 54 156c1.33301 2 2.66602 3.66699 3.99902 5c0.666992 1.33301 1.33398 2.33301 2.00098 3l2 3c1.33301 2 2.83301 4 4.5 6
s3.33398 3.83301 5.00098 5.5s3.16699 3.5 4.5 5.5c8 8.66699 16.667 16.834 26 24.501s19.333 14.834 30 21.501c30.667 20 66 34.667 106 44c10 2.66699 20.333 4.83398 31 6.50098s21.334 3.16699 32.001 4.5c22.667 2.66699 46 4 70 4h37l-13 -171h-31
c-4.66699 0 -9.33398 -0.166992 -14.001 -0.5s-9.33398 -0.833008 -14.001 -1.5h-9c-1.33301 -0.666992 -2.66602 -1 -3.99902 -1h-4.5c-1.66699 0 -3.16699 -0.166992 -4.5 -0.5s-2.66602 -0.5 -3.99902 -0.5c-2 -0.666992 -4 -1 -6 -1s-4 -0.166992 -6 -0.5l-6 -1
c-2 -0.333008 -4 -0.833008 -6 -1.5c-1.33301 0 -2.5 -0.166992 -3.5 -0.5s-2.16699 -0.666016 -3.5 -0.999023s-2.5 -0.666016 -3.5 -0.999023s-2.16699 -0.5 -3.5 -0.5l-7 -2c-6.66699 -2 -13 -4 -19 -6l-9 -3.5c-2.66699 -1 -5.33398 -2.16699 -8.00098 -3.5
c-1.33301 -0.666992 -2.83301 -1.5 -4.5 -2.5l-5 -3c-1.66699 -1 -3.16699 -1.83301 -4.5 -2.5c-14.667 -9.33301 -26 -20.333 -34 -33c-0.666992 -2 -1.66699 -4.16699 -3 -6.5s-2.5 -4.66602 -3.5 -6.99902s-1.83301 -4.66602 -2.5 -6.99902
s-1.33398 -4.83301 -2.00098 -7.5l77 -2c44.667 -1.33301 80 -12 106 -32c2.66699 -2 5.16699 -4.16699 7.5 -6.5l7.5 -7.5c4.66699 -5.33301 8.66699 -11 12 -17c1.33301 -1.33301 2.33301 -2.66602 3 -3.99902s1.33398 -2.83301 2.00098 -4.5s1.66699 -3.16699 3 -4.5
c2 -4.66699 3.83301 -9.5 5.5 -14.5s3.5 -10.167 5.5 -15.5c0.666992 -3.33301 1.66699 -7 3 -11c0 -2 0.166992 -4 0.5 -6s0.833008 -3.66699 1.5 -5c0 -4 0.166992 -8.16699 0.5 -12.5s0.5 -8.5 0.5 -12.5v-7v-6c0 -1.33301 -0.166992 -2.5 -0.5 -3.5
s-0.5 -2.16699 -0.5 -3.5c-0.666992 -6.66699 -1.66699 -13.334 -3 -20.001c0 -2 -0.333008 -4 -1 -6s-1.16699 -4 -1.5 -6s-0.833008 -4.16699 -1.5 -6.5s-1.33398 -4.5 -2.00098 -6.5l-2 -6c0 -1.33301 -0.333008 -2.5 -1 -3.5s-1.16699 -2.16699 -1.5 -3.5l-1 -4
c-0.333008 -1.33301 -0.833008 -2.66602 -1.5 -3.99902c-0.666992 -2 -1.66699 -4.33301 -3 -7c-0.666992 -1.33301 -1.16699 -2.5 -1.5 -3.5s-0.833008 -2.16699 -1.5 -3.5c-4.66699 -10 -9.66699 -19.5 -15 -28.5s-11.333 -17.833 -18 -26.5s-13.667 -17 -21 -25
c-4 -4.66699 -8 -8.83398 -12 -12.501l-12 -11.5c-1.33301 -1.33301 -2.5 -2.33301 -3.5 -3s-2 -1.5 -3 -2.5s-2.16699 -2 -3.5 -3s-2.33301 -1.83301 -3 -2.5l-14 -11.5c-4.66699 -3.66699 -9.66699 -7.16699 -15 -10.5l-16 -10c-63.333 -39.333 -149 -59.333 -257 -60
c-9.33301 0 -18.166 0.166992 -26.499 0.5s-16.666 0.833008 -24.999 1.5l-24.5 2c-2 0 -4 0.166992 -6 0.5l-6 1l-6 1c-2 0.333008 -4 0.5 -6 0.5l-33 6l26 171zM61.999 485.993c0 126 46.667 228.835 140 308.502s228 136.5 404 170.5l-5 56l256 34l85 -627
c7.33301 -54.667 22.666 -93.667 45.999 -117s57.333 -35 102 -35h10c10.667 0 20.167 -1.83301 28.5 -5.5s14.833 -9 19.5 -16s8.33398 -13.833 11.001 -20.5s4.5 -15.167 5.5 -25.5s1.66699 -18.333 2 -24s0.5 -12.834 0.5 -21.501v-8v-23v-11
c1.33301 -80.667 -21 -121 -67 -121h-13c-84.667 0 -157.5 19.167 -218.5 57.5s-107.167 94.166 -138.5 167.499c-19.333 -12.667 -39.333 -23.5 -60 -32.5s-42.167 -16.5 -64.5 -22.5s-45.333 -10.5 -69 -13.5s-48.167 -4.5 -73.5 -4.5
c-132.667 -0.666992 -234.667 33.333 -306 102c-63.333 60.667 -95 138 -95 232zM641.999 701.995c-56 -10.667 -104.331 -23.332 -144.998 -37.999s-72.667 -30.667 -96 -48s-40.5 -35 -51.5 -53s-16.5 -37 -16.5 -57c-0.666992 -29.333 8 -50.666 26 -63.999
c9.33301 -7.33301 22.833 -13.333 40.5 -18s39.167 -7 64.5 -7c10.667 0 21 0.333008 31 1l29 2c8.66699 1.33301 16.667 3 24 5c8 1.33301 15.333 3 22 5s12.667 4.33301 18 7c3.33301 1.33301 6.16602 2.66602 8.49902 3.99902s4.83301 2.66602 7.5 3.99902
c25.333 16 42.666 35 51.999 57s11 50.667 5 86z" />
    <glyph glyph-name="uniFDF2" unicode="&#x627;&#xfedf;&#xfee0;&#xfeea;" horiz-adv-x="2916" arabic-form="isolated" 
d="M1372 1782v492h128v-492h-128zM1501 1721c1.33301 -30.667 2.00098 -61.666 2.00098 -92.999c0 -36.667 6 -62.834 18 -78.501s30.667 -23.5 56 -23.5c23.333 0.666992 40.5 8 51.5 22s16.833 37.667 17.5 71c0 20 -1.5 42.167 -4.5 66.5s-7.5 50.833 -13.5 79.5l-5 21
l137 21l4 -17c14 -47.333 20.667 -101 20 -161c0.666992 -78.667 -16.166 -139.167 -50.499 -181.5s-84.833 -63.5 -151.5 -63.5c-51.333 -0.666992 -91 14 -119 44c-32.667 -76.667 -92 -115 -178 -115c-8.66699 0 -16.667 0.333008 -24 1
c-56.667 5.33301 -97.334 30 -122.001 74s-33 104.333 -25 181c0.666992 12 2.16699 26 4.5 42l7.5 53l4 20l127 -21l-4 -20c-7.33301 -33.333 -11 -69.333 -11 -108c0.666992 -18.667 3 -33.5 7 -44.5s10 -18.667 18 -23s18.333 -6.16602 31 -5.49902
c24 -0.666992 42.333 7.16602 55 23.499s19.667 43.833 21 82.5c1.33301 40 1.66602 90.667 0.999023 152v20h125zM62.001 486.001c0 126 46.667 228.835 140 308.502s228 136.5 404 170.5l-5 56l256 34l85 -627c7.33301 -54.667 22.666 -93.667 45.999 -117
s57.333 -35 102 -35h10c10.667 0 20.167 -1.83301 28.5 -5.5s14.833 -9 19.5 -16s8.33398 -13.833 11.001 -20.5s4.5 -15.167 5.5 -25.5s1.66699 -18.333 2 -24s0.5 -12.834 0.5 -21.501v-8v-23v-11c1.33301 -80.667 -21 -121 -67 -121h-13
c-84.667 0 -157.5 19.167 -218.5 57.5s-107.167 94.166 -138.5 167.499c-19.333 -12.667 -39.333 -23.5 -60 -32.5s-42.167 -16.5 -64.5 -22.5s-45.333 -10.5 -69 -13.5s-48.167 -4.5 -73.5 -4.5c-132.667 -0.666992 -234.667 33.333 -306 102
c-63.333 60.667 -95 138 -95 232zM642.001 702.003c-56 -10.667 -104.331 -23.332 -144.998 -37.999s-72.667 -30.667 -96 -48s-40.5 -35 -51.5 -53s-16.5 -37 -16.5 -57c-0.666992 -29.333 8 -50.666 26 -63.999c9.33301 -7.33301 22.833 -13.333 40.5 -18
s39.167 -7 64.5 -7c10.667 0 21 0.333008 31 1l29 2c8.66699 1.33301 16.667 3 24 5c8 1.33301 15.333 3 22 5s12.667 4.33301 18 7c3.33301 1.33301 6.16602 2.66602 8.49902 3.99902s4.83301 2.66602 7.5 3.99902c25.333 16 42.666 35 51.999 57s11 50.667 5 86z
M1462 126.005c-78.667 -84 -189.998 -126 -333.998 -126h-28c-37.333 0 -67 12.333 -89 37s-33 56.334 -33 95.001v18c0 37.333 11.333 67.666 34 90.999c22 23.333 51.333 35 88 35h30c72 0 123.667 14.667 155 44s47 77 47 143v786h270v-786
c0 -66.667 14.333 -114.667 43 -144c28.667 -28.667 76 -43 142 -43h9c17.333 0 32.333 -5.66699 45 -17c9.33301 -8.66699 16.666 -19.5 21.999 -32.5s8.33301 -24.833 9 -35.5c1.33301 -9.33301 2 -23 2 -41v-18c0 -18.667 -1 -34.334 -3 -47.001
c-1.33301 -13.333 -4.33301 -25.333 -9 -36c-4.66699 -11.333 -10.334 -20.666 -17.001 -27.999c-6 -6 -13.333 -11 -22 -15s-17.667 -6 -27 -6h-7c-138.667 0 -247.667 42 -327 126zM1798 0.00488281c-37.333 0 -66.998 12.333 -88.998 37s-33 56.334 -33 95.001v18
c0 37.333 11.333 67.666 34 90.999c22 23.333 51.333 35 88 35h27c71.333 0 122.666 15 153.999 45c31.333 29.333 47 77.666 47 144.999v967h266v-972c0 -149.333 -40.667 -263.666 -122 -342.999c-80.667 -78.667 -197.334 -118 -350.001 -118h-22zM2515.01 1464h267
v-1463h-267v1463z" />
    <glyph glyph-name="uniFE70" unicode="&#x20;&#x64b;" horiz-adv-x="755" arabic-form="isolated" 
d="M80 1174v147l536 219v-147zM80 1454v147l536 219v-147z" />
    <glyph glyph-name="uniFE72" unicode="&#x20;&#x64c;" horiz-adv-x="755" arabic-form="isolated" 
d="M396 1898c-2.66699 -3.33301 -5.16602 -7.00098 -7.49902 -11.001s-4.33301 -8 -6 -12s-2.83398 -8.16699 -3.50098 -12.5s-1 -8.83301 -1 -13.5c0 -36 21.333 -62.667 64 -80c14.667 -6 37.667 -13.667 69 -23c15.333 28 23 56.667 23 86c0 22.667 -3 40.834 -9 54.501
s-15.167 23.667 -27.5 30s-28.333 9.33301 -48 9s-37.5 -9.5 -53.5 -27.5zM101.001 1683c2 -81.333 14.168 -141.001 36.501 -179.001s54.833 -56.667 97.5 -56c48.667 0 100 26 154 78c28.667 28 55.667 66.333 81 115l-13 3c-78 16 -131.667 43.667 -161 83
c-12.667 16.667 -22.334 34.5 -29.001 53.5s-10 38.5 -10 58.5c0 40 7 73.667 21 101c17.333 34 40 59.667 68 77s60.667 26 98 26c60 0.666992 110 -18.666 150 -57.999c37.333 -36.667 56.333 -87 57 -151c0 -27.333 -6.33301 -63.333 -19 -108h14
c10 -0.666992 20.333 -1.16699 31 -1.5s22 -0.833008 34 -1.5h14v-117h-15c-14.667 0.666992 -26.667 1.16699 -36 1.5s-16.333 0.5 -21 0.5l-74 8c-16.667 -37.333 -37 -72 -61 -104s-52.333 -62.333 -85 -91c-22.667 -20 -44.5 -36.5 -65.5 -49.5s-41.667 -23 -62 -30
s-39.833 -10.5 -58.5 -10.5c-77.333 -0.666992 -135.833 29 -175.5 89s-60.5 147.667 -62.5 263v15h92v-15z" />
    <glyph glyph-name="uniFE74" unicode="&#x20;&#x64d;" horiz-adv-x="755" arabic-form="isolated" 
d="M86 -562v147l536 219v-147zM86 -282v147l536 219v-147z" />
    <glyph glyph-name="uniFE76" unicode="&#x20;&#x64e;" horiz-adv-x="755" arabic-form="isolated" 
d="M46 1477v147l536 219v-147z" />
    <glyph glyph-name="uniFE78" unicode="&#x20;&#x64f;" horiz-adv-x="755" arabic-form="isolated" 
d="M646 1623c-21.333 0 -43.998 0.999023 -67.998 2.99902c-34.667 3.33301 -57.667 5.33301 -69 6c-68.667 -94 -162 -159.333 -280 -196c-15.333 -5.33301 -30.833 -9.66602 -46.5 -12.999s-31.5 -6 -47.5 -8s-32 -3.66699 -48 -5l-16 -1v117l14 1
c110.667 5.33301 203.334 47 278.001 125l14 15c-26 7.33301 -50 16.666 -72 27.999c-18.667 9.33301 -34.834 19.833 -48.501 31.5s-25.167 24.5 -34.5 38.5c-20.667 32 -29.667 68.333 -27 109c3.33301 46 17.666 84.667 42.999 116c12 14.667 25.833 26.834 41.5 36.501
s32.667 17 51 22s38.5 7.83301 60.5 8.5c6 0 12.167 -0.166992 18.5 -0.5s12.666 -1.16602 18.999 -2.49902s12.666 -2.83301 18.999 -4.5s12.833 -3.83398 19.5 -6.50098c51.333 -21.333 86.333 -57.333 105 -108c10.667 -28 15.334 -56.333 14.001 -85
c0 -12.667 -1.33301 -27 -4 -43l-4 -17.5l-4 -16.5c-1.33301 -5.33301 -3 -11 -5 -17l-4 -13l14 -1c12.667 -0.666992 24.5 -1.16699 35.5 -1.5s21.5 -0.5 31.5 -0.5h15v-117h-15zM446.002 1763l0.99707 3c14.667 33.333 22 64.666 22 93.999c0 13.333 -2 24.833 -6 34.5
s-10 17.834 -18 24.501c-15.333 12.667 -34.666 19 -57.999 19c-8.66699 0 -16.5 -1 -23.5 -3s-13.167 -4.83301 -18.5 -8.5s-10.333 -8.5 -15 -14.5c-11.333 -15.333 -16.666 -33.333 -15.999 -54c0 -31.333 21 -55.333 63 -72c4 -1.33301 8.33301 -3 13 -5
s9.83398 -3.83301 15.501 -5.5s12 -3.66699 19 -6s14.167 -4.5 21.5 -6.5z" />
    <glyph glyph-name="uniFE7A" unicode="&#x20;&#x650;" horiz-adv-x="755" arabic-form="isolated" 
d="M98 -406v147l536 219v-147z" />
    <glyph glyph-name="uniFE7C" unicode="&#x20;&#x651;" horiz-adv-x="755" arabic-form="isolated" 
d="M428 1986c1.33301 -30.667 2.00098 -61.666 2.00098 -92.999c0 -36.667 6 -62.834 18 -78.501s30.667 -23.5 56 -23.5c23.333 0.666992 40.5 8 51.5 22s16.833 37.667 17.5 71c0 20 -1.5 42.167 -4.5 66.5s-7.5 50.833 -13.5 79.5l-5 21l137 21l4 -17
c14 -47.333 20.667 -101 20 -161c0.666992 -78.667 -16.166 -139.167 -50.499 -181.5s-84.833 -63.5 -151.5 -63.5c-51.333 -0.666992 -91 14 -119 44c-32.667 -76.667 -92 -115 -178 -115c-8.66699 0 -16.667 0.333008 -24 1c-56.667 5.33301 -97.334 30 -122.001 74
s-33 104.333 -25 181c0.666992 12 2.16699 26 4.5 42l7.5 53l4 20l127 -21l-4 -20c-7.33301 -33.333 -11 -69.333 -11 -108c0.666992 -18.667 3 -33.5 7 -44.5s10 -18.667 18 -23s18.333 -6.16602 31 -5.49902c24 -0.666992 42.333 7.16602 55 23.499s19.667 43.833 21 82.5
c1.33301 40 1.66602 90.667 0.999023 152v20h125z" />
    <glyph glyph-name="uniFE7E" unicode="&#x20;&#x652;" horiz-adv-x="755" arabic-form="isolated" 
d="M159 1624c0 64.667 22.5 119.5 67.5 164.5s100 67.5 165 67.5s119.833 -22.5 164.5 -67.5s67 -99.833 67 -164.5s-22.333 -119.5 -67 -164.5s-99.5 -67.5 -164.5 -67.5s-120 22.5 -165 67.5s-67.5 99.833 -67.5 164.5zM286 1623c0 -30.667 10.667 -56.335 32 -77.002
c21.333 -21.333 47 -32 77 -32c30.667 0 56.667 10.667 78 32c20.667 20.667 31 46.334 31 77.001s-10.333 56.334 -31 77.001c-21.333 21.333 -47.333 32 -78 32c-30 0 -55.667 -10.5 -77 -31.5s-32 -46.833 -32 -77.5z" />
    <glyph glyph-name="uniFEF5" unicode="&#xfedf;&#xfe82;" horiz-adv-x="1241" arabic-form="isolated" 
d="M184 1578c-74 10 -141.667 -21.332 -203 -93.999l-101 146c78.667 113.333 174.667 161 288 143l149 -24c64.667 -10.667 137.667 4.66602 219 45.999l66 -177c-86 -53.333 -178.333 -73.333 -277 -60zM291 1370c205.333 -524 330.333 -873.332 375 -1048
c133.333 57.333 200.333 169.333 201 336v806h266v-797c-0.666992 -326 -135.667 -533.667 -405 -623c-111.333 -36.667 -255.333 -49.334 -432 -38.001c-57.333 4 -116.333 9 -177 15l-40 5v287l53 -10c100 -18.667 192.667 -28.667 278 -30
c-32 121.333 -155.667 455 -371 1001l-16 43l252 94z" />
    <glyph glyph-name="uniFEF6" unicode="&#xfee0;&#xfe82;" horiz-adv-x="1321" arabic-form="final" 
d="M1292 0c-160 0 -271.999 64.332 -335.999 192.999c-108.667 -125.333 -286.334 -189.333 -533.001 -192c-68 -0.666992 -169.333 6 -304 20l-40 5v286l53 -9c100.667 -18.667 193.334 -28.667 278.001 -30c-30 112.667 -153.667 446.334 -371 1001l-16 43l252 94l16 -41
c205.333 -522.667 330.333 -872 375 -1048c133.333 58.667 200.333 170.667 201 336v806h266v-889c0 -140.667 26.333 -231 79 -271c24.667 -18 55.667 -27 93 -27h24c48 0 70.333 -37.333 67 -112v-15v-18c0 -2 0.166992 -7.5 0.5 -16.5s0.333008 -15.833 0 -20.5l-1.5 -21
c-2 -28 -7.33301 -45.667 -16 -53c-16.667 -14 -33.334 -21 -50.001 -21h-37zM184.001 1578c-74 10 -141.667 -21.332 -203 -93.999l-101 146c78.667 113.333 174.667 161 288 143l149 -24c64.667 -10.667 137.667 4.66602 219 45.999l66 -177
c-86 -53.333 -178.333 -73.333 -277 -60z" />
    <glyph glyph-name="uniFEF7" unicode="&#xfedf;&#xfe84;" horiz-adv-x="1241" arabic-form="isolated" 
d="M-80 1857c0 56 13.333 103.999 40 143.999c5.33301 8 11.333 15.667 18 23l10 10.5c3.33301 3.66699 7 6.83398 11 9.50098c25.333 22.667 53.333 39.667 84 51c14.667 6 30 10.333 46 13s32.667 4.33398 50 5l7 -1c30.667 0 60 -3.33301 88 -10
c29.333 -7.33301 57.333 -18.333 84 -33l14 -8l1 -180l-39 18c-9.33301 4 -18.5 7.66699 -27.5 11l-26 9.5c-8.33301 3 -16.5 5.5 -24.5 7.5c-22.667 6 -43.667 8.66699 -63 8c-17.333 0 -32.666 -2.5 -45.999 -7.5s-25.333 -12.167 -36 -21.5l-6 -6l-4 -6l-4 -6
c-0.666992 -1.33301 -1.16699 -2.5 -1.5 -3.5s-0.833008 -2.16699 -1.5 -3.5l-2 -8c0 -1.33301 -0.166992 -2.66602 -0.5 -3.99902s-0.5 -3 -0.5 -5c-2 -23.333 4.33301 -43 19 -59c16 -18 42.667 -32.667 80 -44h3c0.666992 -0.666992 1.5 -1 2.5 -1h3.5h8h4.5h5.5h6
c1.33301 0.666992 2.66602 1 3.99902 1h4c1.33301 0 2.66602 0.166992 3.99902 0.5s2.83301 0.5 4.5 0.5s3.16699 0.333008 4.5 1c30.667 3.33301 71.334 10.666 122.001 21.999l33 8v-182l-481 -108v179l71 17c-46 46 -69 98.667 -69 158zM291 1370
c205.333 -524 330.333 -873.332 375 -1048c133.333 57.333 200.333 169.333 201 336v806h266v-797c-0.666992 -326 -135.667 -533.667 -405 -623c-111.333 -36.667 -255.333 -49.334 -432 -38.001c-57.333 4 -116.333 9 -177 15l-40 5v287l53 -10
c100 -18.667 192.667 -28.667 278 -30c-32 121.333 -155.667 455 -371 1001l-16 43l252 94z" />
    <glyph glyph-name="uniFEF8" unicode="&#xfee0;&#xfe84;" horiz-adv-x="1321" arabic-form="final" 
d="M1292 0c-160 0 -271.999 64.332 -335.999 192.999c-108.667 -125.333 -286.334 -189.333 -533.001 -192c-68 -0.666992 -169.333 6 -304 20l-40 5v286l53 -9c100.667 -18.667 193.334 -28.667 278.001 -30c-30 112.667 -153.667 446.334 -371 1001l-16 43l252 94l16 -41
c205.333 -522.667 330.333 -872 375 -1048c133.333 58.667 200.333 170.667 201 336v806h266v-889c0 -140.667 26.333 -231 79 -271c24.667 -18 55.667 -27 93 -27h24c48 0 70.333 -37.333 67 -112v-15v-18c0 -2 0.166992 -7.5 0.5 -16.5s0.333008 -15.833 0 -20.5l-1.5 -21
c-2 -28 -7.33301 -45.667 -16 -53c-16.667 -14 -33.334 -21 -50.001 -21h-37zM-79.999 1857c0 56 13.333 103.998 40 143.998c5.33301 8 11.333 15.667 18 23l10 10.5c3.33301 3.66699 7 6.83398 11 9.50098c25.333 22.667 53.333 39.667 84 51c14.667 6 30 10.333 46 13
s32.667 4.33398 50 5.00098l7 -1c30.667 0 60 -3.33301 88 -10c29.333 -7.33301 57.333 -18.333 84 -33l14 -8l1 -180l-39 18c-9.33301 4 -18.5 7.66699 -27.5 11l-26 9.5c-8.33301 3 -16.5 5.5 -24.5 7.5c-22.667 6 -43.667 8.66699 -63 8
c-17.333 0 -32.666 -2.5 -45.999 -7.5s-25.333 -12.167 -36 -21.5l-6 -6l-4 -6l-4 -6c-0.666992 -1.33301 -1.16699 -2.5 -1.5 -3.5s-0.833008 -2.16699 -1.5 -3.5l-2 -8c0 -1.33301 -0.166992 -2.66602 -0.5 -3.99902s-0.5 -3 -0.5 -5c-2 -23.333 4.33301 -43 19 -59
c16 -18 42.667 -32.667 80 -44h3c0.666992 -0.666992 1.5 -1 2.5 -1h3.5h8h4.5h5.5h6c1.33301 0.666992 2.66602 1 3.99902 1h4c1.33301 0 2.66602 0.166992 3.99902 0.5s2.83301 0.5 4.5 0.5s3.16699 0.333008 4.5 1c30.667 3.33301 71.334 10.666 122.001 21.999l33 8
v-182l-481 -108v179l71 17c-46 46 -69 98.667 -69 158z" />
    <glyph glyph-name="uniFEF9" unicode="&#xfedf;&#xfe88;" horiz-adv-x="1241" arabic-form="isolated" 
d="M291 1370c205.333 -524 330.333 -873.332 375 -1048c133.333 57.333 200.333 169.333 201 336v806h266v-797c-0.666992 -326 -135.667 -533.667 -405 -623c-111.333 -36.667 -255.333 -49.334 -432 -38.001c-57.333 4 -116.333 9 -177 15l-40 5v287l53 -10
c100 -18.667 192.667 -28.667 278 -30c-32 121.333 -155.667 455 -371 1001l-16 43l252 94zM8 -311.999c0 56 13.333 103.998 40 143.998c5.33301 8 11.333 15.667 18 23l10 10.5c3.33301 3.66699 7 6.83398 11 9.50098c25.333 22.667 53.333 39.667 84 51
c14.667 6 30 10.333 46 13s32.667 4.33398 50 5.00098l7 -1c30.667 0 60 -3.33301 88 -10c29.333 -7.33301 57.333 -18.333 84 -33l14 -8l1 -180l-39 18c-9.33301 4 -18.5 7.66699 -27.5 11l-26 9.5c-8.33301 3 -16.5 5.5 -24.5 7.5c-22.667 6 -43.667 8.66699 -63 8
c-17.333 0 -32.666 -2.5 -45.999 -7.5s-25.333 -12.167 -36 -21.5l-6 -6l-4 -6l-4 -6c-0.666992 -1.33301 -1.16699 -2.5 -1.5 -3.5s-0.833008 -2.16699 -1.5 -3.5l-2 -8c0 -1.33301 -0.166992 -2.66602 -0.5 -3.99902s-0.5 -3 -0.5 -5c-2 -23.333 4.33301 -43 19 -59
c16 -18 42.667 -32.667 80 -44h3c0.666992 -0.666992 1.5 -1 2.5 -1h3.5h8h4.5h5.5h6c1.33301 0.666992 2.66602 1 3.99902 1h4c1.33301 0 2.66602 0.166992 3.99902 0.5s2.83301 0.5 4.5 0.5s3.16699 0.333008 4.5 1c30.667 3.33301 71.334 10.666 122.001 21.999l33 8
v-182l-481 -108v179l71 17c-46 46 -69 98.667 -69 158z" />
    <glyph glyph-name="uniFEFA" unicode="&#xfee0;&#xfe88;" horiz-adv-x="1321" arabic-form="final" 
d="M8 -312c0 56 13.333 103.998 40 143.998c5.33301 8 11.333 15.667 18 23l10 10.5c3.33301 3.66699 7 6.83398 11 9.50098c25.333 22.667 53.333 39.667 84 51c14.667 6 30 10.333 46 13s32.667 4.33398 50 5.00098l7 -1c30.667 0 60 -3.33301 88 -10
c29.333 -7.33301 57.333 -18.333 84 -33l14 -8l1 -180l-39 18c-9.33301 4 -18.5 7.66699 -27.5 11l-26 9.5c-8.33301 3 -16.5 5.5 -24.5 7.5c-22.667 6 -43.667 8.66699 -63 8c-17.333 0 -32.666 -2.5 -45.999 -7.5s-25.333 -12.167 -36 -21.5l-6 -6l-4 -6l-4 -6
c-0.666992 -1.33301 -1.16699 -2.5 -1.5 -3.5s-0.833008 -2.16699 -1.5 -3.5l-2 -8c0 -1.33301 -0.166992 -2.66602 -0.5 -3.99902s-0.5 -3 -0.5 -5c-2 -23.333 4.33301 -43 19 -59c16 -18 42.667 -32.667 80 -44h3c0.666992 -0.666992 1.5 -1 2.5 -1h3.5h8h4.5h5.5h6
c1.33301 0.666992 2.66602 1 3.99902 1h4c1.33301 0 2.66602 0.166992 3.99902 0.5s2.83301 0.5 4.5 0.5s3.16699 0.333008 4.5 1c30.667 3.33301 71.334 10.666 122.001 21.999l33 8v-182l-481 -108v179l71 17c-46 46 -69 98.667 -69 158zM1292 -0.00195312
c-160 0 -271.999 64.332 -335.999 192.999c-108.667 -125.333 -286.334 -189.333 -533.001 -192c-68 -0.666992 -169.333 6 -304 20l-40 5v286l53 -9c100.667 -18.667 193.334 -28.667 278.001 -30c-30 112.667 -153.667 446.334 -371 1001l-16 43l252 94l16 -41
c205.333 -522.667 330.333 -872 375 -1048c133.333 58.667 200.333 170.667 201 336v806h266v-889c0 -140.667 26.333 -231 79 -271c24.667 -18 55.667 -27 93 -27h24c48 0 70.333 -37.333 67 -112v-15v-18c0 -2 0.166992 -7.5 0.5 -16.5s0.333008 -15.833 0 -20.5l-1.5 -21
c-2 -28 -7.33301 -45.667 -16 -53c-16.667 -14 -33.334 -21 -50.001 -21h-37z" />
    <glyph glyph-name="uniFEFB" unicode="&#xfedf;&#xfe8e;" horiz-adv-x="1241" arabic-form="isolated" 
d="M291 1370c205.333 -524 330.333 -873.332 375 -1048c133.333 57.333 200.333 169.333 201 336v806h266v-797c-0.666992 -326 -135.667 -533.667 -405 -623c-111.333 -36.667 -255.333 -49.334 -432 -38.001c-57.333 4 -116.333 9 -177 15l-40 5v287l53 -10
c100 -18.667 192.667 -28.667 278 -30c-32 121.333 -155.667 455 -371 1001l-16 43l252 94z" />
    <glyph glyph-name="uniFEFC" unicode="&#xfee0;&#xfe8e;" horiz-adv-x="1321" arabic-form="final" 
d="M1292 0c-160 0 -271.999 64.332 -335.999 192.999c-108.667 -125.333 -286.334 -189.333 -533.001 -192c-68 -0.666992 -169.333 6 -304 20l-40 5v286l53 -9c100.667 -18.667 193.334 -28.667 278.001 -30c-30 112.667 -153.667 446.334 -371 1001l-16 43l252 94l16 -41
c205.333 -522.667 330.333 -872 375 -1048c133.333 58.667 200.333 170.667 201 336v806h266v-889c0 -140.667 26.333 -231 79 -271c24.667 -18 55.667 -27 93 -27h24c48 0 70.333 -37.333 67 -112v-15v-18c0 -2 0.166992 -7.5 0.5 -16.5s0.333008 -15.833 0 -20.5l-1.5 -21
c-2 -28 -7.33301 -45.667 -16 -53c-16.667 -14 -33.334 -21 -50.001 -21h-37z" />
    <glyph glyph-name="uni0651064B" unicode="&#x64b;&#x651;" 
d="M355 1336v147l536 219v-147zM355 1616v147l536 219v-147zM703 1285c1.33301 -30.667 2.00098 -61.666 2.00098 -92.999c0 -36.667 6 -62.834 18 -78.501s30.667 -23.5 56 -23.5c23.333 0.666992 40.5 8 51.5 22s16.833 37.667 17.5 71c0 20 -1.5 42.167 -4.5 66.5
s-7.5 50.833 -13.5 79.5l-5 21l137 21l4 -17c14 -47.333 20.667 -101 20 -161c0.666992 -78.667 -16.166 -139.167 -50.499 -181.5s-84.833 -63.5 -151.5 -63.5c-51.333 -0.666992 -91 14 -119 44c-32.667 -76.667 -92 -115 -178 -115c-8.66699 0 -16.667 0.333008 -24 1
c-56.667 5.33301 -97.334 30 -122.001 74s-33 104.333 -25 181c0.666992 12 2.16699 26 4.5 42l7.5 53l4 20l127 -21l-4 -20c-7.33301 -33.333 -11 -69.333 -11 -108c0.666992 -18.667 3 -33.5 7 -44.5s10 -18.667 18 -23s18.333 -6.16602 31 -5.49902
c24 -0.666992 42.333 7.16602 55 23.499s19.667 43.833 21 82.5c1.33301 40 1.66602 90.667 0.999023 152v20h125z" />
    <glyph glyph-name="uni0651064C" unicode="&#x64c;&#x651;" 
d="M658 1910c-2.66699 -3.33301 -5.16602 -7.00098 -7.49902 -11.001s-4.33301 -8 -6 -12s-2.83398 -8.16699 -3.50098 -12.5s-1 -8.83301 -1 -13.5c0 -36 21.333 -62.667 64 -80c14.667 -6 37.667 -13.667 69 -23c15.333 28 23 56.667 23 86c0 22.667 -3 40.834 -9 54.501
s-15.167 23.667 -27.5 30s-28.333 9.33301 -48 9s-37.5 -9.5 -53.5 -27.5zM363.001 1695c2 -81.333 14.168 -141.001 36.501 -179.001s54.833 -56.667 97.5 -56c48.667 0 100 26 154 78c28.667 28 55.667 66.333 81 115l-13 3c-78 16 -131.667 43.667 -161 83
c-12.667 16.667 -22.334 34.5 -29.001 53.5s-10 38.5 -10 58.5c0 40 7 73.667 21 101c17.333 34 40 59.667 68 77s60.667 26 98 26c60 0.666992 110 -18.666 150 -57.999c37.333 -36.667 56.333 -87 57 -151c0 -27.333 -6.33301 -63.333 -19 -108h14
c10 -0.666992 20.333 -1.16699 31 -1.5s22 -0.833008 34 -1.5h14v-117h-15c-14.667 0.666992 -26.667 1.16699 -36 1.5s-16.333 0.5 -21 0.5l-74 8c-16.667 -37.333 -37 -72 -61 -104s-52.333 -62.333 -85 -91c-22.667 -20 -44.5 -36.5 -65.5 -49.5s-41.667 -23 -62 -30
s-39.833 -10.5 -58.5 -10.5c-77.333 -0.666992 -135.833 29 -175.5 89s-60.5 147.667 -62.5 263v15h92v-15zM690.002 1289c1.33301 -30.667 2.00098 -61.666 2.00098 -92.999c0 -36.667 6 -62.834 18 -78.501s30.667 -23.5 56 -23.5c23.333 0.666992 40.5 8 51.5 22
s16.833 37.667 17.5 71c0 20 -1.5 42.167 -4.5 66.5s-7.5 50.833 -13.5 79.5l-5 21l137 21l4 -17c14 -47.333 20.667 -101 20 -161c0.666992 -78.667 -16.166 -139.167 -50.499 -181.5s-84.833 -63.5 -151.5 -63.5c-51.333 -0.666992 -91 14 -119 44
c-32.667 -76.667 -92 -115 -178 -115c-8.66699 0 -16.667 0.333008 -24 1c-56.667 5.33301 -97.334 30 -122.001 74s-33 104.333 -25 181c0.666992 12 2.16699 26 4.5 42l7.5 53l4 20l127 -21l-4 -20c-7.33301 -33.333 -11 -69.333 -11 -108
c0.666992 -18.667 3 -33.5 7 -44.5s10 -18.667 18 -23s18.333 -6.16602 31 -5.49902c24 -0.666992 42.333 7.16602 55 23.499s19.667 43.833 21 82.5c1.33301 40 1.66602 90.667 0.999023 152v20h125z" />
    <glyph glyph-name="uni064B0651" unicode="&#x64d;&#x651;" 
d="M601 1901c1.33301 -30.667 2.00098 -61.666 2.00098 -92.999c0 -36.667 6 -62.834 18 -78.501s30.667 -23.5 56 -23.5c23.333 0.666992 40.5 8 51.5 22s16.833 37.667 17.5 71c0 20 -1.5 42.167 -4.5 66.5s-7.5 50.833 -13.5 79.5l-5 21l137 21l4 -17
c14 -47.333 20.667 -101 20 -161c0.666992 -78.667 -16.166 -139.167 -50.499 -181.5s-84.833 -63.5 -151.5 -63.5c-51.333 -0.666992 -91 14 -119 44c-32.667 -76.667 -92 -115 -178 -115c-8.66699 0 -16.667 0.333008 -24 1c-56.667 5.33301 -97.334 30 -122.001 74
s-33 104.333 -25 181c0.666992 12 2.16699 26 4.5 42l7.5 53l4 20l127 -21l-4 -20c-7.33301 -33.333 -11 -69.333 -11 -108c0.666992 -18.667 3 -33.5 7 -44.5s10 -18.667 18 -23s18.333 -6.16602 31 -5.49902c24 -0.666992 42.333 7.16602 55 23.499s19.667 43.833 21 82.5
c1.33301 40 1.66602 90.667 0.999023 152v20h125zM304.001 817.001v147l536 219v-147zM304.001 1097v147l536 219v-147z" />
    <glyph glyph-name="uni0651064E" unicode="&#x64e;&#x651;" 
d="M346 1545v147l536 219v-147zM708 1483c1.33301 -30.667 2.00098 -61.666 2.00098 -92.999c0 -36.667 6 -62.834 18 -78.501s30.667 -23.5 56 -23.5c23.333 0.666992 40.5 8 51.5 22s16.833 37.667 17.5 71c0 20 -1.5 42.167 -4.5 66.5s-7.5 50.833 -13.5 79.5l-5 21
l137 21l4 -17c14 -47.333 20.667 -101 20 -161c0.666992 -78.667 -16.166 -139.167 -50.499 -181.5s-84.833 -63.5 -151.5 -63.5c-51.333 -0.666992 -91 14 -119 44c-32.667 -76.667 -92 -115 -178 -115c-8.66699 0 -16.667 0.333008 -24 1
c-56.667 5.33301 -97.334 30 -122.001 74s-33 104.333 -25 181c0.666992 12 2.16699 26 4.5 42l7.5 53l4 20l127 -21l-4 -20c-7.33301 -33.333 -11 -69.333 -11 -108c0.666992 -18.667 3 -33.5 7 -44.5s10 -18.667 18 -23s18.333 -6.16602 31 -5.49902
c24 -0.666992 42.333 7.16602 55 23.499s19.667 43.833 21 82.5c1.33301 40 1.66602 90.667 0.999023 152v20h125z" />
    <glyph glyph-name="uni0651064F" unicode="&#x64f;&#x651;" 
d="M910 1610c-21.333 0 -43.998 0.999023 -67.998 2.99902c-34.667 3.33301 -57.667 5.33301 -69 6c-68.667 -94 -162 -159.333 -280 -196c-15.333 -5.33301 -30.833 -9.66602 -46.5 -12.999s-31.5 -6 -47.5 -8s-32 -3.66699 -48 -5l-16 -1v117l14 1
c110.667 5.33301 203.334 47 278.001 125l14 15c-26 7.33301 -50 16.666 -72 27.999c-18.667 9.33301 -34.834 19.833 -48.501 31.5s-25.167 24.5 -34.5 38.5c-20.667 32 -29.667 68.333 -27 109c3.33301 46 17.666 84.667 42.999 116c12 14.667 25.833 26.834 41.5 36.501
s32.667 17 51 22s38.5 7.83301 60.5 8.5c6 0 12.167 -0.166992 18.5 -0.5s12.666 -1.16602 18.999 -2.49902s12.666 -2.83301 18.999 -4.5s12.833 -3.83398 19.5 -6.50098c51.333 -21.333 86.333 -57.333 105 -108c10.667 -28 15.334 -56.333 14.001 -85
c0 -12.667 -1.33301 -27 -4 -43l-4 -17.5l-4 -16.5c-1.33301 -5.33301 -3 -11 -5 -17l-4 -13l14 -1c12.667 -0.666992 24.5 -1.16699 35.5 -1.5s21.5 -0.5 31.5 -0.5h15v-117h-15zM710.002 1750l0.99707 3c14.667 33.333 22 64.666 22 93.999c0 13.333 -2 24.833 -6 34.5
s-10 17.834 -18 24.501c-15.333 12.667 -34.666 19 -57.999 19c-8.66699 0 -16.5 -1 -23.5 -3s-13.167 -4.83301 -18.5 -8.5s-10.333 -8.5 -15 -14.5c-11.333 -15.333 -16.666 -33.333 -15.999 -54c0 -31.333 21 -55.333 63 -72c4 -1.33301 8.33301 -3 13 -5
s9.83398 -3.83301 15.501 -5.5s12 -3.66699 19 -6s14.167 -4.5 21.5 -6.5zM691.999 1323c1.33301 -30.667 2.00098 -61.666 2.00098 -92.999c0 -36.667 6 -62.834 18 -78.501s30.667 -23.5 56 -23.5c23.333 0.666992 40.5 8 51.5 22s16.833 37.667 17.5 71
c0 20 -1.5 42.167 -4.5 66.5s-7.5 50.833 -13.5 79.5l-5 21l137 21l4 -17c14 -47.333 20.667 -101 20 -161c0.666992 -78.667 -16.166 -139.167 -50.499 -181.5s-84.833 -63.5 -151.5 -63.5c-51.333 -0.666992 -91 14 -119 44c-32.667 -76.667 -92 -115 -178 -115
c-8.66699 0 -16.667 0.333008 -24 1c-56.667 5.33301 -97.334 30 -122.001 74s-33 104.333 -25 181c0.666992 12 2.16699 26 4.5 42l7.5 53l4 20l127 -21l-4 -20c-7.33301 -33.333 -11 -69.333 -11 -108c0.666992 -18.667 3 -33.5 7 -44.5s10 -18.667 18 -23
s18.333 -6.16602 31 -5.49902c24 -0.666992 42.333 7.16602 55 23.499s19.667 43.833 21 82.5c1.33301 40 1.66602 90.667 0.999023 152v20h125z" />
    <glyph glyph-name="uni064E0651" unicode="&#x650;&#x651;" 
d="M693 1858c1.33301 -30.667 2.00098 -61.666 2.00098 -92.999c0 -36.667 6 -62.834 18 -78.501s30.667 -23.5 56 -23.5c23.333 0.666992 40.5 8 51.5 22s16.833 37.667 17.5 71c0 20 -1.5 42.167 -4.5 66.5s-7.5 50.833 -13.5 79.5l-5 21l137 21l4 -17
c14 -47.333 20.667 -101 20 -161c0.666992 -78.667 -16.166 -139.167 -50.499 -181.5s-84.833 -63.5 -151.5 -63.5c-51.333 -0.666992 -91 14 -119 44c-32.667 -76.667 -92 -115 -178 -115c-8.66699 0 -16.667 0.333008 -24 1c-56.667 5.33301 -97.334 30 -122.001 74
s-33 104.333 -25 181c0.666992 12 2.16699 26 4.5 42l7.5 53l4 20l127 -21l-4 -20c-7.33301 -33.333 -11 -69.333 -11 -108c0.666992 -18.667 3 -33.5 7 -44.5s10 -18.667 18 -23s18.333 -6.16602 31 -5.49902c24 -0.666992 42.333 7.16602 55 23.499s19.667 43.833 21 82.5
c1.33301 40 1.66602 90.667 0.999023 152v20h125zM382.001 1087v147l536 219v-147z" />
    <glyph glyph-name="uni0654064E" unicode="&#x64e;&#x654;" 
d="M321 1708v147l536 219v-147zM401 1516c0 56 13.333 103.998 40 143.998c5.33301 8 11.333 15.667 18 23l10 10.5c3.33301 3.66699 7 6.83398 11 9.50098c25.333 22.667 53.333 39.667 84 51c14.667 6 30 10.333 46 13s32.667 4.33398 50 5.00098l7 -1
c30.667 0 60 -3.33301 88 -10c29.333 -7.33301 57.333 -18.333 84 -33l14 -8l1 -180l-39 18c-9.33301 4 -18.5 7.66699 -27.5 11l-26 9.5c-8.33301 3 -16.5 5.5 -24.5 7.5c-22.667 6 -43.667 8.66699 -63 8c-17.333 0 -32.666 -2.5 -45.999 -7.5s-25.333 -12.167 -36 -21.5
l-6 -6l-4 -6l-4 -6c-0.666992 -1.33301 -1.16699 -2.5 -1.5 -3.5s-0.833008 -2.16699 -1.5 -3.5l-2 -8c0 -1.33301 -0.166992 -2.66602 -0.5 -3.99902s-0.5 -3 -0.5 -5c-2 -23.333 4.33301 -43 19 -59c16 -18 42.667 -32.667 80 -44h3c0.666992 -0.666992 1.5 -1 2.5 -1h3.5
h8h4.5h5.5h6c1.33301 0.666992 2.66602 1 3.99902 1h4c1.33301 0 2.66602 0.166992 3.99902 0.5s2.83301 0.5 4.5 0.5s3.16699 0.333008 4.5 1c30.667 3.33301 71.334 10.666 122.001 21.999l33 8v-182l-481 -108v179l71 17c-46 46 -69 98.667 -69 158z" />
    <glyph glyph-name="uni0654064F" unicode="&#x64f;&#x654;" 
d="M920 1706c-21.333 0 -43.998 1 -67.998 3c-34.667 3.33301 -57.667 5.33301 -69 6c-68.667 -94 -162 -159.333 -280 -196c-15.333 -5.33301 -30.833 -9.66602 -46.5 -12.999s-31.5 -6 -47.5 -8s-32 -3.66699 -48 -5l-16 -1v117l14 1
c110.667 5.33301 203.334 47 278.001 125l14 15c-26 7.33301 -50 16.666 -72 27.999c-18.667 9.33301 -34.834 19.833 -48.501 31.5s-25.167 24.5 -34.5 38.5c-20.667 32 -29.667 68.333 -27 109c3.33301 46 17.666 84.667 42.999 116c12 14.667 25.833 26.834 41.5 36.5
c15.667 9.66699 32.667 17 51 22s38.5 7.83301 60.5 8.5c6 0 12.167 -0.166992 18.5 -0.5s12.666 -1.16602 18.999 -2.5c6.33301 -1.33301 12.666 -2.83301 18.999 -4.5s12.833 -3.83398 19.5 -6.5c51.333 -21.333 86.333 -57.333 105 -108
c10.667 -28 15.334 -56.333 14.001 -85c0 -12.667 -1.33301 -27 -4 -43l-4 -17.5l-4 -16.5c-1.33301 -5.33301 -3 -11 -5 -17l-4 -13l14 -1c12.667 -0.666992 24.5 -1.16699 35.5 -1.5s21.5 -0.5 31.5 -0.5h15v-117h-15zM720.002 1846l0.99707 3
c14.667 33.333 22 64.666 22 93.999c0 13.333 -2 24.833 -6 34.5s-10 17.834 -18 24.501c-15.333 12.667 -34.666 19 -57.999 19c-8.66699 0 -16.5 -1 -23.5 -3s-13.167 -4.83301 -18.5 -8.5s-10.333 -8.5 -15 -14.5c-11.333 -15.333 -16.666 -33.333 -15.999 -54
c0 -31.333 21 -55.333 63 -72c4 -1.33301 8.33301 -3 13 -5s9.83398 -3.83301 15.501 -5.5s12 -3.66699 19 -6s14.167 -4.5 21.5 -6.5zM393.999 1298c0 56 13.333 103.998 40 143.998c5.33301 8 11.333 15.667 18 23l10 10.5c3.33301 3.66699 7 6.83398 11 9.50098
c25.333 22.667 53.333 39.667 84 51c14.667 6 30 10.333 46 13s32.667 4.33398 50 5.00098l7 -1c30.667 0 60 -3.33301 88 -10c29.333 -7.33301 57.333 -18.333 84 -33l14 -8l1 -180l-39 18c-9.33301 4 -18.5 7.66699 -27.5 11l-26 9.5c-8.33301 3 -16.5 5.5 -24.5 7.5
c-22.667 6 -43.667 8.66699 -63 8c-17.333 0 -32.666 -2.5 -45.999 -7.5s-25.333 -12.167 -36 -21.5l-6 -6l-4 -6l-4 -6c-0.666992 -1.33301 -1.16699 -2.5 -1.5 -3.5s-0.833008 -2.16699 -1.5 -3.5l-2 -8c0 -1.33301 -0.166992 -2.66602 -0.5 -3.99902s-0.5 -3 -0.5 -5
c-2 -23.333 4.33301 -43 19 -59c16 -18 42.667 -32.667 80 -44h3c0.666992 -0.666992 1.5 -1 2.5 -1h3.5h8h4.5h5.5h6c1.33301 0.666992 2.66602 1 3.99902 1h4c1.33301 0 2.66602 0.166992 3.99902 0.5s2.83301 0.5 4.5 0.5s3.16699 0.333008 4.5 1
c30.667 3.33301 71.334 10.666 122.001 21.999l33 8v-182l-481 -108v179l71 17c-46 46 -69 98.667 -69 158z" />
    <glyph glyph-name="uni066E.fina" unicode="&#x66e;" horiz-adv-x="1957" 
d="M1964 276c46 0 68.334 -31 67.001 -93v-33v-18c0 -88 -22.333 -132 -67 -132h-12c-181.333 0 -301 54.667 -359 164c-130.667 -109.333 -359 -164 -685 -164h-2c-312.667 0 -526.334 41.667 -641.001 125c-132.667 96 -199 244.667 -199 446c0 93.333 14 181 42 263
l14 39l236 -62l-9 -42c-31.333 -150 -30.333 -261 3 -333c16.667 -36 42.334 -65 77.001 -87c75.333 -48.667 234.666 -73 477.999 -73c383.333 0.666992 589 83.667 617 249l28 169h211l29 -294c4 -43.333 18.167 -74.833 42.5 -94.5s63.5 -29.5 117.5 -29.5h12z" />
    <glyph glyph-name="uni066F.fina" unicode="&#x66f;" horiz-adv-x="1525" 
d="M1463 276l68.998 -0.00292969c29.333 -0.666992 49 -18 59 -52c5.33301 -17.333 8 -42 8 -74v-18c0 -16.667 -0.5 -31.167 -1.5 -43.5s-3.16699 -23.833 -6.5 -34.5c-10 -36 -29.667 -54 -59 -54h-84c-26.667 -184 -100.667 -323 -222 -417s-285.333 -140.667 -492 -140
c-216 0 -380.667 51.833 -494 155.5s-170 255.834 -170 456.501c-0.666992 160.667 36.333 320 111 478l18 39l241 -97l-16 -42c-58.667 -147.333 -87.667 -270.666 -87 -369.999c0 -79.333 14.167 -144.5 42.5 -195.5s72.5 -89.333 132.5 -115s137 -38.5 231 -38.5
c143.333 -0.666992 252 27.333 326 84c30.667 23.333 55.667 51.666 75 84.999s33 72.666 41 117.999h-98c-106 0.666992 -193.667 19.334 -263 56.001s-116.333 92.334 -141 167.001c-12 36 -18 76.333 -18 121s5.83301 89.334 17.5 134.001s28.834 89.667 51.501 135
c35.333 71.333 80.333 125.833 135 163.5s116.667 56.5 186 56.5c67.333 0 127.5 -16.833 180.5 -50.5s97.167 -82.5 132.5 -146.5c25.333 -46 45.833 -99 61.5 -159s26.834 -127.333 33.501 -202zM1097 279.997l97.999 -0.999023c-2.66699 27.333 -6 53 -10 77
s-8.5 45.167 -13.5 63.5s-10.667 35.166 -17 50.499s-13 28.166 -20 38.499s-14.167 18.833 -21.5 25.5c-9.33301 8.66699 -19 14.834 -29 18.501s-21.333 5.5 -34 5.5h-9c-32.667 -2.66699 -59.667 -29 -81 -79c-22 -49.333 -32 -92.333 -30 -129
c2.66699 -46.667 58.334 -70 167.001 -70z" />
    <glyph glyph-name="uni06A1.init" unicode="&#x6a1;" horiz-adv-x="913" 
d="M834 634c8.66699 -81.333 9.66699 -154.831 3 -220.498s-22.834 -124.167 -48.501 -175.5s-60.5 -93.333 -104.5 -126c-100.667 -74.667 -261 -112 -481 -112h-210c-37.333 0 -67 12.333 -89 37s-33 56.334 -33 95.001v18c0 37.333 11.167 67.666 33.5 90.999
s51.833 35 88.5 35h210c106.667 0 190.5 10.167 251.5 30.5s100.5 47.166 118.5 80.499l-51 -9.5c-16.667 -3 -32.834 -5.33301 -48.501 -7s-31.167 -3 -46.5 -4s-30.666 -1.16699 -45.999 -0.5c-106 0.666992 -188 28 -246 82s-86.667 131 -86 231c0 54 10 116.333 30 187
c10 36 23.333 69.667 40 101s36.334 60 59.001 86c64.667 72.667 147 109 247 109c66 0 127.333 -18.333 184 -55c124 -80.667 199 -238.334 225 -473.001zM530 652.002l36 7.99707c-3.33301 20 -7 38.5 -11 55.5s-8.33301 32.5 -13 46.5s-9.66699 26.667 -15 38
c-7.33301 16 -15 29.5 -23 40.5s-16.333 19.833 -25 26.5s-17.667 11.334 -27 14.001s-19.666 4 -30.999 4c-24 0 -44.5 -8.33301 -61.5 -25s-31.167 -45.667 -42.5 -87c-8 -27.333 -12 -50.666 -12 -69.999c0 -7.33301 0.5 -13.833 1.5 -19.5s2.83301 -11.167 5.5 -16.5
s6.5 -9.66602 11.5 -12.999s11.167 -6.33301 18.5 -9s16.166 -4.66699 26.499 -6s22.833 -2 37.5 -2c34 -0.666992 75.333 4.33301 124 15z" />
    <glyph glyph-name="uni06A1.medi" unicode="&#x6a1;" horiz-adv-x="1042" 
d="M443 675c-34.667 -34.667 -52 -70.6709 -52 -108.004c0 -6.66699 4.83301 -18.667 14.5 -36s24.167 -37.666 43.5 -60.999c14 -15.333 27.333 -28.333 40 -39s22 -17.5 28 -20.5s10.167 -4.5 12.5 -4.5s6.66602 1.5 12.999 4.5s15.833 9.83301 28.5 20.5
s25.834 23.834 39.501 39.501s25.167 30.834 34.5 45.501s15.666 25.834 18.999 33.501s5 13.5 5 17.5c0 38 -16 72.667 -48 104c-37.333 37.333 -67.666 56 -90.999 56c-9.33301 0 -21.5 -4 -36.5 -12s-31.833 -21.333 -50.5 -40zM526 131.996
c-131.333 -88 -295.67 -132 -493.003 -132h-40c-37.333 0 -67 12.333 -89 37s-33 56.334 -33 95.001v18c0 37.333 11.167 67.666 33.5 90.999s51.833 35 88.5 35h39c77.333 0.666992 150 9 218 25c-40 40.667 -70.333 84 -91 130s-31.334 94.333 -32.001 145
c-0.666992 79.333 18 150.166 56 212.499s93.333 114.833 166 157.5c60.667 35.333 121.334 53 182.001 53c13.333 0 26.5 -0.833008 39.5 -2.5s26 -4.16699 39 -7.5s25.833 -7.5 38.5 -12.5s25.334 -10.667 38.001 -17s25.167 -13.5 37.5 -21.5s24.666 -16.667 36.999 -26
s24.5 -19.333 36.5 -30c90.667 -79.333 136 -181.333 136 -306c0 -34 -4.83301 -67.167 -14.5 -99.5s-23.667 -63.166 -42 -92.499s-40.833 -57.333 -67.5 -84c66.667 -16 136.667 -24 210 -24h31c8 0 15.333 -1 22 -3s12.167 -5 16.5 -9s8.33301 -8.16699 12 -12.5
s6.33398 -10 8.00098 -17s3.16699 -12.833 4.5 -17.5s2.33301 -11 3 -19s1 -13.833 1 -17.5v-17v-13.5v-18v-12.5v-15.5c0 -4 -0.166992 -9.5 -0.5 -16.5s-0.833008 -13 -1.5 -18s-1.66699 -10.833 -3 -17.5s-3.16602 -12.167 -5.49902 -16.5s-5.16602 -9 -8.49902 -14
s-7.33301 -8.83301 -12 -11.5s-10 -5 -16 -7s-12.667 -3 -20 -3h-29c-199.333 0 -364.333 44 -495 132z" />
    <glyph glyph-name="uni06A1.fina" unicode="&#x6a1;" horiz-adv-x="2038" 
d="M907 276c44.667 0 86.998 0.999023 126.998 2.99902c20 0.666992 39.333 1.83398 58 3.50098s36.667 3.5 54 5.5c34 4 66 8.66699 96 14c0.666992 0.666992 1.33398 1 2.00098 1c-80.667 82 -121 175.667 -121 281c0 59.333 11.333 114 34 164s56.334 94.667 101.001 134
c28.667 25.333 57.667 46.666 87 63.999s59.333 30.5 90 39.5s61.667 13.5 93 13.5c45.333 0 90.333 -10 135 -30s88.334 -49 131.001 -87c17.333 -16 33.333 -32.333 48 -49c14 -17.333 26.667 -35.666 38 -54.999c5.33301 -10 10.333 -20 15 -30s8.66699 -20.333 12 -31
c7.33301 -20.667 12.666 -42 15.999 -64c4 -22.667 6 -45.667 6 -69c0 -53.333 -10.5 -103.833 -31.5 -151.5s-51.833 -91.834 -92.5 -132.501c66 -16 136 -24 210 -24h31c28.667 0 48.334 -17.333 59 -52c5.33301 -17.333 8 -42 8 -74v-18v-16v-20.5
c0 -4.33301 -0.333008 -11.333 -1 -21s-1.83398 -17.167 -3.5 -22.5c-1.66699 -5.33301 -4.16699 -11.833 -7.5 -19.5s-7.33301 -13.5 -12 -17.5s-10.667 -7.5 -18 -10.5s-15.666 -4.5 -25 -4.5h-29c-200 0 -365.333 45.333 -496 136c-142.667 -90.667 -347 -136 -613 -136
h-2c-313.333 0 -527 41.667 -641 125c-132.667 96 -199 244.667 -199 446c0 94.667 14 182.334 42 263.001l14 39l236 -62l-9 -42c-7.33301 -35.333 -12.833 -69.333 -16.5 -102s-5.5 -64 -5.5 -94c0 -106 33.333 -180.333 100 -223
c35.333 -22.667 93.833 -40.5 175.5 -53.5s183.167 -19.833 304.5 -20.5zM1525 726.999c-22 0 -52.334 -18.667 -91.001 -56c-10.667 -11.333 -19.667 -22.666 -27 -33.999c-3.33301 -6 -6.33301 -11.833 -9 -17.5s-4.66699 -11.167 -6 -16.5
c-3.33301 -11.333 -5 -23.333 -5 -36c0 -2.66699 1 -7 3 -13s5.33301 -13 10 -21c3.33301 -6 7.33301 -12.5 12 -19.5s10.167 -14.5 16.5 -22.5l21.5 -26c12.667 -14.667 24.834 -26.834 36.501 -36.501s20.5 -15.834 26.5 -18.501s10.333 -4 13 -4
c1.33301 0 3 0.333008 5 1s4.66699 1.66699 8 3c2 0.666992 4 1.66699 6 3l6 4c2 1.33301 4.33301 3 7 5s5.33398 4.33301 8.00098 7c5.33301 4.66699 11 10 17 16s12.333 13 19 21c14.667 16.667 27.167 32.667 37.5 48s17.166 27 20.499 35s5 14 5 18
c0 9.33301 -0.833008 18.333 -2.5 27s-4.5 17.334 -8.5 26.001c-8 18 -20 35 -36 51c-38 37.333 -69 56 -93 56z" />
    <glyph glyph-name="uni06CA.fina" unicode="&#x6ca;" horiz-adv-x="906" 
d="M109 1116l170 171l162 -162l162 162l171 -172l-170 -170l-162 162l-162 -162zM429 834c46 2 89.167 -3.66797 129.5 -17.001s77 -34.166 110 -62.499s61.833 -63.5 86.5 -105.5c18 -31.333 33.833 -66.333 47.5 -105s25 -80.167 34 -124.5s15.5 -92.166 19.5 -143.499h57
c7.33301 0 14 -1 20 -3s11.167 -4.83301 15.5 -8.5s8 -7.5 11 -11.5s5.5 -8.5 7.5 -13.5s3.5 -9.16699 4.5 -12.5s1.83301 -6.66602 2.5 -9.99902c4 -24.667 6 -50 6 -76v-9c0 -2 0.166992 -6.66699 0.5 -14s0.5 -13.333 0.5 -18s-0.333008 -10.834 -1 -18.501
s-1.5 -14.334 -2.5 -20.001s-2.5 -12 -4.5 -19s-4.66699 -12.667 -8 -17s-7.33301 -8.66602 -12 -12.999s-10.334 -7.5 -17.001 -9.5s-14.334 -3 -23.001 -3h-80c-38 -151.333 -110 -270.333 -216 -357c-37.333 -30 -81.166 -56.333 -131.499 -79s-106 -41.334 -167 -56.001
s-128.5 -26 -202.5 -34l-42 -4l-49 269l50 4c259.333 22 423 108 491 258l-86 1c-173.333 0 -293.666 46.333 -360.999 139c-36.667 50 -56.667 109.333 -60 178c-4.66699 95.333 18 194 68 296c33.333 67.333 75.5 119.833 126.5 157.5s109.5 58.167 175.5 61.5z
M490 279.999l97.9971 -1.00098c-3.33301 43.333 -8.66602 81.5 -15.999 114.5s-15.666 60 -24.999 81s-20.166 38 -32.499 51s-25 22 -38 27s-27.167 6.83301 -42.5 5.5c-32 -2 -59 -28.333 -81 -79c-21.333 -49.333 -31 -92.333 -29 -129c0 -8 1.5 -15 4.5 -21
s8.33301 -12.167 16 -18.5s17.5 -11.666 29.5 -15.999s27.833 -7.83301 47.5 -10.5s42.5 -4 68.5 -4z" />
    <glyph glyph-name="uni06D5.fina" unicode="&#x6d5;" horiz-adv-x="1092" 
d="M62 486c0 126 46.667 228.835 140 308.502s228 136.5 404 170.5l-5 56l256 34l85 -627c7.33301 -54.667 22.666 -93.667 45.999 -117s57.333 -35 102 -35h10c10.667 0 20.167 -1.83301 28.5 -5.5s14.833 -9 19.5 -16s8.33398 -13.833 11.001 -20.5s4.5 -15.167 5.5 -25.5
s1.66699 -18.333 2 -24s0.5 -12.834 0.5 -21.501v-8v-23v-11c1.33301 -80.667 -21 -121 -67 -121h-13c-84.667 0 -157.5 19.167 -218.5 57.5s-107.167 94.166 -138.5 167.499c-19.333 -12.667 -39.333 -23.5 -60 -32.5s-42.167 -16.5 -64.5 -22.5s-45.333 -10.5 -69 -13.5
s-48.167 -4.5 -73.5 -4.5c-132.667 -0.666992 -234.667 33.333 -306 102c-63.333 60.667 -95 138 -95 232zM642 702.002c-56 -10.667 -104.331 -23.332 -144.998 -37.999s-72.667 -30.667 -96 -48s-40.5 -35 -51.5 -53s-16.5 -37 -16.5 -57
c-0.666992 -29.333 8 -50.666 26 -63.999c9.33301 -7.33301 22.833 -13.333 40.5 -18s39.167 -7 64.5 -7c10.667 0 21 0.333008 31 1l29 2c8.66699 1.33301 16.667 3 24 5c8 1.33301 15.333 3 22 5s12.667 4.33301 18 7c3.33301 1.33301 6.16602 2.66602 8.49902 3.99902
s4.83301 2.66602 7.5 3.99902c25.333 16 42.666 35 51.999 57s11 50.667 5 86z" />
    <glyph glyph-name="uniFB56" unicode="&#x67e;" horiz-adv-x="1819" arabic-form="isolated" 
d="M907 276c18 0 35.6719 0.169922 53.0049 0.50293s34.166 0.833008 50.499 1.5l47.5 2c15.333 0.666992 30.166 1.5 44.499 2.5s28.333 2.16699 42 3.5s26.834 2.83301 39.501 4.5s24.667 3.5 36 5.5c78 12 134.333 29.667 169 53c68 45.333 101.667 119.666 101 222.999
c-0.666992 31.333 -2.83398 63.5 -6.50098 96.5s-9.16699 66.833 -16.5 101.5l-8 41l236 62l13 -39c14 -40.667 24.667 -83 32 -127c6.66699 -44 10 -89.333 10 -136c0 -50.667 -4 -97.834 -12 -141.501s-20.333 -84.167 -37 -121.5c-33.333 -76 -83.333 -137.333 -150 -184
c-119.333 -82.667 -333 -124 -641 -124h-4c-312.667 0 -526.334 41.667 -641.001 125c-66.667 48 -116.5 109.667 -149.5 185s-49.5 162.333 -49.5 261c0 94 14 181.667 42 263l14 39l236 -62l-9 -42c-14.667 -70 -22 -135.333 -22 -196c0 -28 2.16699 -53.5 6.5 -76.5
s10.666 -43.667 18.999 -62s18.666 -34.333 30.999 -48s26.833 -25.834 43.5 -36.501c35.333 -22.667 93.833 -40.5 175.5 -53.5s183.167 -19.833 304.5 -20.5zM557.039 -299.813l179.751 179.751l173.331 -173.331l173.331 173.331l178.682 -178.681l-179.752 -180.821
l-173.331 173.331l-173.331 -173.331zM728.23 -600.468l179.751 179.75l178.681 -179.75l-179.751 -179.752z" />
    <glyph glyph-name="uniFB57" unicode="&#x67e;" horiz-adv-x="1957" arabic-form="final" 
d="M550.034 -299.816l179.751 179.751l173.331 -173.331l173.331 173.331l178.682 -178.681l-179.752 -180.821l-173.331 173.331l-173.331 -173.331zM721.226 -600.471l179.751 179.75l178.681 -179.75l-179.751 -179.752zM1964 276c46 0 68.334 -31 67.001 -93v-33v-18
c0 -88 -22.333 -132 -67 -132h-12c-181.333 0 -301 54.667 -359 164c-130.667 -109.333 -359 -164 -685 -164h-2c-312.667 0 -526.334 41.667 -641.001 125c-132.667 96 -199 244.667 -199 446c0 93.333 14 181 42 263l14 39l236 -62l-9 -42
c-31.333 -150 -30.333 -261 3 -333c16.667 -36 42.334 -65 77.001 -87c75.333 -48.667 234.666 -73 477.999 -73c383.333 0.666992 589 83.667 617 249l28 169h211l29 -294c4 -43.333 18.167 -74.833 42.5 -94.5s63.5 -29.5 117.5 -29.5h12z" />
    <glyph glyph-name="uniFB58" unicode="&#x67e;" horiz-adv-x="679" arabic-form="initial" 
d="M-7 0c-37.333 0 -67.001 12.334 -89.001 37.001s-33 56.334 -33 95.001v18c0 37.333 11.167 67.666 33.5 90.999s51.833 35 88.5 35h100c68.667 0 122 8.33301 160 25c37.333 16.667 59.666 46 66.999 88c4.66699 29.333 7 61.666 7 96.999
c-0.666992 81.333 -14.334 178 -41.001 290l-12 46l262 47l12 -39c42 -148 56.333 -298.333 43 -451c-3.33301 -37.333 -9.66602 -72 -18.999 -104s-22.166 -61.667 -38.499 -89s-35.833 -51.333 -58.5 -72c-83.333 -76 -210.666 -114 -381.999 -114h-100z
M-72.9668 -299.815l179.751 179.751l173.331 -173.331l173.331 173.331l178.682 -178.681l-179.752 -180.821l-173.331 173.331l-173.331 -173.331zM98.2246 -600.47l179.751 179.75l178.681 -179.75l-179.751 -179.752z" />
    <glyph glyph-name="uniFB59" unicode="&#x67e;" horiz-adv-x="733" arabic-form="medial" 
d="M-72.9658 -299.816l179.751 179.751l173.331 -173.331l173.331 173.331l178.682 -178.681l-179.752 -180.821l-173.331 173.331l-173.331 -173.331zM98.2256 -600.471l179.751 179.75l178.681 -179.75l-179.751 -179.752zM573 399
c4.66699 -43.333 18.999 -74.6699 42.999 -94.0029s63 -29 117 -29h7c44.667 0 67 -44.667 67 -134v-10c0 -88 -22.333 -132 -67 -132h-9c-135.333 0 -235.666 41.333 -300.999 124c-83.333 -82.667 -199 -124 -347 -124h-91c-37.333 0 -66.833 12.333 -88.5 37
s-32.5 56.334 -32.5 95.001v18c0 36.667 11 66.834 33 90.501s51.333 35.5 88 35.5h86c35.333 0 65.666 2.66699 90.999 8s45.833 13.5 61.5 24.5s27.334 23.833 35.001 38.5s12.5 32.334 14.5 53.001l30 294h234z" />
    <glyph glyph-name="uniFB7A" unicode="&#x686;" horiz-adv-x="1361" arabic-form="isolated" 
d="M624 604c-94 18.667 -160.999 25.3369 -200.999 20.0039c-38.667 -4.66699 -78.334 -33.334 -119.001 -86.001l-53 -67l-218 129l41 67c28.667 48 59.334 88.667 92.001 122s68.167 59.833 106.5 79.5s78.5 31.167 120.5 34.5c81.333 6.66699 219.333 -19 414 -77
c62 -18.667 120 -34.5 174 -47.5s103.833 -23.5 149.5 -31.5s87.167 -13.333 124.5 -16l45 -3l-19 -260l-39 -3c-106 -8.66699 -177 -16 -213 -22c-156.667 -30.667 -287 -71.667 -391 -123c-50.667 -25.333 -94.667 -53 -132 -83s-68.333 -62 -93 -96
c-24 -34.667 -42.167 -71.334 -54.5 -110.001s-18.5 -80 -18.5 -124c0 -108 39.167 -189 117.5 -243s203.833 -81 376.5 -81c126 -0.666992 249 19.333 369 60l49 16l53 -265l-37 -13c-27.333 -9.33301 -55 -17.666 -83 -24.999l-42 -10
c-14 -3.33301 -28.333 -6.33301 -43 -9c-9.33301 -2 -18.833 -3.83301 -28.5 -5.5s-19.5 -3.16699 -29.5 -4.5l-30 -4c-14.667 -1.33301 -29.5 -2.83301 -44.5 -4.5s-30.167 -2.83398 -45.5 -3.50098c-10 -0.666992 -20.167 -1.16699 -30.5 -1.5l-31 -1
c-10.333 -0.333008 -20.5 -0.5 -30.5 -0.5c-244.667 -0.666992 -431.334 49.166 -560.001 149.499s-193 249.166 -193 446.499c0 165.333 46.5 306.5 139.5 423.5s228.833 207.833 407.5 272.5zM477.035 101.187l179.751 179.751l173.331 -173.331l173.331 173.331
l178.682 -178.681l-179.752 -180.821l-173.331 173.331l-173.331 -173.331zM648.227 -199.468l179.751 179.75l178.681 -179.75l-179.751 -179.752z" />
    <glyph glyph-name="uniFB7B" unicode="&#x686;" horiz-adv-x="1381" arabic-form="final" 
d="M384.579 24.1016l159.53 159.53l153.833 -153.833l153.833 153.833l158.58 -158.581l-159.529 -160.479l-153.833 153.833l-153.833 -153.833zM536.513 -242.732l159.53 159.531l158.581 -159.531l-159.53 -159.529zM1300 728l-18.998 -260l-39 -3
c-51.333 -4 -98.666 -8.66699 -141.999 -14c6 -60.667 29.667 -105.167 71 -133.5s106 -42.166 194 -41.499h23c21.333 0 38 -9.66699 50 -29c4 -6.66699 6.83301 -13.167 8.5 -19.5s3.16699 -13.833 4.5 -22.5c2.66699 -14 4 -30.667 4 -50v-23v-11
c-0.666992 -9.33301 -0.833984 -19.166 -0.500977 -29.499s-0.666992 -20.833 -3 -31.5s-5.5 -20.5 -9.5 -29.5s-10.667 -16.333 -20 -22s-20.666 -8.5 -33.999 -8.5h-22c-166 0 -292 37.667 -378 113c-77.333 67.333 -121 163.666 -131 288.999
c-176.667 -50.667 -306.834 -117.167 -390.501 -199.5s-125.834 -180.833 -126.501 -295.5c0 -108 39.167 -189 117.5 -243s203.833 -81 376.5 -81c126 -0.666992 249 19.333 369 60l49 16l53 -265l-37 -13c-137.333 -46.667 -283.666 -69.667 -438.999 -69
c-247.333 0.666992 -434 50 -560 148c-129.333 101.333 -193.333 251.333 -192 450c0.666992 92.667 16 178 46 256c30 78.667 75 149.334 135 212.001c59.333 62 132.666 115.667 219.999 161c45.333 23.333 94.666 44.666 147.999 63.999
c-95.333 19.333 -163 26.333 -203 21c-38.667 -4.66699 -78.334 -33.334 -119.001 -86.001l-53 -67l-218 129l41 67c28.667 48 59.334 88.667 92.001 122s68.167 59.833 106.5 79.5s78.5 31.167 120.5 34.5c81.333 6.66699 219.333 -19 414 -77
c62 -18.667 120 -34.5 174 -47.5s103.833 -23.5 149.5 -31.5s87.167 -13.333 124.5 -16z" />
    <glyph glyph-name="uniFB7C" unicode="&#x686;" horiz-adv-x="1354" arabic-form="initial" 
d="M-7 0c-37.333 0 -67.001 12.3369 -89.001 37.0039s-33 56.334 -33 95.001v18c0 37.333 11.167 67.666 33.5 90.999s51.833 35 88.5 35h59c228.667 0 433 52.333 613 157l199 115l-182 52c-121.333 34.667 -204.333 49.667 -249 45
c-38 -4.66699 -77.667 -33.334 -119 -86.001l-52 -68l-218 129l41 68c43.333 71.333 91.5 127.166 144.5 167.499s110.833 63.166 173.5 68.499c44 3.33301 99.667 -2.33398 167 -17.001s150 -38.334 248 -71.001c185.333 -62 334.333 -96.667 447 -104l43 -3l-3 -234
l-36 -6c-12.667 -4 -52.667 -26.667 -120 -68s-150.666 -95.666 -249.999 -162.999c-256 -172 -536 -258 -840 -258h-66zM446.033 -299.812l179.751 179.751l173.331 -173.331l173.331 173.331l178.682 -178.681l-179.752 -180.821l-173.331 173.331l-173.331 -173.331z
M617.225 -600.467l179.751 179.75l178.681 -179.75l-179.751 -179.752z" />
    <glyph glyph-name="uniFB7D" unicode="&#x686;" horiz-adv-x="1424" arabic-form="medial" 
d="M893 255c-259.333 -170 -537.329 -254.992 -833.996 -254.992h-66c-37.333 0 -67 12.333 -89 37s-33 56.334 -33 95.001v18c0 37.333 11.167 67.666 33.5 90.999s51.833 35 88.5 35h59c228.667 0 433 52.333 613 157l199 115l-182 52
c-121.333 34.667 -204.333 49.667 -249 45c-38 -4.66699 -77.667 -33.334 -119 -86.001l-52 -68l-218 129l41 68c43.333 71.333 91.5 127.166 144.5 167.499s110.833 63.166 173.5 68.499c44 3.33301 99.667 -2.33398 167 -17.001s150 -38.334 248 -71.001
c185.333 -62 334.333 -96.667 447 -104l43 -3l-3 -233l-35 -7c-19.333 -6 -76.333 -39 -171 -99c15.333 -76 109.666 -114 282.999 -114h14c8 0 15.167 -0.833008 21.5 -2.5s11.833 -4.66699 16.5 -9s8.66699 -8.33301 12 -12s6 -9.16699 8 -16.5s3.66699 -13 5 -17
s2.16602 -10.167 2.49902 -18.5s0.666016 -13.833 0.999023 -16.5s0.333008 -8.16699 0 -16.5l-0.5 -12.5v-23c0 -2 0.166992 -6.66699 0.5 -14s0.5 -13.333 0.5 -18s-0.333008 -10.834 -1 -18.501s-1.5 -14.334 -2.5 -20.001s-2.5 -11.834 -4.5 -18.501
s-4.66699 -12.334 -8 -17.001s-7.33301 -9.16699 -12 -13.5s-10.334 -7.5 -17.001 -9.5s-14.334 -3 -23.001 -3h-18c-64.667 0 -123.334 5 -176.001 15s-99.667 25.333 -141 46s-76.166 47.334 -104.499 80.001s-49.166 70.667 -62.499 114zM388.038 -299.809
l179.751 179.751l173.331 -173.331l173.331 173.331l178.682 -178.681l-179.752 -180.821l-173.331 173.331l-173.331 -173.331zM559.229 -600.463l179.751 179.75l178.681 -179.75l-179.751 -179.752z" />
    <glyph glyph-name="uniFB8A" unicode="&#x698;" horiz-adv-x="878" arabic-form="isolated" 
d="M355 563l245.997 117.999l21 -38c92 -166.667 137.333 -326.334 136 -479.001c-0.666992 -71.333 -10.667 -139.333 -30 -204c-5.33301 -16 -11 -32 -17 -48s-12.667 -31.667 -20 -47s-15.166 -30.5 -23.499 -45.5s-17.166 -29.5 -26.499 -43.5
c-114.667 -173.333 -315 -274 -601 -302l-42 -4l-48 267l49 5c203.333 20.667 345.333 87.667 426 201c42.667 60 63.667 128 63 204c0 30.667 -2.16699 61.334 -6.5 92.001s-11.166 61.334 -20.499 92.001c-18.667 62.667 -46 126 -82 190zM123.031 898.874
l178.681 178.682l173.331 -173.331l173.331 173.331l179.752 -179.751l-178.682 -178.681l-173.331 173.331l-173.331 -173.331zM294.223 1199.53l178.681 178.681l179.751 -179.75l-178.681 -178.682z" />
    <glyph glyph-name="uniFB8B" unicode="&#x698;" horiz-adv-x="892" arabic-form="final" 
d="M123.034 898.875l178.681 178.682l173.331 -173.331l173.331 173.331l179.752 -179.751l-178.682 -178.681l-173.331 173.331l-173.331 -173.331zM294.226 1199.53l178.681 178.681l179.751 -179.75l-178.681 -178.682zM729 403
c20 -45.333 41.998 -77.8301 65.998 -97.4971s50.333 -29.5 79 -29.5h26c6.66699 0 13 -0.833008 19 -2.5s11.167 -3.83398 15.5 -6.50098s8.33301 -6.33398 12 -11.001s6.5 -9 8.5 -13s3.83301 -9.16699 5.5 -15.5l4 -15.5c1 -4 1.66699 -9.66699 2 -17
s0.5 -12.333 0.5 -15v-14v-11v-23v-12.5v-15.5c0 -4 -0.166992 -9.5 -0.5 -16.5s-0.833008 -13 -1.5 -18s-1.66699 -10.833 -3 -17.5s-3.16602 -12.167 -5.49902 -16.5s-5.16602 -9 -8.49902 -14s-7.33301 -8.83301 -12 -11.5s-10 -5 -16 -7s-12.667 -3 -20 -3h-16
c-58.667 0 -107.667 9.33301 -147 28c-8.66699 -47.333 -21.5 -92 -38.5 -134s-37.833 -81.667 -62.5 -119c-115.333 -172.667 -314 -273 -596 -301l-42 -4l-48 267l49 5c202.667 20 344.667 87 426 201c42.667 60 63.667 128 63 204
c0 123.333 -36.333 247.666 -109 372.999l-24 43l249 119z" />
    <glyph glyph-name="uniFB8E" unicode="&#x6a9;" horiz-adv-x="1878" arabic-form="isolated" 
d="M1082 0h-175.998c-312.667 0 -526.334 41.667 -641.001 125c-132.667 96 -199 244.667 -199 446c0 94 14 181.667 42 263l14 39l236 -62l-9 -42c-14.667 -71.333 -22 -134.333 -22 -189c0.666992 -113.333 33.667 -190 99 -230
c81.333 -48.667 240.666 -73.334 477.999 -74.001h177c224.667 0 337 43.333 337 130c0.666992 38 -28.333 91.333 -87 160c-106.667 126 -196.667 224.833 -270 296.5s-110 145.5 -110 221.5c0 106.667 54.333 181.334 163 224.001l746 295v-289l-624 -242
c117.333 -122 222 -237 314 -345s137.667 -211 137 -309c-2 -278.667 -203.667 -418 -605 -418z" />
    <glyph glyph-name="uniFB8F" unicode="&#x6a9;" horiz-adv-x="1934" arabic-form="final" 
d="M1926 0c-124 0 -237.668 59.001 -341.001 177.001c-78 -118 -247.667 -177 -509 -177h-170c-306 0 -522.333 43.667 -649 131s-190.334 234 -191.001 440c0 94 14 181.667 42 263l14 39l236 -62l-9 -42c-14.667 -70 -21.667 -132.333 -21 -187
c1.33301 -110.667 34.666 -188.334 99.999 -233.001c70.667 -48.667 231.334 -73 482.001 -73h165c202.667 0 306 34.667 310 104c0.666992 24 -8.66602 50.333 -27.999 79s-40 57 -62 85l-264 338c-54 68.667 -82 132 -84 190c-3.33301 114.667 51 194 163 238l746 293
v-289l-632 -244l513 -654c72.667 -93.333 132.334 -140 179.001 -140h25c45.333 0 68 -42 68 -126v-18v-16v-21c-1.33301 -63.333 -24 -95 -68 -95h-15z" />
    <glyph glyph-name="uniFB90" unicode="&#x6a9;" horiz-adv-x="964" arabic-form="initial" 
d="M322 1072l74.002 -78.4971l71 -76.5l163 -183c95.333 -112.667 142.666 -221.334 141.999 -326.001c-0.666992 -136.667 -53.334 -238.834 -158.001 -306.501s-253.334 -101.5 -446.001 -101.5h-175c-37.333 0 -67 12.333 -89 37s-33 56.334 -33 95.001v18
c0 37.333 11.167 67.666 33.5 90.999s51.833 35 88.5 35h174c120 0 209 13.333 267 40c26 11.333 44.167 24.166 54.5 38.499s15.5 31.5 15.5 51.5c0 38 -29 91.333 -87 160c-107.333 126 -198.666 225.667 -273.999 299c-71.333 70 -107 143 -107 219
c0 52 14.333 97.167 43 135.5s69 67.833 121 88.5l746 295v-289z" />
    <glyph glyph-name="uniFB91" unicode="&#x6a9;" horiz-adv-x="1026" arabic-form="medial" 
d="M828 416c37.333 -48 71.666 -83.334 102.999 -106.001s57 -34 77 -34h25c8 0 15.333 -1 22 -3s12.167 -5 16.5 -9s8.33301 -8.16699 12 -12.5s6.5 -10 8.5 -17l5 -17.5c1.33301 -4.66699 2.16602 -11 2.49902 -19s0.5 -13.833 0.5 -17.5v-17v-13.5v-18
c0 -17.333 -0.5 -32.166 -1.5 -44.499s-3.16699 -23.5 -6.5 -33.5c-10 -36 -29.667 -54 -59 -54h-16c-124 0 -237.667 59 -341 177c-77.333 -118 -246.666 -177 -507.999 -177h-175c-37.333 -0 -67 12.333 -89 37s-33 56.334 -33 95.001v18
c0 37.333 11.167 67.666 33.5 90.999s51.833 35 88.5 35h174c11.333 0 22.333 0.166992 33 0.5l31.5 1c10.333 0.333008 20.166 0.833008 29.499 1.5l28 2c17.333 1.33301 33.333 3.16602 48 5.49902s28.334 5.16602 41.001 8.49902c22.667 6 40.667 13 54 21
c16 10 27.167 19.833 33.5 29.5s9.83301 21.167 10.5 34.5c0.666992 22.667 -4.66602 43 -15.999 61l-14 21l-13.5 19.5l-12.5 18c-4 5.66699 -8 11 -12 16s-7.66699 9.83301 -11 14.5l-10 14l-265 338c-54 68.667 -81.667 134 -83 196
c-1.33301 22 0.166992 42.833 4.5 62.5s11 37.834 20 54.501s20.167 32.334 33.5 47.001s28.833 27.667 46.5 39s37.167 21 58.5 29l745 293v-289l-631 -244z" />
    <glyph glyph-name="uniFB92" unicode="&#x6af;" horiz-adv-x="1878" arabic-form="isolated" 
d="M1082 0h-175.998c-312.667 0 -526.334 41.667 -641.001 125c-132.667 96 -199 244.667 -199 446c0 94 14 181.667 42 263l14 39l236 -62l-9 -42c-14.667 -71.333 -22 -134.333 -22 -189c0.666992 -113.333 33.667 -190 99 -230
c81.333 -48.667 240.666 -73.334 477.999 -74.001h177c224.667 0 337 43.333 337 130c0.666992 38 -28.333 91.333 -87 160c-106.667 126 -196.667 224.833 -270 296.5s-110 145.5 -110 221.5c0 106.667 54.333 181.334 163 224.001l746 295v-289l-624 -242
c117.333 -122 222 -237 314 -345s137.667 -211 137 -309c-2 -278.667 -203.667 -418 -605 -418zM1832.11 1699.33l-815.3 -330.613v163.702l815.3 330.613v-163.702z" />
    <glyph glyph-name="uniFB93" unicode="&#x6af;" horiz-adv-x="1934" arabic-form="final" 
d="M1926 0c-124 0 -237.668 59.001 -341.001 177.001c-78 -118 -247.667 -177 -509 -177h-170c-306 0 -522.333 43.667 -649 131s-190.334 234 -191.001 440c0 94 14 181.667 42 263l14 39l236 -62l-9 -42c-14.667 -70 -21.667 -132.333 -21 -187
c1.33301 -110.667 34.666 -188.334 99.999 -233.001c70.667 -48.667 231.334 -73 482.001 -73h165c202.667 0 306 34.667 310 104c0.666992 24 -8.66602 50.333 -27.999 79s-40 57 -62 85l-264 338c-54 68.667 -82 132 -84 190c-3.33301 114.667 51 194 163 238l746 293
v-289l-632 -244l513 -654c72.667 -93.333 132.334 -140 179.001 -140h25c45.333 0 68 -42 68 -126v-18v-16v-21c-1.33301 -63.333 -24 -95 -68 -95h-15zM1825.11 1701.33l-815.3 -330.613v163.702l815.3 330.613v-163.702z" />
    <glyph glyph-name="uniFB94" unicode="&#x6af;" horiz-adv-x="964" arabic-form="initial" 
d="M322 1072l74.002 -78.4971l71 -76.5l163 -183c95.333 -112.667 142.666 -221.334 141.999 -326.001c-0.666992 -136.667 -53.334 -238.834 -158.001 -306.501s-253.334 -101.5 -446.001 -101.5h-175c-37.333 0 -67 12.333 -89 37s-33 56.334 -33 95.001v18
c0 37.333 11.167 67.666 33.5 90.999s51.833 35 88.5 35h174c120 0 209 13.333 267 40c26 11.333 44.167 24.166 54.5 38.499s15.5 31.5 15.5 51.5c0 38 -29 91.333 -87 160c-107.333 126 -198.666 225.667 -273.999 299c-71.333 70 -107 143 -107 219
c0 52 14.333 97.167 43 135.5s69 67.833 121 88.5l746 295v-289zM916.112 1701.33l-815.3 -330.613v163.702l815.3 330.613v-163.702z" />
    <glyph glyph-name="uniFB95" unicode="&#x6af;" horiz-adv-x="1026" arabic-form="medial" 
d="M828 416c37.333 -48 71.666 -83.334 102.999 -106.001s57 -34 77 -34h25c8 0 15.333 -1 22 -3s12.167 -5 16.5 -9s8.33301 -8.16699 12 -12.5s6.5 -10 8.5 -17l5 -17.5c1.33301 -4.66699 2.16602 -11 2.49902 -19s0.5 -13.833 0.5 -17.5v-17v-13.5v-18
c0 -17.333 -0.5 -32.166 -1.5 -44.499s-3.16699 -23.5 -6.5 -33.5c-10 -36 -29.667 -54 -59 -54h-16c-124 0 -237.667 59 -341 177c-77.333 -118 -246.666 -177 -507.999 -177h-175c-37.333 -0 -67 12.333 -89 37s-33 56.334 -33 95.001v18
c0 37.333 11.167 67.666 33.5 90.999s51.833 35 88.5 35h174c11.333 0 22.333 0.166992 33 0.5l31.5 1c10.333 0.333008 20.166 0.833008 29.499 1.5l28 2c17.333 1.33301 33.333 3.16602 48 5.49902s28.334 5.16602 41.001 8.49902c22.667 6 40.667 13 54 21
c16 10 27.167 19.833 33.5 29.5s9.83301 21.167 10.5 34.5c0.666992 22.667 -4.66602 43 -15.999 61l-14 21l-13.5 19.5l-12.5 18c-4 5.66699 -8 11 -12 16s-7.66699 9.83301 -11 14.5l-10 14l-265 338c-54 68.667 -81.667 134 -83 196
c-1.33301 22 0.166992 42.833 4.5 62.5s11 37.834 20 54.501s20.167 32.334 33.5 47.001s28.833 27.667 46.5 39s37.167 21 58.5 29l745 293v-289l-631 -244zM915.11 1701.32l-815.3 -330.613v163.702l815.3 330.613v-163.702z" />
    <glyph glyph-name="uniFB9E" unicode="&#x6ba;" horiz-adv-x="1485" arabic-form="isolated" 
d="M733 -181c140 0 242.501 31.833 307.501 95.5s97.167 163.5 96.5 299.5c0 55.333 -7 117 -21 185s-35 141.333 -63 220l-15 43l255 89l15 -41c66.667 -179.333 99.667 -355.666 99 -528.999c0 -112.667 -23.667 -217.667 -71 -315
c-50.667 -106 -127.834 -185.5 -231.501 -238.5s-230.834 -79.5 -381.501 -79.5c-136.667 0.666992 -253.167 22.667 -349.5 66s-170.166 108.666 -221.499 195.999c-18 32 -33.167 66 -45.5 102s-21.5 73.833 -27.5 113.5s-9 81.167 -9 124.5
c-0.666992 147.333 36 309.666 110 486.999l17 41l243 -98l-16 -41c-58.667 -147.333 -87.667 -271 -87 -371c0.666992 -119.333 32.667 -207.166 96 -263.499s163.333 -84.833 300 -85.5z" />
    <glyph glyph-name="uniFB9F" unicode="&#x6ba;" horiz-adv-x="1562" arabic-form="final" 
d="M1570 276c44.667 0 67 -40.333 67 -121v-23c0 -88 -22.333 -132 -67 -132h-23c-50.667 0 -98.667 12.667 -144 38c-8.66699 -84.667 -30.334 -163.334 -65.001 -236.001c-35.333 -73.333 -82 -134 -140 -182c-115.333 -95.333 -273.666 -142.666 -474.999 -141.999
c-280 0.666992 -470.667 89.667 -572 267c-54 94 -81.167 209.833 -81.5 347.5s36.5 295.5 110.5 473.5l17 41l243 -97l-16 -42c-58.667 -147.333 -87.667 -276 -87 -386s33 -193.333 97 -250s165 -84.5 303 -83.5s239 33.5 303 97.5c64 63.333 96.333 156.333 97 279
c0.666992 122 -27.333 263 -84 423l-15 43l256 90l85 -262c16 -50 38 -86.333 66 -109c27.333 -22.667 63 -34 107 -34h18z" />
    <glyph glyph-name="uniFBAC" unicode="&#x6be;" horiz-adv-x="1361" arabic-form="initial" 
d="M855 638c42.667 -104 31.668 -207.001 -32.999 -309.001c-12 -18.667 -26 -36 -42 -52c89.333 -9.33301 154.666 -7.66602 195.999 5.00098c42.667 13.333 65 49 67 107c2.66699 60.667 -60 143.667 -188 249zM540.001 846.999c-28 17.333 -72.335 38 -133.002 62
l124 225c428 -235.333 674 -431 738 -587c20 -49.333 30 -99.666 30 -150.999c0 -60.667 -14.333 -122.667 -43 -186c-63.333 -139.333 -192.666 -209 -387.999 -209c-107.333 -0.666992 -232.666 21.333 -375.999 66c-152.667 -44.667 -286.334 -67 -401.001 -67h-98
c-37.333 -0 -67 12.333 -89 37s-33 56.334 -33 95.001v18c0 37.333 11.333 67.666 34 90.999c22 23.333 51.333 35 88 35h178c-51.333 64 -76.666 139 -75.999 225c0.666992 83.333 32.667 162.666 96 237.999c63.333 74.667 160 112 290 112c20 0 39.667 -1.33301 59 -4z
M490.999 347.999c98.667 47.333 147.666 99.333 146.999 156c-0.666992 42 -16 74.667 -46 98c-21.333 16.667 -48.333 25 -81 25c-60.667 0 -103.667 -21 -129 -63c-12 -20.667 -18 -43.334 -18 -68.001c0.666992 -41.333 26.334 -80.666 77.001 -117.999
c18 -14 34.667 -24 50 -30z" />
    <glyph glyph-name="uniFBAD" unicode="&#x6be;" horiz-adv-x="975" arabic-form="medial" 
d="M388 4c18.667 -80 49.9961 -143.335 93.9961 -190.002c138 308 297.667 462 479 462h21c46.667 0 69 -42 67 -126v-18c0.666992 -10.667 0.833984 -16 0.500977 -16s-0.166016 -7 0.500977 -21c0 -4.66699 -0.666992 -11.667 -2 -21
c-0.666992 -9.33301 -1.66699 -16.666 -3 -21.999c-10 -34.667 -31 -52 -63 -52h-23c-96.667 0 -163 -31.667 -199 -95s-48.333 -158.333 -37 -285l2 -21l-157 -151l-27 12c-219.333 96 -354.666 276 -405.999 540h-142c-37.333 0 -67 12.333 -89 37s-33 56.334 -33 95.001
v18c0 37.333 11.167 67.666 33.5 90.999s51.833 35 88.5 35h125c18.667 276 78.334 468.333 179.001 577c60 64.667 135.667 97 227 97c104.667 0 184.667 -41.333 240 -124c42.667 -64 62.667 -148.333 60 -253c-1.33301 -60.667 -14 -124 -38 -190
c-73.333 -197.333 -206 -323.666 -398 -378.999zM372.996 280.998c53.333 11.333 103 41.334 149 90.001s69 117.667 69 207c0 66 -21 99.333 -63 100c-29.333 0.666992 -55.333 -15 -78 -47c-41.333 -58.667 -67 -175.334 -77 -350.001z" />
    <glyph glyph-name="uniFBE8" unicode="&#x649;" horiz-adv-x="656" arabic-form="initial" 
d="M-7 0c-37.333 0 -67.001 12.334 -89.001 37.001s-33 56.334 -33 95.001v18c0 37.333 11.167 67.666 33.5 90.999s51.833 35 88.5 35h100c68.667 0 122 8.33301 160 25c37.333 16.667 59.666 46 66.999 88c4.66699 29.333 7 61.666 7 96.999
c-0.666992 81.333 -14.334 178 -41.001 290l-12 46l262 47l12 -39c42 -148 56.333 -298.333 43 -451c-3.33301 -37.333 -9.66602 -72 -18.999 -104s-22.166 -61.667 -38.499 -89s-35.833 -51.333 -58.5 -72c-83.333 -76 -210.666 -114 -381.999 -114h-100z" />
    <glyph glyph-name="uniFBE9" unicode="&#x649;" horiz-adv-x="733" arabic-form="medial" 
d="M573 399c4.66699 -43.333 18.999 -74.6699 42.999 -94.0029s63 -29 117 -29h7c44.667 0 67 -44.667 67 -134v-10c0 -88 -22.333 -132 -67 -132h-9c-135.333 0 -235.666 41.333 -300.999 124c-83.333 -82.667 -199 -124 -347 -124h-91c-37.333 0 -66.833 12.333 -88.5 37
s-32.5 56.334 -32.5 95.001v18c0 36.667 11 66.834 33 90.501s51.333 35.5 88 35.5h86c35.333 0 65.666 2.66699 90.999 8s45.833 13.5 61.5 24.5s27.334 23.833 35.001 38.5s12.5 32.334 14.5 53.001l30 294h234z" />
    <glyph glyph-name="uniFBFC" unicode="&#x6cc;" horiz-adv-x="1512" arabic-form="isolated" 
d="M725 -252c141.333 0 259.667 34.666 355 103.999c68.667 48.667 105 101.667 109 159c-11.333 2.66699 -27 4 -47 4l-114 1c-30 0 -57.333 2.66699 -82 8c-67.333 15.333 -113.333 49.666 -138 102.999s-28.334 119 -11.001 197c22 98 68.667 187.667 140 269
c30.667 34.667 63.167 65.334 97.5 92.001s70.666 49 108.999 67s78.333 31.667 120 41s85.167 14.666 130.5 15.999l45 1v-278l-42 -3c-87.333 -6 -157.666 -28.5 -210.999 -67.5s-92.666 -95.833 -117.999 -170.5l119 1c82.667 0 147 -22.667 193 -68s68.667 -109 68 -191
c-0.666992 -93.333 -29 -182.666 -85 -267.999c-52 -78.667 -124.667 -142.667 -218 -192c-60.667 -32.667 -126.667 -56.667 -198 -72c-70 -16 -144.667 -23.667 -224 -23c-280 0.666992 -470.667 89.667 -572 267c-54 94 -81 205.667 -81 335
c-0.666992 146 36 308 110 486l17 41l243 -97l-16 -42c-58.667 -147.333 -87.667 -271 -87 -371c0 -79.333 13.667 -144.666 41 -195.999s69.5 -89.5 126.5 -114.5s130.5 -37.833 220.5 -38.5z" />
    <glyph glyph-name="uniFBFD" unicode="&#x6cc;" horiz-adv-x="1521" arabic-form="final" 
d="M1527 277c9.33301 0 17.5029 -1.49609 24.5029 -4.49609s12.833 -6.33301 17.5 -10s8.66699 -9.33398 12 -17.001s5.83301 -13.834 7.5 -18.501s3 -12 4 -22s1.5 -16.667 1.5 -20v-20v-15v-18v-16v-20.5c0 -4.33301 -0.333008 -11.333 -1 -21
s-1.83398 -17.334 -3.50098 -23.001s-4.16699 -12.167 -7.5 -19.5s-7.33301 -13 -12 -17s-10.667 -7.5 -18 -10.5s-15.666 -4.5 -24.999 -4.5h-67c6.66699 -19.333 10 -40 10 -62c0 -115.333 -63.333 -218.333 -190 -309c-141.333 -100 -323.333 -150.333 -546 -151
c-243.333 -1.33301 -420.333 58 -531 178c-44.667 48 -78 104.167 -100 168.5s-33 135.833 -33 214.5c-0.666992 162.667 33.333 317 102 463l18 39l242 -97l-17 -42c-52.667 -132.667 -78.667 -247.667 -78 -345c0.666992 -105.333 33.167 -183.333 97.5 -234
s166.833 -75.334 307.5 -74.001c177.333 0.666992 317.333 44.667 420 132c32 27.333 48.333 52.333 49 75c-0.666992 6.66699 -1.33398 12 -2.00098 16s-2.5 8 -5.5 12s-7.33301 7 -13 9s-13.167 3.83301 -22.5 5.5s-21 2.5 -35 2.5h-170h-2
c-30.667 3.33301 -55.834 16.5 -75.501 39.5s-33.834 52.167 -42.501 87.5c-11.333 46.667 -15 79.667 -11 99c6 24.667 21.333 40.667 46 48l6 2h643z" />
    <glyph glyph-name="uniFBFE" unicode="&#x6cc;" horiz-adv-x="689" arabic-form="initial" 
d="M-7 0c-37.333 0 -67.001 12.334 -89.001 37.001s-33 56.334 -33 95.001v18c0 37.333 11.167 67.666 33.5 90.999s51.833 35 88.5 35h100c68.667 0 122 8.33301 160 25c37.333 16.667 59.666 46 66.999 88c4.66699 29.333 7 61.666 7 96.999
c-0.666992 81.333 -14.334 178 -41.001 290l-12 46l262 47l12 -39c42 -148 56.333 -298.333 43 -451c-3.33301 -37.333 -9.66602 -72 -18.999 -104s-22.166 -61.667 -38.499 -89s-35.833 -51.333 -58.5 -72c-83.333 -76 -210.666 -114 -381.999 -114h-100z
M-70.1768 -325.795l181.891 182.961l173.331 -173.331l173.331 173.331l182.961 -184.03l-181.891 -181.891l-173.331 173.331l-173.331 -173.331z" />
    <glyph glyph-name="uniFBFF" unicode="&#x6cc;" horiz-adv-x="733" arabic-form="medial" 
d="M-70.1758 -325.796l181.891 182.961l173.331 -173.331l173.331 173.331l182.961 -184.03l-181.891 -181.891l-173.331 173.331l-173.331 -173.331zM573 399c4.66699 -43.333 18.999 -74.6699 42.999 -94.0029s63 -29 117 -29h7c44.667 0 67 -44.667 67 -134v-10
c0 -88 -22.333 -132 -67 -132h-9c-135.333 0 -235.666 41.333 -300.999 124c-83.333 -82.667 -199 -124 -347 -124h-91c-37.333 0 -66.833 12.333 -88.5 37s-32.5 56.334 -32.5 95.001v18c0 36.667 11 66.834 33 90.501s51.333 35.5 88 35.5h86
c35.333 0 65.666 2.66699 90.999 8s45.833 13.5 61.5 24.5s27.334 23.833 35.001 38.5s12.5 32.334 14.5 53.001l30 294h234z" />
    <glyph glyph-name="uniFDFC" unicode="&#xfdfc;" horiz-adv-x="3450" arabic-form="isolated" 
d="M719 -252c46 0.666992 87.002 5.99902 123.002 15.999s67.667 25 95 45c26.667 20.667 49 46.334 67 77.001c17.333 31.333 30.666 68.333 39.999 111c8.66699 42.667 13 91.334 13 146.001l3 1321h266l-1 -1131c0 -29.333 -0.333008 -59.333 -1 -90
c-0.666992 -29.333 -1.66699 -58.333 -3 -87s-3 -56.667 -5 -84c-10 -128.667 -39.667 -237 -89 -325s-118 -154.833 -206 -200.5s-193.667 -68.5 -317 -68.5c-266 -1.33301 -450.333 87.667 -553 267c-54 94 -81 205.667 -81 335c-0.666992 144 30.666 292.333 93.999 445
l17 41l243 -98l-16 -42c-48 -120.667 -71.667 -230.334 -71 -329.001c0 -80.667 13.667 -146.667 41 -198c26.667 -52 68 -90.333 124 -115s128.333 -36.667 217 -36zM2849 506.999l246 117.999l21 -38c92 -166.667 137.333 -326.334 136 -479.001
c-0.666992 -71.333 -10.667 -139.333 -30 -204c-5.33301 -16 -11 -32 -17 -48s-12.667 -31.667 -20 -47s-15.166 -30.5 -23.5 -45.5c-8.33301 -15 -17.166 -29.5 -26.5 -43.5c-114.667 -173.333 -315 -274 -601 -302l-42 -4l-48 267l49 5
c203.333 20.667 345.333 87.667 426 201c42.667 60 63.667 128 63 204c0 30.667 -2.16699 61.334 -6.5 92.001s-11.166 61.334 -20.5 92.001c-18.667 62.667 -46 126 -82 190zM2000 -0.00195312c-37.333 0 -67 12.334 -89 37.001s-33 56.334 -33 95.001v18
c0 37.333 11.167 67.666 33.5 90.999s51.833 35 88.5 35h100c68.667 0 122 8.33301 160 25c37.333 16.667 59.666 46 67 88c4.66699 29.333 7 61.666 7 96.999c-0.666992 81.333 -14.334 178 -41 290l-12 46l262 47l12 -39c42 -148 56.333 -298.333 43 -451
c-3.33301 -37.333 -9.66602 -72 -19 -104c-9.33301 -32 -22.166 -61.667 -38.5 -89c-16.333 -27.333 -35.833 -51.333 -58.5 -72c-83.333 -76 -210.666 -114 -382 -114h-100zM1757.83 -242.797l181.891 182.961l173.331 -173.331l173.331 173.331l182.961 -184.03
l-181.891 -181.891l-173.331 173.331l-173.331 -173.331zM1996 -0.000976562h-20.001c-140.667 0 -248 40.167 -322 120.5s-111 195.5 -111 345.5v998h267v-996c0 -69.333 13.333 -118.666 40 -147.999c26 -29.333 69 -44 129 -44h17c22.667 0 39.667 -10.667 51 -32
c5.33301 -10 9.33301 -23.333 12 -40c1.33301 -4.66699 2.33301 -10 3 -16c0 -6 0.333008 -11.667 1 -17v-21v-18v-11v-29c0.666992 -10.667 -0.333008 -21.334 -3 -32.001s-6 -20.667 -10 -30c-4 -8.66699 -10.667 -16 -20 -22c-9.33301 -5.33301 -20.666 -8 -33.999 -8z
" />
    <glyph glyph-name="uniFE71" unicode="&#xfe71;" horiz-adv-x="755" arabic-form="medial" 
d="M475 0c-37.333 0 -67 12.333 -89 37s-33 56.334 -33 95.001v18c0 37.333 11.167 67.666 33.5 90.999s51.833 35 88.5 35h288c29.333 -0.666992 49.333 -18.334 60 -53.001c4.66699 -17.333 7 -41.666 7 -72.999v-18v-12c2 -80 -20.333 -120 -67 -120h-288zM229 0
c-37.333 0 -67 12.333 -89 37s-33 56.334 -33 95.001v18c0 37.333 11.167 67.666 33.5 90.999s51.833 35 88.5 35h288c29.333 -0.666992 49.333 -18.334 60 -53.001c4.66699 -17.333 7 -41.666 7 -72.999v-18v-12c2 -80 -20.333 -120 -67 -120h-288zM-7 0
c-37.333 0 -67 12.333 -89 37s-33 56.334 -33 95.001v18c0 37.333 11.167 67.666 33.5 90.999s51.833 35 88.5 35h288c29.333 -0.666992 49.333 -18.334 60 -53.001c4.66699 -17.333 7 -41.666 7 -72.999v-18v-12c2 -80 -20.333 -120 -67 -120h-288zM80 1174v147l536 219
v-147zM80 1454v147l536 219v-147z" />
    <glyph glyph-name="uniFE77" unicode="&#xfe77;" horiz-adv-x="755" arabic-form="medial" 
d="M475 0c-37.333 0 -67 12.333 -89 37s-33 56.334 -33 95.001v18c0 37.333 11.167 67.666 33.5 90.999s51.833 35 88.5 35h288c29.333 -0.666992 49.333 -18.334 60 -53.001c4.66699 -17.333 7 -41.666 7 -72.999v-18v-12c2 -80 -20.333 -120 -67 -120h-288zM229 0
c-37.333 0 -67 12.333 -89 37s-33 56.334 -33 95.001v18c0 37.333 11.167 67.666 33.5 90.999s51.833 35 88.5 35h288c29.333 -0.666992 49.333 -18.334 60 -53.001c4.66699 -17.333 7 -41.666 7 -72.999v-18v-12c2 -80 -20.333 -120 -67 -120h-288zM-7 0
c-37.333 0 -67 12.333 -89 37s-33 56.334 -33 95.001v18c0 37.333 11.167 67.666 33.5 90.999s51.833 35 88.5 35h288c29.333 -0.666992 49.333 -18.334 60 -53.001c4.66699 -17.333 7 -41.666 7 -72.999v-18v-12c2 -80 -20.333 -120 -67 -120h-288zM46 1477v147l536 219
v-147z" />
    <glyph glyph-name="uniFE79" unicode="&#xfe79;" horiz-adv-x="755" arabic-form="medial" 
d="M475 0c-37.333 0 -67 12.333 -89 37s-33 56.334 -33 95.001v18c0 37.333 11.167 67.666 33.5 90.999s51.833 35 88.5 35h288c29.333 -0.666992 49.333 -18.334 60 -53.001c4.66699 -17.333 7 -41.666 7 -72.999v-18v-12c2 -80 -20.333 -120 -67 -120h-288zM229 0
c-37.333 0 -67 12.333 -89 37s-33 56.334 -33 95.001v18c0 37.333 11.167 67.666 33.5 90.999s51.833 35 88.5 35h288c29.333 -0.666992 49.333 -18.334 60 -53.001c4.66699 -17.333 7 -41.666 7 -72.999v-18v-12c2 -80 -20.333 -120 -67 -120h-288zM-7 0
c-37.333 0 -67 12.333 -89 37s-33 56.334 -33 95.001v18c0 37.333 11.167 67.666 33.5 90.999s51.833 35 88.5 35h288c29.333 -0.666992 49.333 -18.334 60 -53.001c4.66699 -17.333 7 -41.666 7 -72.999v-18v-12c2 -80 -20.333 -120 -67 -120h-288zM646 1623
c-21.333 0 -43.998 0.999023 -67.998 2.99902c-34.667 3.33301 -57.667 5.33301 -69 6c-68.667 -94 -162 -159.333 -280 -196c-15.333 -5.33301 -30.833 -9.66602 -46.5 -12.999s-31.5 -6 -47.5 -8s-32 -3.66699 -48 -5l-16 -1v117l14 1
c110.667 5.33301 203.334 47 278.001 125l14 15c-26 7.33301 -50 16.666 -72 27.999c-18.667 9.33301 -34.834 19.833 -48.501 31.5s-25.167 24.5 -34.5 38.5c-20.667 32 -29.667 68.333 -27 109c3.33301 46 17.666 84.667 42.999 116c12 14.667 25.833 26.834 41.5 36.501
s32.667 17 51 22s38.5 7.83301 60.5 8.5c6 0 12.167 -0.166992 18.5 -0.5s12.666 -1.16602 18.999 -2.49902s12.666 -2.83301 18.999 -4.5s12.833 -3.83398 19.5 -6.50098c51.333 -21.333 86.333 -57.333 105 -108c10.667 -28 15.334 -56.333 14.001 -85
c0 -12.667 -1.33301 -27 -4 -43l-4 -17.5l-4 -16.5c-1.33301 -5.33301 -3 -11 -5 -17l-4 -13l14 -1c12.667 -0.666992 24.5 -1.16699 35.5 -1.5s21.5 -0.5 31.5 -0.5h15v-117h-15zM446.002 1763l0.99707 3c14.667 33.333 22 64.666 22 93.999c0 13.333 -2 24.833 -6 34.5
s-10 17.834 -18 24.501c-15.333 12.667 -34.666 19 -57.999 19c-8.66699 0 -16.5 -1 -23.5 -3s-13.167 -4.83301 -18.5 -8.5s-10.333 -8.5 -15 -14.5c-11.333 -15.333 -16.666 -33.333 -15.999 -54c0 -31.333 21 -55.333 63 -72c4 -1.33301 8.33301 -3 13 -5
s9.83398 -3.83301 15.501 -5.5s12 -3.66699 19 -6s14.167 -4.5 21.5 -6.5z" />
    <glyph glyph-name="uniFE7B" unicode="&#xfe7b;" horiz-adv-x="755" arabic-form="medial" 
d="M475 0c-37.333 0 -67 12.333 -89 37s-33 56.334 -33 95.001v18c0 37.333 11.167 67.666 33.5 90.999s51.833 35 88.5 35h288c29.333 -0.666992 49.333 -18.334 60 -53.001c4.66699 -17.333 7 -41.666 7 -72.999v-18v-12c2 -80 -20.333 -120 -67 -120h-288zM229 0
c-37.333 0 -67 12.333 -89 37s-33 56.334 -33 95.001v18c0 37.333 11.167 67.666 33.5 90.999s51.833 35 88.5 35h288c29.333 -0.666992 49.333 -18.334 60 -53.001c4.66699 -17.333 7 -41.666 7 -72.999v-18v-12c2 -80 -20.333 -120 -67 -120h-288zM-7 0
c-37.333 0 -67 12.333 -89 37s-33 56.334 -33 95.001v18c0 37.333 11.167 67.666 33.5 90.999s51.833 35 88.5 35h288c29.333 -0.666992 49.333 -18.334 60 -53.001c4.66699 -17.333 7 -41.666 7 -72.999v-18v-12c2 -80 -20.333 -120 -67 -120h-288zM98 -507v147l536 219
v-147z" />
    <glyph glyph-name="uniFE7D" unicode="&#xfe7d;" horiz-adv-x="755" arabic-form="medial" 
d="M475 0c-37.333 0 -67 12.333 -89 37s-33 56.334 -33 95.001v18c0 37.333 11.167 67.666 33.5 90.999s51.833 35 88.5 35h288c29.333 -0.666992 49.333 -18.334 60 -53.001c4.66699 -17.333 7 -41.666 7 -72.999v-18v-12c2 -80 -20.333 -120 -67 -120h-288zM229 0
c-37.333 0 -67 12.333 -89 37s-33 56.334 -33 95.001v18c0 37.333 11.167 67.666 33.5 90.999s51.833 35 88.5 35h288c29.333 -0.666992 49.333 -18.334 60 -53.001c4.66699 -17.333 7 -41.666 7 -72.999v-18v-12c2 -80 -20.333 -120 -67 -120h-288zM-7 0
c-37.333 0 -67 12.333 -89 37s-33 56.334 -33 95.001v18c0 37.333 11.167 67.666 33.5 90.999s51.833 35 88.5 35h288c29.333 -0.666992 49.333 -18.334 60 -53.001c4.66699 -17.333 7 -41.666 7 -72.999v-18v-12c2 -80 -20.333 -120 -67 -120h-288zM428 1986
c1.33301 -30.667 2.00098 -61.666 2.00098 -92.999c0 -36.667 6 -62.834 18 -78.501s30.667 -23.5 56 -23.5c23.333 0.666992 40.5 8 51.5 22s16.833 37.667 17.5 71c0 20 -1.5 42.167 -4.5 66.5s-7.5 50.833 -13.5 79.5l-5 21l137 21l4 -17c14 -47.333 20.667 -101 20 -161
c0.666992 -78.667 -16.166 -139.167 -50.499 -181.5s-84.833 -63.5 -151.5 -63.5c-51.333 -0.666992 -91 14 -119 44c-32.667 -76.667 -92 -115 -178 -115c-8.66699 0 -16.667 0.333008 -24 1c-56.667 5.33301 -97.334 30 -122.001 74s-33 104.333 -25 181
c0.666992 12 2.16699 26 4.5 42l7.5 53l4 20l127 -21l-4 -20c-7.33301 -33.333 -11 -69.333 -11 -108c0.666992 -18.667 3 -33.5 7 -44.5s10 -18.667 18 -23s18.333 -6.16602 31 -5.49902c24 -0.666992 42.333 7.16602 55 23.499s19.667 43.833 21 82.5
c1.33301 40 1.66602 90.667 0.999023 152v20h125z" />
    <glyph glyph-name="uniFE7F" unicode="&#xfe7f;" horiz-adv-x="755" arabic-form="medial" 
d="M475 0c-37.333 0 -67 12.333 -89 37s-33 56.334 -33 95.001v18c0 37.333 11.167 67.666 33.5 90.999s51.833 35 88.5 35h288c29.333 -0.666992 49.333 -18.334 60 -53.001c4.66699 -17.333 7 -41.666 7 -72.999v-18v-12c2 -80 -20.333 -120 -67 -120h-288zM229 0
c-37.333 0 -67 12.333 -89 37s-33 56.334 -33 95.001v18c0 37.333 11.167 67.666 33.5 90.999s51.833 35 88.5 35h288c29.333 -0.666992 49.333 -18.334 60 -53.001c4.66699 -17.333 7 -41.666 7 -72.999v-18v-12c2 -80 -20.333 -120 -67 -120h-288zM-7 0
c-37.333 0 -67 12.333 -89 37s-33 56.334 -33 95.001v18c0 37.333 11.167 67.666 33.5 90.999s51.833 35 88.5 35h288c29.333 -0.666992 49.333 -18.334 60 -53.001c4.66699 -17.333 7 -41.666 7 -72.999v-18v-12c2 -80 -20.333 -120 -67 -120h-288zM159 1624
c0 64.667 22.5 119.5 67.5 164.5s100 67.5 165 67.5s119.833 -22.5 164.5 -67.5s67 -99.833 67 -164.5s-22.333 -119.5 -67 -164.5s-99.5 -67.5 -164.5 -67.5s-120 22.5 -165 67.5s-67.5 99.833 -67.5 164.5zM286 1623c0 -30.667 10.667 -56.335 32 -77.002
c21.333 -21.333 47 -32 77 -32c30.667 0 56.667 10.667 78 32c20.667 20.667 31 46.334 31 77.001s-10.333 56.334 -31 77.001c-21.333 21.333 -47.333 32 -78 32c-30 0 -55.667 -10.5 -77 -31.5s-32 -46.833 -32 -77.5z" />
    <glyph glyph-name="uniFE80" unicode="&#x621;" horiz-adv-x="914" arabic-form="isolated" 
d="M74 -22l-0.000976562 296.001l21 13c52 33.333 101.333 60.666 148 81.999c-51.333 37.333 -90.666 80 -117.999 128s-41.333 100.333 -42 157c-1.33301 92 29 174 91 246c72 84 172.667 126 302 126c112 0.666992 210.333 -35.666 295 -108.999l25 -22l-89 -202l-43 24
c-19.333 10.667 -38.666 19.5 -57.999 26.5s-38.5 12.167 -57.5 15.5s-38.167 5 -57.5 5c-58.667 -0.666992 -102 -17 -130 -49c-16.667 -19.333 -25.334 -39 -26.001 -59c-0.666992 -20.667 4 -39.334 14 -56.001c24.667 -37.333 78 -74.333 160 -111l304 61l41 -282
l-46 -5c-186.667 -21.333 -409 -104 -667 -248z" />
    <glyph glyph-name="uniFE81" unicode="&#x622;" horiz-adv-x="652" arabic-form="isolated" 
d="M193 1316.38h267v-1315.49h-267v1315.49zM259 1525c-74 10 -141.667 -21.332 -203 -93.999l-101 146c78.667 113.333 174.667 161 288 143l149 -24c64.667 -10.667 137.667 4.66602 219 45.999l66 -177c-86 -53.333 -178.333 -73.333 -277 -60z" />
    <glyph glyph-name="uniFE82" unicode="&#x622;" horiz-adv-x="632" arabic-form="final" 
d="M259 1525c-74 10 -141.667 -21.332 -203 -93.999l-101 146c78.667 113.333 174.667 161 288 143l149 -24c64.667 -10.667 137.667 4.66602 219 45.999l66 -177c-86 -53.333 -178.333 -73.333 -277 -60zM598 0.000976562l-19.999 0.00195312
c-146.667 0 -258.667 40 -336 120c-78 80 -117 195.333 -117 346v850h267v-848c0 -68.667 14.667 -117.834 44 -147.501s77.666 -44.5 144.999 -44.5h17c22.667 0 39.667 -10.667 51 -32c3.33301 -6 6 -12.333 8 -19c1.33301 -6 2.66602 -12.667 3.99902 -20
c2.66699 -12 4 -30.333 4 -55v-18v-11v-29c0.666992 -10.667 -0.333008 -21.334 -3 -32.001s-6 -20.667 -10 -30c-4 -8.66699 -10.667 -16 -20 -22c-9.33301 -5.33301 -20.666 -8 -33.999 -8z" />
    <glyph glyph-name="uniFE83" unicode="&#x623;" horiz-adv-x="494" arabic-form="isolated" 
d="M123 1316.38h267v-1315.49h-267v1315.49zM-6 1734c0 56 13.333 103.998 40 143.998c5.33301 8 11.333 15.667 18 23l10 10.5c3.33301 3.66699 7 6.83398 11 9.50098c25.333 22.667 53.333 39.667 84 51c14.667 6 30 10.333 46 13s32.667 4.33398 50 5.00098l7 -1
c30.667 0 60 -3.33301 88 -10c29.333 -7.33301 57.333 -18.333 84 -33l14 -8l1 -180l-39 18c-9.33301 4 -18.5 7.66699 -27.5 11l-26 9.5c-8.33301 3 -16.5 5.5 -24.5 7.5c-22.667 6 -43.667 8.66699 -63 8c-17.333 0 -32.666 -2.5 -45.999 -7.5s-25.333 -12.167 -36 -21.5
l-6 -6l-4 -6l-4 -6c-0.666992 -1.33301 -1.16699 -2.5 -1.5 -3.5s-0.833008 -2.16699 -1.5 -3.5l-2 -8c0 -1.33301 -0.166992 -2.66602 -0.5 -3.99902s-0.5 -3 -0.5 -5c-2 -23.333 4.33301 -43 19 -59c16 -18 42.667 -32.667 80 -44h3c0.666992 -0.666992 1.5 -1 2.5 -1h3.5
h8h4.5h5.5h6c1.33301 0.666992 2.66602 1 3.99902 1h4c1.33301 0 2.66602 0.166992 3.99902 0.5s2.83301 0.5 4.5 0.5s3.16699 0.333008 4.5 1c30.667 3.33301 71.334 10.666 122.001 21.999l33 8v-182l-481 -108v179l71 17c-46 46 -69 98.667 -69 158z" />
    <glyph glyph-name="uniFE84" unicode="&#x623;" horiz-adv-x="632" arabic-form="final" 
d="M-6 1734c0 56 13.333 103.998 40 143.998c5.33301 8 11.333 15.667 18 23l10 10.5c3.33301 3.66699 7 6.83398 11 9.50098c25.333 22.667 53.333 39.667 84 51c14.667 6 30 10.333 46 13s32.667 4.33398 50 5.00098l7 -1c30.667 0 60 -3.33301 88 -10
c29.333 -7.33301 57.333 -18.333 84 -33l14 -8l1 -180l-39 18c-9.33301 4 -18.5 7.66699 -27.5 11l-26 9.5c-8.33301 3 -16.5 5.5 -24.5 7.5c-22.667 6 -43.667 8.66699 -63 8c-17.333 0 -32.666 -2.5 -45.999 -7.5s-25.333 -12.167 -36 -21.5l-6 -6l-4 -6l-4 -6
c-0.666992 -1.33301 -1.16699 -2.5 -1.5 -3.5s-0.833008 -2.16699 -1.5 -3.5l-2 -8c0 -1.33301 -0.166992 -2.66602 -0.5 -3.99902s-0.5 -3 -0.5 -5c-2 -23.333 4.33301 -43 19 -59c16 -18 42.667 -32.667 80 -44h3c0.666992 -0.666992 1.5 -1 2.5 -1h3.5h8h4.5h5.5h6
c1.33301 0.666992 2.66602 1 3.99902 1h4c1.33301 0 2.66602 0.166992 3.99902 0.5s2.83301 0.5 4.5 0.5s3.16699 0.333008 4.5 1c30.667 3.33301 71.334 10.666 122.001 21.999l33 8v-182l-481 -108v179l71 17c-46 46 -69 98.667 -69 158zM598 -0.00195312
l-19.999 0.00195312c-146.667 0 -258.667 40 -336 120c-78 80 -117 195.333 -117 346v850h267v-848c0 -68.667 14.667 -117.834 44 -147.501s77.666 -44.5 144.999 -44.5h17c22.667 0 39.667 -10.667 51 -32c3.33301 -6 6 -12.333 8 -19
c1.33301 -6 2.66602 -12.667 3.99902 -20c2.66699 -12 4 -30.333 4 -55v-18v-11v-29c0.666992 -10.667 -0.333008 -21.334 -3 -32.001s-6 -20.667 -10 -30c-4 -8.66699 -10.667 -16 -20 -22c-9.33301 -5.33301 -20.666 -8 -33.999 -8z" />
    <glyph glyph-name="uniFE85" unicode="&#x624;" horiz-adv-x="908" arabic-form="isolated" 
d="M183 1261c0 56 13.333 103.998 40 143.998c5.33301 8 11.333 15.667 18 23l10 10.5c3.33301 3.66699 7 6.83398 11 9.50098c25.333 22.667 53.333 39.667 84 51c14.667 6 30 10.333 46 13s32.667 4.33398 50 5.00098l7 -1c30.667 0 60 -3.33301 88 -10
c29.333 -7.33301 57.333 -18.333 84 -33l14 -8l1 -180l-39 18c-9.33301 4 -18.5 7.66699 -27.5 11l-26 9.5c-8.33301 3 -16.5 5.5 -24.5 7.5c-22.667 6 -43.667 8.66699 -63 8c-17.333 0 -32.666 -2.5 -45.999 -7.5s-25.333 -12.167 -36 -21.5l-6 -6l-4 -6l-4 -6
c-0.666992 -1.33301 -1.16699 -2.5 -1.5 -3.5s-0.833008 -2.16699 -1.5 -3.5l-2 -8c0 -1.33301 -0.166992 -2.66602 -0.5 -3.99902s-0.5 -3 -0.5 -5c-2 -23.333 4.33301 -43 19 -59c16 -18 42.667 -32.667 80 -44h3c0.666992 -0.666992 1.5 -1 2.5 -1h3.5h8h4.5h5.5h6
c1.33301 0.666992 2.66602 1 3.99902 1h4c1.33301 0 2.66602 0.166992 3.99902 0.5s2.83301 0.5 4.5 0.5s3.16699 0.333008 4.5 1c30.667 3.33301 71.334 10.666 122.001 21.999l33 8v-182l-481 -108v179l71 17c-46 46 -69 98.667 -69 158zM489 267.998
c30.667 0.666992 61 4.33496 91 11.002c-12 95.333 -32.333 167.333 -61 216c-14 24.667 -28.333 41.667 -43 51s-32 13.666 -52 12.999c-16.667 0 -32.167 -7 -46.5 -21s-27.5 -39 -39.5 -75c-14 -40.667 -21 -76.334 -21 -107.001c0 -26 6 -44.333 18 -55
c28.667 -24.667 80 -35.667 154 -33zM847 171.999c-0.666992 -110.667 -20.166 -210.17 -58.499 -298.503s-95.5 -163.833 -171.5 -226.5c-110.667 -91.333 -277.334 -149 -500.001 -173l-42 -4l-49 267l50 4c260.667 23.333 423.667 111 489 263
c-22.667 -2.66699 -44 -4.33398 -64 -5.00098s-39.667 -1 -59 -1c-125.333 2 -221.666 33.333 -288.999 94s-100 147.334 -98 260.001c1.33301 80.667 18.333 158.334 51 233.001c17.333 38.667 36.666 73 57.999 103s45 55.833 71 77.5s54.333 38.334 85 50.001
s63 18.167 97 19.5c84 2.66699 156.833 -20 218.5 -68s110.167 -118 145.5 -210c44 -115.333 66 -243.666 66 -384.999z" />
    <glyph glyph-name="uniFE86" unicode="&#x624;" horiz-adv-x="906" arabic-form="final" 
d="M429 834c46 2 89.167 -3.66797 129.5 -17.001s77 -34.166 110 -62.499s61.833 -63.5 86.5 -105.5c18 -31.333 33.833 -66.333 47.5 -105s25 -80.167 34 -124.5s15.5 -92.166 19.5 -143.499h57c7.33301 0 14 -1 20 -3s11.167 -4.83301 15.5 -8.5s8 -7.5 11 -11.5
s5.5 -8.5 7.5 -13.5s3.5 -9.16699 4.5 -12.5s1.83301 -6.66602 2.5 -9.99902c4 -24.667 6 -50 6 -76v-9c0 -2 0.166992 -6.66699 0.5 -14s0.5 -13.333 0.5 -18s-0.333008 -10.834 -1 -18.501s-1.5 -14.334 -2.5 -20.001s-2.5 -12 -4.5 -19s-4.66699 -12.667 -8 -17
s-7.33301 -8.66602 -12 -12.999s-10.334 -7.5 -17.001 -9.5s-14.334 -3 -23.001 -3h-80c-38 -151.333 -110 -270.333 -216 -357c-37.333 -30 -81.166 -56.333 -131.499 -79s-106 -41.334 -167 -56.001s-128.5 -26 -202.5 -34l-42 -4l-49 269l50 4
c259.333 22 423 108 491 258l-86 1c-173.333 0 -293.666 46.333 -360.999 139c-36.667 50 -56.667 109.333 -60 178c-4.66699 95.333 18 194 68 296c33.333 67.333 75.5 119.833 126.5 157.5s109.5 58.167 175.5 61.5zM490 279.999l97.9971 -1.00098
c-3.33301 43.333 -8.66602 81.5 -15.999 114.5s-15.666 60 -24.999 81s-20.166 38 -32.499 51s-25 22 -38 27s-27.167 6.83301 -42.5 5.5c-32 -2 -59 -28.333 -81 -79c-21.333 -49.333 -31 -92.333 -29 -129c0 -8 1.5 -15 4.5 -21s8.33301 -12.167 16 -18.5
s17.5 -11.666 29.5 -15.999s27.833 -7.83301 47.5 -10.5s42.5 -4 68.5 -4zM182.997 1261c0 56 13.333 103.998 40 143.998c5.33301 8 11.333 15.667 18 23l10 10.5c3.33301 3.66699 7 6.83398 11 9.50098c25.333 22.667 53.333 39.667 84 51c14.667 6 30 10.333 46 13
s32.667 4.33398 50 5.00098l7 -1c30.667 0 60 -3.33301 88 -10c29.333 -7.33301 57.333 -18.333 84 -33l14 -8l1 -180l-39 18c-9.33301 4 -18.5 7.66699 -27.5 11l-26 9.5c-8.33301 3 -16.5 5.5 -24.5 7.5c-22.667 6 -43.667 8.66699 -63 8
c-17.333 0 -32.666 -2.5 -45.999 -7.5s-25.333 -12.167 -36 -21.5l-6 -6l-4 -6l-4 -6c-0.666992 -1.33301 -1.16699 -2.5 -1.5 -3.5s-0.833008 -2.16699 -1.5 -3.5l-2 -8c0 -1.33301 -0.166992 -2.66602 -0.5 -3.99902s-0.5 -3 -0.5 -5c-2 -23.333 4.33301 -43 19 -59
c16 -18 42.667 -32.667 80 -44h3c0.666992 -0.666992 1.5 -1 2.5 -1h3.5h8h4.5h5.5h6c1.33301 0.666992 2.66602 1 3.99902 1h4c1.33301 0 2.66602 0.166992 3.99902 0.5s2.83301 0.5 4.5 0.5s3.16699 0.333008 4.5 1c30.667 3.33301 71.334 10.666 122.001 21.999l33 8
v-182l-481 -108v179l71 17c-46 46 -69 98.667 -69 158z" />
    <glyph glyph-name="uniFE87" unicode="&#x625;" horiz-adv-x="494" arabic-form="isolated" 
d="M-11 -429c0 56 13.333 103.998 40 143.998c5.33301 8 11.333 15.667 18 23l10 10.5c3.33301 3.66699 7 6.83398 11 9.50098c25.333 22.667 53.333 39.667 84 51c14.667 6 30 10.333 46 13s32.667 4.33398 50 5.00098l7 -1c30.667 0 60 -3.33301 88 -10
c29.333 -7.33301 57.333 -18.333 84 -33l14 -8l1 -180l-39 18c-9.33301 4 -18.5 7.66699 -27.5 11l-26 9.5c-8.33301 3 -16.5 5.5 -24.5 7.5c-22.667 6 -43.667 8.66699 -63 8c-17.333 0 -32.666 -2.5 -45.999 -7.5s-25.333 -12.167 -36 -21.5l-6 -6l-4 -6l-4 -6
c-0.666992 -1.33301 -1.16699 -2.5 -1.5 -3.5s-0.833008 -2.16699 -1.5 -3.5l-2 -8c0 -1.33301 -0.166992 -2.66602 -0.5 -3.99902s-0.5 -3 -0.5 -5c-2 -23.333 4.33301 -43 19 -59c16 -18 42.667 -32.667 80 -44h3c0.666992 -0.666992 1.5 -1 2.5 -1h3.5h8h4.5h5.5h6
c1.33301 0.666992 2.66602 1 3.99902 1h4c1.33301 0 2.66602 0.166992 3.99902 0.5s2.83301 0.5 4.5 0.5s3.16699 0.333008 4.5 1c30.667 3.33301 71.334 10.666 122.001 21.999l33 8v-182l-481 -108v179l71 17c-46 46 -69 98.667 -69 158zM119 1464h267v-1463h-267v1463z
" />
    <glyph glyph-name="uniFE88" unicode="&#x625;" horiz-adv-x="565" arabic-form="final" 
d="M572 0h-20.001c-140.667 0 -248 40.167 -322 120.5s-111 195.5 -111 345.5v998h267v-996c0 -69.333 13.333 -118.666 40 -147.999c26 -29.333 69 -44 129 -44h17c22.667 0 39.667 -10.667 51 -32c5.33301 -10 9.33301 -23.333 12 -40c1.33301 -4.66699 2.33301 -10 3 -16
c0 -6 0.333008 -11.667 1 -17v-21v-18v-11v-29c0.666992 -10.667 -0.333008 -21.334 -3 -32.001s-6 -20.667 -10 -30c-4 -8.66699 -10.667 -16 -20 -22c-9.33301 -5.33301 -20.666 -8 -33.999 -8zM73.999 -343c0 56 13.333 103.998 40 143.998
c5.33301 8 11.333 15.667 18 23l10 10.5c3.33301 3.66699 7 6.83398 11 9.50098c25.333 22.667 53.333 39.667 84 51c14.667 6 30 10.333 46 13s32.667 4.33398 50 5.00098l7 -1c30.667 0 60 -3.33301 88 -10c29.333 -7.33301 57.333 -18.333 84 -33l14 -8l1 -180l-39 18
c-9.33301 4 -18.5 7.66699 -27.5 11l-26 9.5c-8.33301 3 -16.5 5.5 -24.5 7.5c-22.667 6 -43.667 8.66699 -63 8c-17.333 0 -32.666 -2.5 -45.999 -7.5s-25.333 -12.167 -36 -21.5l-6 -6l-4 -6l-4 -6c-0.666992 -1.33301 -1.16699 -2.5 -1.5 -3.5
s-0.833008 -2.16699 -1.5 -3.5l-2 -8c0 -1.33301 -0.166992 -2.66602 -0.5 -3.99902s-0.5 -3 -0.5 -5c-2 -23.333 4.33301 -43 19 -59c16 -18 42.667 -32.667 80 -44h3c0.666992 -0.666992 1.5 -1 2.5 -1h3.5h8h4.5h5.5h6c1.33301 0.666992 2.66602 1 3.99902 1h4
c1.33301 0 2.66602 0.166992 3.99902 0.5s2.83301 0.5 4.5 0.5s3.16699 0.333008 4.5 1c30.667 3.33301 71.334 10.666 122.001 21.999l33 8v-182l-481 -108v179l71 17c-46 46 -69 98.667 -69 158z" />
    </font>
</defs>
</svg>
